<mxGraphModel dx="1358" dy="850" grid="1" gridSize="10" guides="1" tooltips="1" connect="1" arrows="1" fold="1" page="1" pageScale="1" pageWidth="827" pageHeight="1169" math="0" shadow="0">
    <root>
      <mxCell id="0" />
      <mxCell id="1" parent="0" />
      
      <mxCell id="7312b7dc-07d3-11eb-b423-c9350188184f" value="" style="group" vertex="1" connectable="0" parent="1">
        <mxGeometry x="20" y="12.5" width="300" height="215" as="geometry" />
      </mxCell>
      <mxCell id="7312b7dd-07d3-11eb-b423-c9350188184f" value="" style="rounded=1;whiteSpace=wrap;html=1;fillColor=#D5DDE5;strokeColor=#EBEBEB;fontColor=#D5DDE5;" parent="7312b7dc-07d3-11eb-b423-c9350188184f" vertex="1">
        <mxGeometry width="300" height="215" as="geometry" />
      </mxCell>
      <object label="" id="7312b7de-07d3-11eb-b423-c9350188184f" Type="label">
        <mxCell style="group;fontFamily=Comic Sans MS;fontColor=#FFF11F;" parent="7312b7dc-07d3-11eb-b423-c9350188184f" vertex="1" connectable="0">
          <mxGeometry width="300" height="60" as="geometry" />
        </mxCell>
      </object>
      <object label="Thing"   Type="Tier" id="7312b7df-07d3-11eb-b423-c9350188184f">
        <mxCell style="rounded=1;whiteSpace=wrap;html=1;arcSize=0;fillColor=#195190FF;strokeColor=#6c8ebf;fontFamily=Comic Sans MS;fontSize=22;fontColor=#FFFFFF;" parent="7312b7de-07d3-11eb-b423-c9350188184f" vertex="1">
          <mxGeometry width="300" height="60" as="geometry" />
        </mxCell>
      </object>
      
      <object label="Lyra" Type="ThingNode" id="7312b7e0-07d3-11eb-b423-c9350188184f" Tier="7312b7df-07d3-11eb-b423-c9350188184f">
        <mxCell style="shape=image;verticalLabelPosition=bottom;labelBackgroundColor=none;verticalAlign=top;aspect=fixed;image=data:image/png,iVBORw0KGgoAAAANSUhEUgAAAgAAAAIACAYAAAD0eNT6AAAABGdBTUEAALGPC/xhBQAAACBjSFJNAAB6JgAAgIQAAPoAAACA6AAAdTAAAOpgAAA6mAAAF3CculE8AAAABmJLR0QAAAAAAAD5Q7t/AAAACXBIWXMAAA7EAAAOxAGVKw4bAACAAElEQVR42uydeWBcVdXAf+dNkiYp0BYQZFMWF3AF0c9dFhUBFVEp4IYIWGRpM5M2mbS4PFTazKTNTFoWKZuCiLa4gQIC7vuC+wIugAqoILQFmrTNzDvfH5liaNM2eefOvJdyf/98HzX3vHPezLx73rlnAY/H4/F4PB6Px+PxeDwej8fj8Xg8Ho/H4/F4PB6Px+PxeDwej8fj8Xg8Ho/H4/F4PB6Px+PxeDwej8fj8Xg8Ho/H4/F4PB6Px+PxeDwej8fj8Xg8Ho/H4/F4PB6Px+PxeDwej8fj8Xg8Ho/H4/F4PB6Px+PxeDwej8fj8Xg8Ho/H4/F4PB6Px+PxeDwej8fj8Xg8Ho/H4/F4PB6Px+PxeDwej8fj8Xg8Ho/H4/F4PB6Px+PxeDwej8fj8Xg8Ho/H4/F4PB6Px+PxeDwej8fj8Xg8Ho/H4/F4PB6Px+PxeDwej8fj8Xg8Ho/H4/F4PB6Px+PxeDwej8fj8Xg8Ho/H4/F4PB6Px+PxeDwej8fj8Xg8Ho/H4/F4PB6Px+PxeDwej8fj8Xg8Ho/H4/F4PB6Px+PxeDwej8fj8Xg8Ho/H4/F4PB6Px+PxeDwej8fj8Xg8Ho/H4/F4PB6Px+PxeDwej8fj8Xg8Ho/H4/F4PB6Px+PxeDwej8fj8Xg8Ho/H4/F4PB6Px+PxeDwej8fj8Xg8Ho/H4/F4PB6Px+PxeDwej8fj8Xg8Ho/H4/F4PB6Px+PxeDwej8fj8Xg8Ho/H4/F4PB6Px+PxeDwej8fj8Xg8Ho/H4/F4PB6Px+PxeDwej8fj8Xg8Ho/H4/F4PB6Px+PxeDwej8fj8Xg8Ho/HM+mRpBWYjKyYqZl79uRIAt5IxEsRngvMANoQVqHcD/wR5fsKN/QMyD+S1tnj8XgmE4vn6jOjKsep8FqU5yHsiTIDGFRYJcqfRfi5CLc98z6+feJKqSat82TDOwAToJTV6cPKuSqcBew5zmWRwrcUFs0vy7eStsHj8XjSTF9O3xBBD8oRQDDOZQ+IckmzcGGuLKuTtmGy4B2AcaCo9GX5gEIR2CWuHIEbI+VcHxHweDyeJ7N4rj6zWuUi4M0GMf8VyHeVuUoQTdqmtOMdgG2wdLbuNJThKuAdjkQ+ovDenrLcnLRtHo/HkwZ6s/pmgauBnV3IU+GL0swH8kV5LGnb0ox3ALbCwnN0l0wztwAvdSy6ApyWL8s1Sdvo8Xg8SdLboaeIcAXQ5Fj0L6rDHL3gInk4aRvTincAtsDS2brTuia+pcqhdbpEpMr7ewbks0nb6vF4PEnQm9MTRfkckKnTJX7TAof7vICxGW+CxVOK/py2DWW4oY6bP0Agwqd7c3py0vZ6PB5Poylk9R2iXEv9Nn+AFw/Dl8NQW5O2N414B2ATLp2lzcPKSuCwBlwuI8rVhQ49Lmm7PR6Pp1EUc3o08Dnch/03Q+HwttV8IQy17teabHgHYBSKyqp2lmPLQp0ozQgre7PayGt6PB5PIhQ69I0a8WVgSgMve1zbaq5U1B97j8I7AKMoZukXODWBS7cIrFyU1SOTvgcej8dTL3o79DUIX0ZIIiT/vkKWgaTvQZrwDkCN3g69AMgmqEJbADf2dujrkr4XHo/H45q+rL5ShJuBqUnpIDC7N6c9Sd+LtODDIUBvVjsFliStB4DCo6q8Yf6A/DxpXTwej8cFizr1kED5Zq2Vb9KoKmf2DMhlSSuSNE95B6DYoTNV+DzpioasiSJeP3+p3JG0Ih6Px2Ohr0NfFAnfxlGTH0dURXlX94CsTFqRJHlKOwCLOvRlgfAdoD1pXcbgv0HEEV1L5fdJK+LxeDxx6M3p80X5NvC0pHUZg/UivKm7JN9NWpGkeMo6AItyun+g/BjYLWldtsKDwOH5svwpaUU8Ho9nIhTn6LM14LvAHknrshUekYhXdC+VvyStSBKkKezdMBaeo7sEys242/yrqrxfmtlD4acOVd0NuLXvXN2v8XfJ4/F44rEop/trwLdwu/n/TJrZQ5X3A65G/+6sATcuOkvTkJvQcJ5yDkAYakumiZXAcxyJVBHO7hmQq7v75N9M4U3ALxyqvHfUxHcWZXXfht8sj8fjmSCF2bp3ALcDezsU+5tm4ZjuPvl3z4Bcrco5DmU/N5jCV8JQWxp8qxLnKeUAKCrta7gC4Qh3MunpLsnyjf/dU5A1mQzHAC7P7p8RwG2Fc3XPRt4vj8fjmQgXdOjuEnAbisuo5V0V5U2dJXlk4z/0DMilwIcdXuN1rau5pGE3KiU8pRyAYpZPqPJeV/JE6e0pS3HTf5+3RP5bUd4A3OVQ/WdpM7f1zdM05yx4PJ6nKAtn69OahG+qcKBDsX+pwBHnDch/Nv0f8mW5QGCxqwsJnFbMaa4hNyslPGWSAAtZfQdwvTOblU/lB+Ssrf1Jf073Gla+Cxzg0JTfVoc50o+49Hg8aaGU1ekb4JvASxyK/Ucmw+vmLZG/b+kPFJVijstQTnd0zQjl7fkBuaGuNywlPCUiAL2d+mLgatw5PF/a7wHO3dYfdZbk/qaAI4B7HZrzokwztz9Vk1Y8Hk+6WDpbdxqGW3G7+d8XVDh8a5s/gCC6332cqcIXHV03QLi2r0NfVLcbliK2ewdg4Tm6iyhfxl37yZunD3LyiStlXFmoc/vln5HwRuABh2YdHLTytfBs3cH1/fJ4PJ7xEs7S9qEMNyq8zKHY/1QzvLHrQrlnPH984kqptsD7AFf1/DtUhZv6c7qX8xuWMrZrB2DFTM1kmrnWWUKK8quhDZx45nIZnsiy+SX5azXgCJR/OzNOeVVbC7f0zdPE+mp7PJ6nLuEsbW9r5ybA5fySB4EjFiyROyeyqLMkQzqFt6H8yoUSAnsNK1+4dJY2O7QtdWzXDsA9e7EYeJMLWQr3E3FceLE8Hmf9gn75swYcBbg8u391tcJXwlCTmKzl8XieooShtra282XgMIdiHw6UN8ZtfNZTkDUVOAZ3R66vXtVGwaF9qWO7TQLs7dD3inCNI3GPacBre/rlN1ZBxawerCPJMu76Yiu3tEUcP2eZrHcm0+PxeMbg0lnavKadLyq81aHYNZHyRhdD0ApZPQj4ETDdhWKinLi9zgzYLiMAi+booSIst0sCYFiEE1xs/gDdZfl1AG8BHnNmsHD0UIbPhqE2OZPp8Xg8m7BipmZWt3G1481/rQhvdTUBNV+WP6lyMlBxIU+FK2tOxXbHducAlLI6PciwEmhzIU+ho7skt7rUsassP5aRUFWs44QtcELbGj63YqZmXOrq8Xg8AGGowT178RmEkx2KHYrgLd0l+b5LXXsG5Bsocx2J2wFYsT3mW213DsAGuMJV0p8qC3vKUpfuUN1l+WEgvB1lnTOhysy79+LyMNTt7nP1eDzJoai0jXTKe49DsRsk4oT5ZflOPXTOD8hSlIsdiXtBVOGyeuiZJNvVRlHM6mzgHY7EXZ8fcNpqcjO6SnK7CicAG1zJFDi1bQ2leurt8XieWhRzLAVmORS5QZR3di+Vm+qp99AMOnSkR4EL3tXboWfWU99Gs904AIvm6KEKfY7E/S5o4lRBtN5695Tl68C7cHReBYAy56nW0tLj8dSH3qzOQ7fd+GwCVIB3dQ/I1+qtexhKZQqcBDgZqS7CwKI5emi99W4U20UVwNLZutNQhjuAZzkQ90gkvGx+Se5upA3FrL5L4RrA1Rn+MMKr8iVxOZnQ4/E8hejr0JdHwg8AVwnGVRVO6SnJ5xppR3G2HqAZfgLs6kDcvc3CoaOHE01WtosIwFCGi3Gz+VcV3tvozR+guyzXIZwORI5ENgMDjbbD4/FsHygqkbAUd5t/hPDBRm/+AN3L5G+qvBOYUBO3LbDvsHJFo22oB5PeASjk9EO4SkwR8j1luTkpW/Il+YzABwE3Rw/Kq4pz9Nik7PF4PJOXQo7jgP9zJE4RZudLclVS9vQMyPdEyDsSd3yhQ10NIEqMSe0A9M3RFxC5SXgT5XP5kixJ2qbuslwJdLqSpwEfS9omj8cz+RDlow7FdeZL4iojPzZdJcqMTIW1I5SLs9XlpNeGM2kdgEtnaXMUcBWCiza4vx4c4oNJ27SRfFnKirMa1v9blNV9k7bJ4/FMHhbldH8cTfcT4bx8WcpJ2wQj0wOHNvAB3CQF7kCG6ybzvIBJ6wCsbud84KUuRAUV3hEul8GkbRpNT1n6Vfi4C1kCb07aHo/HM3kIlONcyFHh490lWZi0PaMJL5bHg4gTgbVm++Blq9vpSdqmuExKB6B3jr4K6HYk7vTxjp1sND0l+RhiL20M4I1J2+LxeCYRwusdyOjrKUkqjyC7lsrvgbMcifvIog51OQ65YUw6B6Bvnk6VgE/joFxOYVm+LF9K2qatkS9Jt8Bik53KM5K2w+PxTCKUfU3rhQvzJXH1klYX8mW5RuBSB6KaA+G68GzdIWmbJsqkcwCiCv3Asx2I+mV7la6k7RkPXWW6EUPZibBn0jZ4PJ5JxdNjrxSu6C4xJ2kDxsPgdLIi3OFA1AHtLRSTtmeiTCoHoDerbwZ7sp7Co5Fw0mQZnyuIViLOM4hwN3rY4/Fs1ygqwIy465vhY43oouqCMJR1VeUEwNzUR+FDk63setI4AIvn6q6iXI6D7oWBMmt+Sf6atE0TISMmB2DSd6zyeDyNobZ5r467foM6q7VvCPPLci8OXiwBUeGKhefoLknbNF4mjQMQVRhADGGpjSif6h6QLyRtz0QoZPUjArMNIv6dtA0ej2dS8WDchQKzizldkLQBEyFfli+h2JsUCU8Pmm05W41kUjgAxZwercK7HYj6U3PgrslOg2yfBbZyQIF/JG2Hx+OZRCh/Ny1XPlnM6hlJmzEhptABmNvAC7y/MEftVRQNIPUOQDhL21W5yIGoSqS8v7MkQ0nbNF56c/o2F7arcnvStng8nklEYH5miMKnClk9IWlTxku+KI9pxPuAqtV2MlzWN0+nJm3Ttki9A9DWzgXA/lY5opw/f0B+nrQ946XQqUdIxOdxMIhDlMTmG3g8nkmIcpMDKRng2kKHTpo+JD1L5UdAr1mQsl9UMeVtNYRUOwC15gqWs28AFH46OMPBh9oou+fooRrxFUdtjn/XvVT+krRNHo9n8pAvy59U+KMDUS0IK4tZPThpm8bL9EHOd1QaOK+3U1+ctD1bI7UOwKWztDkQLsPe8GdtFHBKGEolaZvGQ3GOPjsIuElgJycCxc2wJI/H89QiUGfPjmmq3DxZBuecuVyGKwHvBazt4ZslYvmKmWpuWlcvUusArJlKF2D2nhS6FvTLn5O2Zzz053RnDfg6sJsLeSr8cWga1yRtl8fjmXzsez9XAb93Ikx4umb4+qKzNHZ/gUayYIncqW7azf/fPXtyTtL2bAlzTX09KM7RZ2vAb4A2kyDllu4Bjp0MTSkunaXNq9v4BsIRjkRWAnhdV1l+nLRtHo9nclLM6qsVvouD1usACrevm84xkyEiq6gUO7gJ4WijqMdVeX7PgKSuGiuVEQAVylg3f1jTHHDGZNj8AVa3c6HDzR+F8/zm7/F4LHSX5YfAR1zJE3hD2yoGkrZrfLqKEvFB4DGjqB0kcFLJ5pzUOQDFDn0Lgr2dotDTWZL7k7ZnXDbntAOY5UygcFlPWSZdX2qPx5M+8mVZBFzuTKBwdqFDz03arnHZvkzuQ7E3NVLe0pfTtydtz6akygEIQ21RYYkDUT8emsbypO0ZD70d+iZVp52jbhiaxtlJ2+XxeLYf9rufDwHXOxMolCdL3/yhGVyM8COrnEhZHIbqorLLGalyANrXMA94jlHM+kyVM8JQoqTt2RYL5+qBIm5q/QEEvjM0nZMmw/max+OZPJy4UqpD03kPcJsjkZko4LrenD4/adu2RRhKFFQ5E9hgFLV/2yo6krZnNKlJAizM1r3JcCdg7Z700XxZPpG0Pdti4Tm6S6aZn+GgyREAyq/aIg6fs0weTdo2j8ezfdKb12mynu8ABzsS+ddm4eWdJUn9wLJCVj8J5uY+j0kzz+nuk1TMZ0lPBCDDYoybvyh3tlXTP5M5DDXINHMtrjZ/+Ju0cKzf/D0eTz3pKciaapWjAFel1c8ahhVprpXfSFuVTwB/MorZMRrmgqRt2UgqHIDeDn0NcKJRTIRwxpxlsj5pe7ZF22o+CrzJkbgHJeKYtHiUHo9n+2bBMnkoEo4B/uVEoPL6e/dkftJ2bYs5y2S9CGcBpsoygVNrXW4TJ3EHYMVMzYhwEdbjCOHiWslKqqn1xXZVVrMmUN7oW/16PJ5GMr8kdwscq+Ak6qhCuCirRyZt17boLsl3Ea40igkCYYmiiR/BJ+4A3LMnpwIvMop5uLqBMGlbtkVhtu6NcC1u7ntV4T1dA/LbpO3yeDxPPbrL8mvgZOzT8wAyAXyucK7umbRd2yJaRxfwH6OY1xZyzEzalkQdgDDUVoSPWeUI9Cy4SB5O0pZtceksbSbDdcDTXMgTyPWU5etJ2+XxeJ669JTlZmCeI3G708T1l87S5qTt2hrzL5FVAj1WOaIsDmdpe5K2JOoA1Eoi9jGK+eXgdHNIpu6sbqcIvMaJMOGK7rIsS9omj8fjyZeljPIpR+JeuaadTyZt07YYnM7VwM+MYvZpb6MzSTsScwAWnaUzEPOwBSXgnLTX/Bc69DhwVv/5Pd/ox+PxpInpQ8xB+bYLWQpdtWdmaglDiQQ6MSYEqpBfOFudRIXjkJgDkJnCAmBno5ir8/3yk6RsGA+9HfoMhKtx03Phz9F6jg9DsTak8Hg8HmecuVyGmwNOAFwkJAvCVf053Stpu7ZGd1l+iPIFo5gdMhn7cUJcEnEA+nO6l2IekfhYhXSXjoShBgKfBqZZZSk8qsI75l8iq5K2y+PxeDalsySPoLwVwcUzaucNyqfTkCm/VSK6gLUmGcrZhdm6dxLqJ+IADCsXYJz2pxCeVxY3dah1onU1WUcT/iKUE3tK8oekbfJ4PJ4tkR+QuwTeDZiPZQXeUOxgdtI2bdXeZXKfeX6N0EqQzMtswx2Avjn6AuC9RjF/WzedCxut+0TtFHXW8ekTPQPyjaRt8ng8nm3RXZJbwNGzTyj25vSFSdu0NVqgF/iH0c4P9p2r+zVa94Y7AFHAbMDU9lGU89J8Dh6G2hIFfBbBPPlJ4Fv73U/qZxt4PB7PRoamEyrc6kDUFIn4TBhqS9I2bYnOkgypmmcENEfNZhkTJokjgHcY1/+ia4AVCeg9btpXcT7wYgei7qtUOfnEleKi0YbH4/E0hDCUKNPE+xTuNwsTDqm1T08t+QGuBWydaJVTCx363Ebq3VAHoG+e7gbsahIS0SOIqfSinvR26GtU6HIgaljg5AXL5KGkbfJ4PJ6J0rVYHgyEdwEuxpP39M7RVyVt05YQRDUyl7VnhMY6Og11ADJVrB2evpFfKt9spM4TITxbd5CAqzEecQAo9EyG2QYej8ezJbpL8n2UBQ5EZSTg6r55ah0XXzd6lsqPUG6yyFDh5FqeXENoqAPw6DQeAuJO64tctF+sJ63NfBzFRSLHl/JlSknb4/F4PFa6B1gs8FUHog6Ihjk/aXu2hggfwdYcKKgKH2+Uvg11AMJQNgj8OM5aET5XGz6RSgo5fakIcxyIui9azxlpPubweDye8SKIVoY5HXjAgbCOYlZfkrRNW6K7LL8EvmwyUTi+t1Nd5JBtk6aG3JXRKJ9COHyCq4aq6myErnPCUJtYxXLEHPrXQPhAfhI3+7l0ljY/sgMvEOW5KLuIsoMKj8rI9Kw/dZe50zs3Hs/YFDr0uQgHKewhyk4iDEbCwyr8aefH+f2Zy2U4aR3jsOAiebjQoacifANbV9QmhSvDUF8ahuIit8A5KnxUlOOJ/4ItMtJgyFouv+0LNfLGACgqxRy3obx+Aou68wPS12hdx0tvVucJmPVTGOgpSzZpeybKpbO0eXU7bwPeBxwJ7LCVP38IuImAz+T7xUnvcI9nMlPM6Ws14gMIbwZ228qfPi7wTZRrpg1xw2R0Bgo5XYZyrlWOCJ3dJUntMWmxQ69V4d0GEdVIeM78ktxdTz0bXgYoiGYCTgZ+Pc4ly7sHWNxoPcdL37m6n2A/l1Lhjy2S7tbGm+mMSiGnH1jdzp+BlcBxbH3zh5FxyO8n4luFrP680KkuOiV6PJOOYk4PK3Toj1X5HsIH2PrmD7CDwttUuH71VO4q5PT9qW+VuwlD0+gCfm+Vo8onk2icM16qAR/DVv2QEXVypLxVEvvyhGfrDu0t9CqcydhHEQ+LsKCrxGVpDhkXsnoL8CajmGGBV9TOjyYFSzp1n0rENcBhRlGqcNW6QWaHy2Uwabs8nnoTztL2tqksRTkN6zNY+TYRp+SXyX1J2zVeill9iY7kglmb+9ycL8uxSduzJQo5vRzldIOIwUyGZ85bIv+tl46Je48XZHWPZjghgoNF2FGUByPhR+vW8pW0bwi9OX23KNc6EPXhfFlctQ2uO31ZfWU0ktXrcozlbypwTNrnO3g8Fgrn6p40cQvgsr3tfwg4Pu2TUZ90H7L6EbBnu6twUk9JUtkYrrdDnyHCn4EpBjEfzZelbp1gE3cAJiu9eZ0m67kL2N0kSPjRfvfxusnS7a+Y1Vcr3AzsWAfxf2sKOGJuv/wzaTs9HtfUombfAfavg/jHNOLonqXyo6TtHA9hqE1tq/ke8EqjqH/RwnPzRXksaZvGopjVC42Tbx9sFvbtLMlQPfRLZBrg9kCwng9j3fxhQ6bCByfL5l/I6kEKN1CfzR/ggErEtwrn6p5J2+rxuOSCDt29WuVW6rP5A+woATcunKsHJm3reAhDqaB8AGWdUdQebEhv7pRW6QUsc2t226CcWi/9vAMQg0U53V9xMqZy4bxl8sek7RkPF2R1D+AmYOc6X+pZNPGtYpc+PWmbPR4XLJytT2sSvqlCvTfnnTNVbp4sv538gNylAUUHouYuyumzkrZnTBtHcjO+YJEhMG/FTDV3lx0L7wDEIKP0YzvXAbhraDqFpG0ZD+Esbc+MNLfYt0GXfK4O842F5+guSdvu8VgoZXV6JsMtwPMbdMl9qfC18GzdVjVOKmivsBD4k1FMS6AsStqWLaFCH7bugPvfu6d5iN6YeAdgghQ69QiFtxnFqCpnhKFYw191Z8VMzbS1c53Ayxt86Rdlmrl90Vk6I+l74PHEoTev04ZHRuI2tHOdKoe2tbAiDLXxjd4myJxlsl6Es7BtkAAnFHNqrUiqCz0l+R3KN0xC3AyY2wzvAEyAFTM1Q0TZKkdgec+A/CBpe8bDvXuxjJH6/iQ4OGjhpkK31ivnwOOpC+EsbZf13KjwsoRUOKZtNZckfR/GQ3dJvotwpVWOKuV6hcqtRGJrFKfwskKnvsK1Xt4BmAD37M0HgReZhCj/rq5Pb9LKaHqz2q1wVqJKCK+QDdwQztL2pO+HxzMewlna3tbOTcBrE1bljEJO5yZ9P8aDtjAX+6yAg+/Zs34Jcxbml+VbCj+1yBA1VROMiXcAxkmhW3ck4mNmQcLs+ZOg139fTt8gsDBpPQAUDm9t56thqK1J6+LxbI0w1Ja2NlZib5DlBqVQzOnRSauxLXoKskZgnlmQsLA3r9OStmcLuvVblqty4gUdaq08exLeARgnup4eBFN2rcLt+bJcn7Qt22JRVveNlOvAPNzIGQJvaFvFl5fOVmvypcdTFy6dpc3tq7keIU3d6TKqXLsop/UqP3RGd1muQ7HOB9lN1pPKqMf+9/FF4G8GES3Ngamz4GZ4B2AcLJ6ru4qYy/6qCJ1J27It+nPaFsAXgV2T1mUzhKMHA66bDMlNnqcWK2ZqZnU71yi8NWldxmDnQPnSZDhG0ww5wNoXJdc3T7c1V6HhnLhSqg6iAB9y+fzzDsA4qFaZj7X5jXJpT0l+l7QtW1dRZTjiShxlLSvcL3AJ4KyLlQhvb1vNp8NQ/XfXkwpWzNTMvXtyNXCSQ7GDApco3O9I3ovb2lmewO2ZED398hsHCYE7RFUHxwl1oBmuYmQialz2mbrGnZPpH6LboNYA50NGMaszTQ7yB+pMIctchJMdiXs4yvCG7rKcHQjHOej4NZr3tK7mssk2Cc2z/aGo3LMnlxlHv24qdF0gvK27LGdHGd4APOJI8nuKOc0lcqMmQJDhw8AakxDl3P6c7pW0LZtSa+l7uUVGpHzQlT7eAdgGTcqHAVPoTISP13OikwsKOf0/Z0l/yjpVjl+wRO4E6CrJ7RLwNmC9K30FTivmvBPgSQ5FpdjBhbVRvq4Y1oATu0pyO8CCJXKnCMe7cqBVKfZl1dp/v650LZYHUazD0dqGoTtpW8ZClU9hO+Z4U2+HPsOFLt4B2Aq9HfoMxJx08dfWChcnbctW7RzJmv080OxAXITwvk37HHSX5FbgZGDYmeLK6YUspUbeK49nI31ZehHOdiiyKsr7ekpy4+h/7C7J9wVOASIH12iK4LNLZ+tODb1ZE2RoBgPAn01ClDOXdOo+SduyKT0D8g+BrxlEBAFuyh2dOgDFnB5dyOrVhaz+rpDVf9b+76W9Hfoal9dpFBLwUYwtf1XonLNMnL351sXO9VyCsp8jcXO3VOmQL8tXgHcDFWe6Q0ehQxfX/y55PP+jt0MvULdvmFUVTukekDH7xncPyEqFvKNr7T+U4bL636X4hKFswG7vlGrEeUnbMhaqXGRaL5zhoumRk/BpbczlNWy99vXrmQynpj0UvpFFOX1WoPwJiJ9xqXw7PyBHJm3L1ih06OmI7Uzqf+Yy0FOW7Lb+rpjVUxWuwKEDKspHugfkk/W7Ux7PCK5m2Y8iEji9uyyf3ua1c7oM5VwnVxVOzZfkM/W5S24oZPU72HoqDEfCgfNLcnfStoxGUSlm+RPw3LgyRHhTLbIaG/MDeFFW961E/Ihtf0hvrlb54eK5mr7ysjEQ5Twsmz+gI/kDqWVRTp+FuAmhK9y+//3jq7/tLsunBT6Ivf/3/64vfKI3pz11ulUeDwCFrGZxu/krwuzxbP4A+91HFuUWR1e+qNChsTegRiDCR4wimgNYkLQdm9mFKPApiwxVe08AkwOwYqZmgpFRh3uPc8lzqhWusSpdb/pzupdgzOpVbupZKj9K2pYtsXS2TgmUlVjLGwGEe1qEk05cKeNObOkuy5Xgti+CKAsLHerm7cjj2YRiVmeD85yTznxJxp0jdOJKqWaaeB9wr4NrT0X47KWz1EXuT13oLsn3dWSgUnyU9xbO1T2TtmVTqsNcgyUxWjmulNXpFh1MDsDde/NO4P8mtEg4utChb7Rct95UlCzQYhChkfLRpO3YGkMZPgIc7EKUKCd0lmTCpUr5spTFbXMkQVhayKm1bNPjeRKFnH5AsQ8CG40I5+XLMmGZ85bIfzXgeGDQgRovXd2evjfk0YhwHrZo4RSamZO0HZuy4CJ5GPhKbAFC6zCcYNHB5AAEGnNQjPA+y3XrSW9ep0UwyyJDla/MXyp3JG3LFm3s1BfjKIFJhdO6y/LLuOu7S1ICzndonqBcXOhQpy0zPU9dCll9H8rluE2aPr+7JLHLbnv65TcqzurBP7yoUw9xaJtT8iX5BXCjRYYqZ6VyRoByhVHCeyyLY3+hL8jqHhpz2pVoYiMyt63bOj4kYCmRicg43dCcEobaFIx86exhP6GvpySft4rJlyUEFjk0UxAuLWb1XQ5lep6CFDv0ncCVONz8VSnVvvMmekryObC1lq3RFERcmeajABU+jKEMUmAnWWd7sasH3QPcjmE+gMJhi7K6b9z1sb/UTcpMYg6L0QCnE41cEYbagphDRV/o6ZffJG3LlmhfRY8qhzoQ9bPpa92V2OTLsgDjzOxNyCh8ptChxzmU6XkK0ZvTt6lwHcZk4NEoLOsZEGfHXkPTySO4yDU6eNXUdA7RAai1UTcNUlOhIwzVcrTrHEFUlKstIsTQvTW+VxsY+l4rjxoMrhtta3gPYEkWqaLpfftfOFcPVJxs2qsjOOnM5eKuqQ/QXSJfmx3gimaElb1ZfbNLPT3bP8WcHiWRs+ZYAChcmS/T4VLPMJRKk3AygnnEuCjh4tn6PJf6uaSa4WMYOugJ7NW+2mHLZkdE8Gks0Q3lvXHXxnIAlnTqPiiWdpI/N6ytC4oKavSAlZX5AbkraVvGYsVMzWQqXIXQapUlyqz5ZbnXtY6C6OB0zgVc1ia3CKxclNVU92PwpIdFWT1Sla+4+K1sROHqddP5YK38yylz++WfipOOhFOqTVyW1kFbtdbiX7bIiISutLUPr3UG/J5BxPP7OvRFcRbG+qCHI07C0kTIVR2rQwpZjgWebxISsCRpO7bE3XsxC+EVZkHCZd0DsrJeeoahRPvdz+mifM6h2LYAvpLmRCdPOlg0Rw8N4KtAmyuZKnxx3XROD0Nx0cp3THpK8nkdeZM0KsurWle5nTnvFOMxoSjPqz3rU4Uqn7WsrwbMjLMulgMQ2CbGDTcHNi+uHogaPWjhm7Vs1dSx8BzdReATDkT9aWgt2Xrre+JKqU4b4lQsJTKbs2MQ8dX+nO5cb/09k5PFc3VXCfgqsINDsV+ZsZZ3haE4a3+9JdZtYDbW/vmACAvT+jvJl+RnAt8x2pe6MuG2iJUYxqaLcmKcdRN2AIqz9QBV07z4W+PUjNeT2tCfN1lkaOQ0gc0pmSY+CexiFDMcBbwnXC4uao+3yZnLZXhoOieh3ORQ7D4VGGiE/p7JR7XKUgGXI2RvHpruPldmS4QXy+MI78E+a2PXijrtdugW67NWOXbxXH1m0maMZs4yeRQxDQh6Tm9OXzjRRRN2ADTDydhmCHzBsLYuiDCLmBUNNX6XHzB2q6oTizr1ENzUC/fO75dfNVL3MJQNQzN4O3CzK5mqvLuY1YMbaYcn/dTOUOMnNm+K8M1m4Z21oTYNoxaFNL+MKHworb+T7qVyE/Brg4igWk3fMYfCtZb1ohM/BohzBGDJ/l+nU7jBYqRrwlCbwDbPW5ViPZJ7rCgqQcQANucGUe4cmk7spiUWwlA2DA1ygjXsN4pA3TYe8mwHRCN9KNwkvwk/GlrP8Z0liR3StdBW5XzgD0YxGYUL05YwtxFVc0vmM9LW92DGWm4CLNHxCR8DTOgLv3CuHghMOMzwBMItPQVZYzDQOe2reBu20r9/zhhKX1QDoC/L+4nZrGkUUaScHoayLik7wuUyKE28Bfi+I5HHWZpneLYvFs/VZyJuEsMUfkozR4cXy+NJ2TNnmawPRgbFxC6Zq/HqYjZ9ZXMAM4a4DvinQcQeq9t5a9J2jKZ2VGTpePjc3pxOKJF9Qg5ApmK7YSrp2ygja0KIMNCoM76JEM7SdsXBW7tSSsNQo67FsrYFjgNitx0eTeDoge+Z/FQrvM2JIOVXU+DofFEeS9qmrgH5KbDMgaje/pw6q4hwxZnLZVhhqUWGwplJ27EporZmRzCxPXpCDoDYHpqD69abkhycU5ytBwjErw9X1lU3OCi9qQOtU5kD7GEU89ehofQMNcqVZXV1mKOA35mFReny/j3JoeLku/D7TBNH5cqyOml7NjI0yHkY2szW2HuDck7StoxFNMxVKLEjkwJvXJTTZyVtx2gGZ3CrpamT1MsBWDpbd1J4tcG2G5MMi42FNnHmRO7BZuuFFbWJTqmilNXponRZ5UhER6Oy/sfLgovk4WqV16vwR5txxGqc4dn+EMzfhb9U4Kh5S+S/SdsymnC5DIrYGwSJsGDRWTojaXs2ZcFF8rAEpjdmyUTpSgYMQ9mAGl6UlVdc0KHjbrU/7s1vXcCbMLTFDFIW/g9DbUF5v0lIxKVJ2zEWG4QewFTHK/DVWrZt6liwTB6qRhwJWLouPj1tfcE9jWfpbJ0CPM0g4u+ZDG88ryz/StqWseguya3G8jJQZkir07HdzoiMz2AVTkvbc0AFS6O1oFk4Zrx/PO4hF5FwrCEddChDurr/ta7heGA3g4jfpeFsfFMuyOoeKLNNQpR11SCdP/iNnDcg/+k7V4+JmvgTMCWGiGDKavYE7k3alnpxQVb3aIF9I+VpBOyiyi6BsosGCBE7IrXfv1Ih4DGJ0Eh4WISHFf4rwkOS4d7uPvl30rbUi/XKnsQta1bWBVWOmFeWvydtx9aIIBfAG4n3OwFAlOwFHXrheQPyn6TtGU3PgPygkNXfAy+IKWK39lW8Ffhi0rZspAVuH4a1wNQ463XkGODT4/nbcTkAYaiBrB6/VzGGRt/uLCdTErMlAuXdlro9JZ1v/83wEYV2iwwNKM4vyd1J27It1kY81AbriPlgmyKkLnkzDoty+qxAOZiRUPYLgeei7Ae0RjCyvWnt/9T+/ydtebV/U6n9s/7v/2oEhawOAfeqcicBvwsifkvEr7uXifV8OXGCFipR3Aa9wrq1EQ8lbcO2mF+SvxayuhjbILAdmgI+DMaXizogsNySEKjCu0mRA9BZkqFiVm9XYienHrV0tk6Zs0zWb+sPx+UATFnFoYhhhG/A1+tzq+JRyur0DXC0QcTgFGPThnrQd67uF8EZRjF/b4HepG3ZFitmauaeKVyHMi2ujEfX2ieoNZow1GDKIxwiAUcE8BqFV6FjhLDdVm+3AQeJcBDK21WADBSy+iDwI4QfiPLtrjK/SmM/jK3x2DpWtcUPAE9va+HaMNS317PPvwuCJhZFFU4B9oktRJm1eK4unrckXRGPaApXy3oWEfONGeXY3rxOS1mJ+g3EdwB2GGrmVcC3t/WH48oBCATTONXIbTtXM8PwDgzhMIRr05TtuxFtogv7+NJ5STUwmQj37MVilLcYRAymLcFxS/TN06m9OT2xN6ufaVvNA0HALwT6am8IlvNrK7sBx6MsVrij2MEDvVm9qtihM8NZaopCNYrwYnnckkkOHNe2Or1twDfStVjWqtBtFNNSjZiXtC2b0lOQNSgrYgsQWlnnqBTUEdLE1zCMCEbH19p+vEmAFgfgD/UYHWtBMQ0zIqqmL/x/QYfurnCqUcwvusvpCYVtiWJWzwDjUCLlp0nbsTWWztYpxQ59ZyGnK6IKD4ryBYFTwBCJqzfC0wVOVWFFWzsPFrL6+b6cvj1tSVZj6P0zo4TO3qyelbQZ2yJf4gtY+2hEnFHs0qcnbcumBMYjWbENuHNO12J5EDV8LyOOGs+fbdMBqJUUxB/+I+l6+++bp7sBRxhE/HL+UrkjaTs2pSkgh3GEaSDMT3sIty+nb1C4xCxIth0eS4KFnfqcQk57hzL8U4XrGenvPSnepjdhKnBSpHypbQ3/LmT10jjDShrEt6wCBAYKnWp5rtQdQVTElAcAQmu0IX15ALXGR78xiHjD4rm6a9J2jEYCQ1dA4eDxlANu0wFoEo4az99tibSF/6MqJzCB6odNsQ5sqAelrE5XxfYGInyzqyS3J23L1ljSqftEyucwfH6j7P1G0vZsRFEp5vTo3qzelom4CyVPsqF91wbOAGaJ8ptCVm8t5vSoNPWYD9RJhVIzEdf159TlNEHndJfkFgfjdM9eOlt3StqWzVDTs7m5GnFC0iZsYo/leymZkcqPrbLtjV04zKDEmp0H+WEdbk18lHcZVkctKetnALABzhGw/CAV4cNJ27E1Lp2lzZWI63CxMSo/yZfEGvY1s2KmZno79L3FLL9V5WaBNyStU50R4I2qfKOY5de9OX13GKqbATwGugbkpwguSnp3H464Pu1HHirkGakFicv0ocD4wlEPu0Ymzca3S9N1DDA4nV8DD8ZdHwTbzgPY9o9PTQ7AN9LUJ39Jp+4DvMog4vudJbk/aTtGE4bainKuUcwX8/3yk6Rt2Rqrp9KPrRPlEwhckKQtikpvTt96z17cIcI1xK9hnsy8SJRr21bz+94OPSVpR0Ch6ESQ8IrWVemuosmX5GeCcSqrkEvbjICeAfkHmBy51xZm695J27GRMJRIlNhRWVVev62/2eqP7oKs7gHE7pWsmq7yv0qVk7dl81YRPp+0DZvSuor3IViScjSI0j0et5DVExw4OTVr+XbXQHLfy94OfV0xyy9EuQF4cVJ6pIiDRPhM22p+WsyqEwcvDvkSNziKAiBCrpDV45OyZVw6Kh/FFgXYvWKLptYHNT2jA81MfKRuPYkwHVXusa1ZB1vdDJvhcIvyVeG2+t2aiaPCOw3LK9VK+jLkxTjNUOCGrqXy+6Tt2BKFc3VP4FNOhAmrFE5NItFx8Vx9ZiGnK0T4Lpak2u2Xlyp8v9Ch19UidQ1FEK0GnA64mldyWe0FKpV0DchvwZif5WDOgGsqsBLDGGQhXXkAQQu3YnDUMrr1PXxbb8OW8P9daeqPvXC2Pk3gZQYRty1YJqnq+tU7R1+FcTPRIL3hSkVFm/gMsIsDcZHC+2thwoYRhhoUczqrWuX3tYx+z5YRhJMrEXcWOjS/YqZmGnnxBUvkTuD92N6MN7JrE1yRpmTHTRFYZFmvyqGFTn1F0naMptaq2FLV8X9pqgaoteGOP/10Gzl8W3cALOf/wvfqe2smRhBwzDbt3dqtsIWW6mOTGMd0Kt9O89l/X46sq8Q4Fc7rKUn8spoY9Ob0+a2r+ZEqlwI7NPLak5x2hN579uL7hawe1MgL58vyJXGXEHtMsSOdo3QBusvyQ+D7JiFR+qIAgulZnalWx9dEp4EGfSfuUo0bAVg4W5+mwnNjK618twG3ZtyIcKzBlnW08tWkbRhN3zzdzXikgaT47b/Qoc/ViIVOhClX9ZSkYbbWyvpmifIzgZc36rrbIa9E+WUxpx2NfJPuLslC4DNOhAnFtM2cH40aowAoMxfO1lSVrDbDl4Bt9sHfCvHn3tQD2166d3G2HrCl/3GLDkAmw2EYOoo3BemJAIShNiHj64w0Fgo3p6xPNFGF07G0M4Zfdpfk1qTtGAtFBWE5QqtVlsB3hmbY8iQmQt883a3YwU21t/7J2MAnXQitqpSLOW5oZGh2aDqzwMkzrC2jXJrWo4B8mVuAX8cWILRmAk5L2o7R1Nq0W5Lnjm708dPWqA7zXSzHUhleu6X/acshcVv9/91z++Wfjbg546F9Da+sNSOJhQTpevuvlUydaZGhwpKk7dgShQ7OAF7nQNQ/K1VODEPZ0BC9O/UVUYU7ENOgKdesBn4GXI9whcKAKgtRehTOVjgbpUeVhQhLEa4Arq+tWZ208k+gvKVa5Y5FHWrJ4xk3YSgbgiZmKpjLfhWOLObMbbrrQi0htt8o5ENJl3FuhprKHHf5+178X9ImbGTBRfIw8AeDiC3maWy5o5rl/D9l4X9VU0gnqkROOoU5o+0RjiDgmQYRD7WnsKIBoNilT9cKBQdpWMMC72pU4mZvh55JxAC2qIyFiJE3ue+p8kfgrkwzd3YtltiNRGCkFXhzwIFRxHNEeB7KYQgvxlJOG59nBPC9Qoeemx+QK+p9sa7F8mChU08g4ruArbmPsviCDr2plqSWKtqqrBjKsJiR4U5x2LftUQ5jHNPnGkVFuKlp88HX46Y6cmT846TteALhO2i8fiEKr9zS/zamA7B0tu40BM+PrWvKEgDBcP4Pv0zbj1YD3muJJ6py2XhmRSfCBpYg8aM1GxGYW0tyqisrZmrmnr3pR5nTmBv0JP6g8K2M8O0MfLezJI+4vkDtu/8f+J9T35/TnYeVwxGOUDhSlOc1zOKRY6HLCx160NAMuus9hjffLz8p5rRblbJR1M7NAYuB9zXqVo2XOctkfSGnV9VaUMejyvtIkQNwXln+VejQXyMcEme9KMcCH0najicYeamO2wvl+YVu3TFflMc2/R/G9OLXNXEIBg9fKumJANTqyF9kEJGqZkbhLG0XTMl/VYyTs+pFMauvVnHSXORL3WVZVm99++bp1Hv34osN3vzvQyhUA56bL8sLesoyp6skX67H5r8lOkvySL4sX8qXZHZPSZ6PciBwPnB3w+6CMLd1Fdc3Yuxwd0kGgK9Y5ajynrSVzW0kUj6FoX5ehXemrTOgcRDdIbW9Ix1UTE2qMtGGsUvgx9zkI+VQw8Xu67pQ7mnkvdka0sxbMCQzBsrNSdswmtapHA/saBBxY6Nr4cdD7QyxhOGzqvFAdZhZ9dZ30Vk6IxrmdqUhc8QfQ7lKhMO7yzwjX5KeBf3y5wZcd1zkB+SufFnCoek8O4IjFD6Nu4Y6W0SEt7e1c2tvXqfV+1qZDB8ErH1NRJQLU3deDswvy71iaAwksFMl4rik7dhEJ8uzW6QpPbk8+QvlASD2czvYwjHAmF/EIGbYpIatrtQxEfGz/4GH1s7g50nbMBqJjCFE5eKkbRiL9tWcqrZGTQAqER+sJc3Ujf6c7pyZwjcQ6vo2p/AoQqFZ2Dc/IKd1l+S7aR7XHIYSzS/Ld3rK8oG2Knuh9AD1jky8Wtbx7XqXos1bIv8V4VSMTYJUObR1Fe+u8z2Jh9ieDSrpOt7Y935+AsR+Figp6wcAsXu2bKkceWxPNOKlcS+k8IuG35atGR6ZBsjcUu8zxolQ7NKnI6bGOPd2D8QfLlEv+ubpVIVPmgUJF3UvlbqOn76gQ3ffAN934KxsGeXfKN3Swt75kvQ0MrzvijnL5NH8gBRoYd+aI2BKRtwqwiGZDN/um6dxk9jGRXdJbhUHbalFWJS6cDkwOI1bgb8bRLyp3p/BRDhxpVSB+KXO6qQSySWxkxKjLXSM3cwBCM/WHVR4TtwLBcIdydybzVnYqc+xDMpR2xmSeyqcxNYqN7bNtWl8g4yGORew9k3/x9B65tdTz4Xn6C5Nwm11THpbq5BvDtg/PyB9YyXtTDbyRXksPyCFZmFfFeYDa+t0qedHFW7tz+nO9bSntUoPcJ9RzN7DpK+DXhhKpMq1BhFN0XC6humoGp7hwtMX5XT/pG3YSKDxHQCBvS7o0N03k7npP7RPMSUAatRiaCrhmKaI1xiWV6MNKRtmpLzDsr6a4bNJ27ApS2frTghdZkHK7PBiqdu589LZulNTMzcDL6zLBYSvZTI8v6csxc6SDNXLjqToLMlQT0l6m0e6i15Tp8u8eFi5udCtlhyZrTJnmTwqka0HBwBKTz31jIuI7RkhwtuTtmE0TU3cgmU4kG0PccqUiF9j6HCYgYM3/bexNnrLcJm/pqljngqvir0WflHvs+SJsPAc3QXi2wP8rDbsJFUMZejEPuznC/kBsc033wqXztLmwQxfrFPY/26JeHO+JG+dt0Qs4ddJQWdJ7s+X5RQi3gDcVYdL/J9s4IYwVFvd/laoHTNdbxSzKxsSKR3dKvmy/EkMUVyF19WeValg3hL5L/CruOtFTEfITqmVbsduCCSy+d6+mQOgtgqAVJ3/o1tugbgtRPlB0uqPpqmZt2II/wvpe/uvhWuzRjGPVyBXLx0VlVXtXO5qKNEmwi9uFl5Q77yFNJJfKt9sFg6ROpSkKhzeuppL6ql/s5DFepwhzC1ldXo99YyDRlxtWN6UaTb1XakHsZ/lKumJANT4ZeyVYyT3b+4ASHwHQC3KOaaWFfzsuOuDgLo3kZkgxxvWVoaVFUkbsJlSEecCphIuFS6o59jpvg4+InCKS5kKj4pyYn5Aztkew/3jpbMkQ91l+ZAK71J41KVsgdOKOV1QR93vFzUO01JmbICz6qVjXIJmPg8MxzZLGlIaOxFiP8tFOShNEQ0kfjQD3YYDEM7SdtH4EwAlSE8CYGZkAELcmnIlkx4HIJyl7QpvNIi4LW3dDPtz2qbWccbCPeummTu0bZHenL5VhY85FvtLFQ7tHpCV9dJ7stFTks8rvFjhpy7lqvKJ3qy+uV56NwUswZY1DzB76WxNqn30mNTaR38r7npR3hSGah7k5YqKmkrTJdOUnmOAQA0OAOzfN0+nPkne6P+Y0sbzgbhTkLQlMinnGsuH9mdrD3WXtE7ljRgmy4nYu5i5ZhjeT/ze4yMo3WEo6+qhX3GOPluUa3DY817hyrYqr5pfkr/WQ+fJzPyy3LtuOofXmgi5IhDhmq2NQ7XQWZIhsbTPHWGPdZl01c8DYHtm7NC+qg5HZjGpvfzE/s2lKQ9g7SC/IX5SY1DZwIFP+ocnGUr8t3/gb7UxjGkh9tmNGkJG9UDgrYbl0bByY9I2jGbFTM2gdBrF/KK7XJ+BRv05bdOAL2E8ntiEC/JlzkjtDIYUEIayLl/mNHNofTTKDM1wfb3esrsGWIFlnO6IjnNT1x1wmBswND1SMT2znKPbSR5AuFwGgdhdQEWePOPnyV+6wOAAWM4mHFNrsnFwbFPU1HfZPcrrDat/Ws8z8jjcsydvxpCfMXJL+Gi9ehoMQxHiTd4aS1WFrnxZPpzGHgxpQxDtHpD5AnMYmXDogoOHMiysl74qfNQiQ4UD2x9JT9tZGGk9qyMjoeNieWY5J7C81CmHpulIA+H3se/D1hwA0SeHBybEyAjSVLA+4gUYxndWM+lpZ1wLX+4bd706GGLiHOFDRgk/7ClLXWY09Hbom1BjbsL/2CDwnp6yLK6Hrtsz3WVZVmstGzsZbRNyxTlal+z0npLciMZv0wqggYPeAo4R+Kph+QGLsrpv0jZspJIxVXVNaV/dwImX28Kw1ypbiwAYjgCkPjW9sQhs0/8emt/PX5K24QmabJ50lKFu9fFxqD0UTD22AyGsi25n6QwRrsI+kAhGzulO6i7LdfXQ9alAT0k+FwgnYWjkMgrRgMvqVXYnAecbRbx5SafuUw/d4pKpmhwAMnBk0jZsZP4S7sLWjtqypzhFxfSyPbYDUDuDepZBcGocABVTt7YfpilUq2r6Ef05bc1/AjgDy6hp4Y6uktRlnkHQwhLsLYkBVOBD+bJ8pR56PpXoKsmXVTkN4xCeGntugEJ99OQbwG8MIjKViA/WQ7e4zFsmf8SQPGc8unSKICqGXvparw6g8YjdDAh45ugR2k88iKf+l2cCcQdU6OCG+IkJrgngxXHXiq3MwimKChYvWtM1+CcMtQnldIuMCOoSTi906hGMTHszo8KC7rJcXg89n4r0DMjVorZz9lF8sDBHnW9Mgqiq+bt5+oqZGrcKqz4YniEKR9aeYalADcmamqIIwIy1/BnYEHO5tE7liaqYJxyAapPh/B/ur2cf9oli8dZU+G3S+m+k0MmLgNhjToMgXQ5A62reaBnOVKv7t7Zg3Yww1BYiLsVB6F9hoKck7rLYPQB0D8gnES50IEoIWHbpLG12reO6GXweW1+APe/dOz1vzQBi6AeA8PQlszkoaRtGEfvZLilyAM5cLsMq8SMzmVGR/iccAEsJoEJqwsyF2bo3ht7yQcUUxnNKoBxuWF7NwHeTtuFJ9ohtDroqF4ahVFzr1baG2RirEgAQvrZuurm80bMFhqbRAbhI/jxozVT30/jCUCoKF1tkqNp+I64Jmvg2hmqMSoYjkrZhI5Ht5W63YpfGf3lxTKDx89SiaAwHAEMHwCBN5/+Z+OF/4LF5F3Jv0jY8YYvycsPyX6Vpjnw4S9tVTe2M10dV91Pk+ubpbigfcSDqvkzAB8JQXJWueTYhDCVqFt6LvfseCh9bPFd3da1jU4YrUSzNqd5RK2NOBbVhOpY3Z8szzCnrp3E3ED9SXUlPFEDV1Nho8yMAEdMRQGocAGOo5rdpSgDE8uMRvpm08qNpncrxwA4GESsWLJOHXOsVVfkI9oY/wxpxUu1h6akjnSV5RJX3ArZIkDKjWuU81/rNWyL/FfiSQcSOlYi3uNbLhJqeJf+XtPobCUOJ0Pg19JGmyAEQ/mZYu3kEQGH/2AI1PUcAWLI1NT3h/9oAiv3irjed3dWBQDnRsr4eU+N6O/QZqIPMa+W8nqWSruZR2zE9A/IDcJAUqHyodmTolMj4XVWx/VZco7aXiecsOktnJG3DExiOAdKUB5ARQ6m6/u+4M4AnSgBjn29kmtJTAYDlQwr4XdLKb6Qpw8uJn5QWtVZsjUlc0p/TNrWN0/1rV9l9d0YJ+DBgaxGr3NI9UJ/KBM+WGZpOAbjNJERolQzOJwb2DMj3wNRL5OhUdZ6bwo+InwcgmVZelrQJG1HDcQYpcgAqhiMAYK8w1CaoOQDNq9md+J3zhh/fkX8mfUPA3ssgSFEEQANT6OxPc5aJ0/GqFioRrwemGkR81vXRzOK5+kzUXPY3FFQ5O2XHRk8JwlAiqXKW8bwdhdPrEQVQ4QuG5Tu0ruIw1zrFpacga7A4NFF6jgFQ00ves9NS1njA/fyT+KWAmdZV7Ak1ByBQLD+AB9KS+NT2MHsS/41Op1RNDRbcogavWU09vN2bYhwMUg1w3k2vUqEDsJaCXdB1odzjWjfP+OheJn9DzI19WmhijmvdooBrLeuD9A3TiT+qWdLjAEwZOQKI67C3L+wwTjB1xIkrpQrcZxDxDNjoAAh7xRYj3J/0zdiIBvF75gP/TNNbM8Khse+D8POk1X9ClxGP2ZLU9LMF/eL0iGnpbN1JhNOMYv7SVvWh/6Rpq7IIw3Q0AFXO7M2ry8mP1Dpw/jK2TnCcS30cEPulQuGlSSu/kdrE2tjD0Zoy8fOyXCPwj9iLg1EOgED8HtSajvA/gIjpw0nNm1ytPGn3uOs1Sk8EoJDjeTASboplC+5H/g418UGMmf+BcLYf7Zs8c5bJehE6LDIEdgo2mB3CzeUqXzYs36fQoZbx7E5RW1Rxj/6c7py0DU8g8Uu9JUqPA6DE33slGtnzAwC1RADUFIZwimj8D0dT5ABE0ZMHNkzQkHXrd05PMmNgm2WAwI0u9VFUUGYZxXylXvMIPBOnuyS3AF+3yFAX1SCbIBgHcQXpaaKzfga/seRbVDRFHQE1/rNeDZNZ60DsCIDIKAcAQw6ABCk6AjB8OEKKGgAR/8ciwu/CUOImh9TDlsMNy/+aL8ufXOrTm+Uw4DkmIcIFLnXy2AmUTxhFHNTboa9xqVPXgPwWy3NF0+MAhKFssMyhjzRF43Th7tgrbVFmp6gt+r43/K8PQPwkwCg9EQAs3pkhLOQaNfxYFNOoSKfUqjION4j4mmudatMI46Pcki/JL1zr5bHRNSA/VWyzL0SM340xhZq+w4enJescbM8WkfQ4AJaXPTVEmetgSOwIgDKSzLjRAYh9BCCSIgfA4J1plJ4jAMuPJU0OQOujvBCIffYnkbHOexNqYzCPt8iQgIUudfK4QzFHZty34bV9h3dL1TAdIXY0TkmPA6BB/Ge9pOgIIDAkM1LLMQtqHmZsByAI0uEA1BobxI5kNGfS4wBgyQGwzYp2S9VU/lNpVX7gUp32Nt6KrR/B97pL8n2XOnncMb8s3wHTd2bHYeUYlzppK98FqnHXR5n0lNBJZIgAGI41XRPZXvaemZaRzVrhQcPyEQdg2Wx2BOJ6vdEOj/PvpG8EwJTV7A00xVw+vM8/eSBpGwBKWZ1uGZmrBi/dNSKG8h/lF67LMqOAmSYByhKX+njqgvUzOsmlMrUmOr+Ku14t/UAcEwWm6OLehW7dMWkbANZP5z7iz5Jo/uc+8auaXDK0Kw8Sv0Pj1L55OjXY0IKlT/NDZy6X4aRvBIDoSF1jTP5Ra6yQOMO2ENPg+mnpyWXAUv8rfNulImGorWJ7u3tw+pCTUbSeOjJ9kK8DlqFMx4ahxu2KOjaG77JIehyAA+7jHmAorinBOp6ZtA0wMrYZiZ9AN1xNkR0Qf+LrOnYLoqrJAUjNuFkR4o/2TFcCoMWRuTMtXRlrvcwtg5mczjJoX8PrgHaDiM+lxdn1bJkzl8swwucNInaYshqn1QAB/DjuWoUXLZ2ttnkVjqi9JMVuuqSYnm1OEUMpoGmvcYxK/GOAqIXdg6ohSQthVdI34IkboTwt/uJ0hP9rxP6RqKQnj2HKIzwfQ6vdiuNuhmo82xW4xqU+nrpi+qwyuM0DiCqm7/KUdZn0nJ9j6JcSBel4cwZQQwKdkB4HQCL+E3tthZ2DAKbHvrqmxwEIAnYxLH84af3/Z0h8B0CUvyet/hO6iOmhdd95ZbFkuG6GCkcZlv+huyyx27p6Gku+JD8Tw4hyhTc51WeZ3IctYzs9DoCh9MzSb6YOdsR+5qua9prU2BFlmB6g8Y8AJF0RgNgfimiKHABLU6Y0lWRamhnBHS4VWTxXdxVbJzLTYBdP41Hhc4blz3fdulYgdu8IS2Mw11iaz4ikJwIgkeGZb3vZdM3q2CuVGYFKfAdALRd3jBrCMhqYkobcYvmRRAbv3D2xH1qRuB3LXK3wKiB2Q5Uo4laX+ngaQGCqvw82KK90qU5kGUMrHOhSFxOWCIBl5oxjIsObM1F6jgAsx/AC0wPZTo4ARON/KCZv0DUa/0eiQXoGMwUGByAwhG/HQoRXG5avPuBf/NqlPp76M7QTv1CIXUYqmL4zYxG/PDdFffTF5gCkJgIQaPyXvjQlAaKsiW0HxiOAVEUAJH5YRjMpigAQf950JUpHDoCiooaujMZ647GwjCP9TlpKRD3jJwylIsL3DCKcjrBVNfXn2N+lLiY2mHIAYk84dY0EhhwAw17jGsserMKMAMMRQJpyACyZmUE1HRGAvnk6FYhb8lNZMGDqDOWMhR3sZrCj2qK2+e6borZyRKf9CDyNQ22f3Ytc6tLUwp2AxlzevvAcTcWmM7Qr/yZuZ0Oh1Xmr5ZhULEcAhmizcyx7sDLNFAFI0xEAxPfKMgZv0CVBZCjJhFWCxH3AOKUpMJ31PdBZkrjNRjajcK7uCfFLRAPlWy7vjaeBBHzTsHr3vnkaOxq3KV2LZS1qKNmako4a+lqfkdhh5+FhU98ZZ7TYmkWlwhmr8VjslUp7gLBDbAFB/C+CS2pzAKbFXf/otHQ4AMOWngwpasoUWJJ9DB26xiRjmqswtHbn9AxX8kyMdTvxO9MM+wovcKqQ4fw8qKYngQ7DsyYITM84Zzz2uOmZPyMt8wCkyqBheVsAxG57Gdgu7oydH6ad+Fneg2EosR8SLtFo+4jGqKXeVx2XMgYcYFj957R0VvRMnDCUCOGvcddnHJ+9q8G5Vdk+HICqpMMBCJfLoME5DP74tNjzc5wSBPH3YBXaTQ5AJcOGpG8AwOPxz5uBdDgxABlbg4nURADUEHIXnJcy7mtYe5djXTwNRiX+Z6iuR78aynTF8JuqA/FLz1LiAAAQxJ5rwE5T4u+bLtH4sxmQWgQgdrtW0XQ4AK1Npg8jFTYAqKUkM0UJmZbE0oj456Rjot4BeEoTxf8MReNXsowt0DA51fCbqgPxXzbSZIdh/6rY9hx3Jmh8BwDrEUAkpGI4SnXY8GEI65PWf5Qu8cdlpsgBEEMyY+A+krFX3IXquBrBkwjxIwDitnWt5bsttvwgtxiOGwV2Slr9UcQ++g0iU9TZHRFr4y5VRo4A4kcAonS8PUcZgwOQkihGTRfLlyr2F8G9GfEfVurYAbA0iMrAX1zq4mk8kjFMr3Pd8MWwcaqlWssxIoZz5ygdb841Yj/7N9ie1c7ItMR3YgRaTBGAKSmJAAS2HIDUOABicMaUdHwWNUNiV2REjptLqcQ/O9UoVQ2iPDGIovhhd4vzOBZVW5RuuktdLCiGqKlsHw5AcyUddgwPxuzJMELGFAFYV0nH5hkFpg8jNUcAavhxpCUfY8QQWmOvdVhaGoYaYHhwDgc87vS+eBpO0GIq99pZ0dgzJDYjMn23U5F1DrZnjeUZVwdiP/vVtuc4Y2pTfAdAocnkALRl0vHWqVVTDkB6Nk7LjyNNDoDBjuZhdw7ZTmuYAsSu121p9g7AZCdflMeI/6bXdH7oLtQrtqqp2M9p16gh8iuaHjssz0yxRZ2d8ch6KgYbMqYjgDWD6dh0pMnwYUQpigAYzsckSMdnUSMViaViO6erzlucnhJRT3zUkOy188Pu3vSMOVOpeOMcMcRgh6bKjvgRgJREMnaeYjoCsEUA9kjJufP2EgEIDF+qKE0RAEtzqWZ3dhhLdR5PS2tljw2xJHu1uHvQB1XDdzslGw5sP0cAplyGtEQAdrHnADTFXT1refzwg1Mkvg2QEhtGiG+HpscONdgRRO7siNaZvhf+7X/7IfaGVV3vbsPKGJxbTdGbs+VlI0hRJEMML7BRSo4yPhbaHYDYbznnh7Hb77rFtvlZNgnXxLfD5gQ5RQx2RIE7O4JW0/ei3elN8SRJ7E0nM8VdRMrSr0RSFKncXl641BD9DlJSAXd+GD/HCagGxB3tCOzxgOnizrAk16QlmQOMnnWKQmsY3rgiS1OnTWiyVans4DQD3JMksX/jLRvcbbzbS78SS7lylCIHwPjsT0Xu2M4P2x2A2B/Iv/ZMhwOglcmfzAG2RL7tpcGG6SG5CWrr8phZPM9HAbYTYj/oH9nF3cZrLB1LjQNgOuJLSd5YzZDY34u0lF0/st60B1dMEYCpj6fDATCV16TobM3k5afIkbHY4dIhe3Qa6zF8vzcMG0Zle1JBoVt3JP4RQOVjobs3PVOycpo2TssRQIpylSzPTGMCoTN2nhL/s1DrEcAUm/fhjMBWXpOaI4DtJbsWiV92RRS/i+Cm1Eb5xu6+1hx5B2CyEw2bpug97LQSJDB9ty1DX5wSGKKNlh4CdSB+BCAlbfDXVuLvwVKLAMT2yB6P0pEJGW0H5Rxga+drOZerA6vjLmxyPC1MNH47Xwkc94L3NJwmZfe4a1VMXQQ3I2Pr57/apS4WNIjvGIvl5cA9sR2Z4aZ0OADaZErIrAYYzpZaWwwtXx1iqq9NUVmKcTLh1KTVH0XsgT6RYZLgWKjEdwCq8GyXungaT1Xjf4YW53FMAnaJu1Rx64xYEDVM9FMeS1r/UcR+9rekZIrslOb4e7DChgBDaGl9SvpTW+prSZMDYPlxpGhamGU0sbqfF35/7JUBz3Wsi6fBiHBg7LXKfS51iTT+XAqR9EQA0Phjy1V4NGn1RxF784yCdDgAlWr8RGWBQZMDIClxAIxDidLjANimhaVmXrhlpK/AHi51EeUegy7eAZj8xP4MVeJ/d7bAnrFXqtsx2RY02E4iAIa8KWOJsTsTxLQHDwVi6Hgmko6w8w62HIDUlHpFho1TU+QABLbQ6d4udYng3tiL1TsA2wHxP0OD8zgmEv+7raRoNLXhCCBIUwQgir95Pro+HQ5AFMXfvxSGArW1PE1FBOCRXRgkfkfD9v6cpsKOJoOXL6TnCEDhn4bFz3CpSybgb4blz66NFPZMQlbM1AzKAXHXR44jAKLsY1gb/zflGBVDcmyUjghAOEvbkdhHANHzHkpHVYYlCi/KYIDGN0QN3odLwlAqGM7Ihivxk3NcEkWmMF9qIgBRFP9hpRL/ITmmvCZ+b1je1rqG57vUx9M47t2LFxoe8miV3zlW6Zmxdcnwd8e6xEaUp8deXOXBpPUHaG0zVfisOnGlWHrwO0Mzpj14KEAMEQCJnwzi/k7ED5FpczocgKH1JgdgelreVpta4jsAAnu4jMh098m/If5DJ4AjHd8eT4OIbJ/dvxYsk4dc6RKerTsAu8Vd35KSCMCls7QZS7SxNR0OgGZMz/z0HMdg2INlJAKwJraANGWea/wyGamko947XC6DaOw62ab2tfEfMC6Zt5iHDHYEFcdn7wq/NSw+wqUunsYhNgcg/ndmDNqmcOCISrFY21mSVCQBrp3KbgY7Hu9aLGuTtgEgqJqe+alxAMRWNr06UEODCSF+WYtzAkMEwOYNukWI/dahFbfn5/FNEMV2fnqQS30C5Rdx1yocvmKmpqLjpWf8hKE2KbzWICL2d2YsNIpfjgjc7VIXC+vF9JKRird/ADHkMUiaHADLHiysCkQMEQBx17bVjCUCQDoiADX+YbgHqXAAAFS5M74Zbh0A4IeGtdPu2ZtDHOvjqTNTV/MyIX62utq+M2Nh+U7/ybEusRHLM0b4d9L6b0Q1/ktflKKmTGpwAARWB5YGE2JobFGHOxHfKzN8GepAbAdASY8DIMIfY6+FF7nUpVLhx8SvEkHgKJf6eOqPKm80LI90PT9xqU8gvDC2LRLfmXaNRPETGdH0OABI/Gd+kKIIAEH8PVhhdRBFhq5taToCMPTtVlLkAEh8B0Bwm0FvwRgB+D+Xuiy4SB6G+A5JBO9xqY+n/qjwbsPy38+/RCxNuTbXB15qWJ6aCABicAAsPTkcY3nmbzcRAGVVIIYcgDRtnGJwANJ0BKCGbF/XJXQWAkMEANijcK7G75o2Nt+Iu1CU5y2ao4c61sdTJwqd+goMDYAEbnGpz5JO3QdDh8vA4Ey7Rg0OgBheblwTGKK+gaFhm2ssSYBRLQnQ0nwm9qQt16jlCEAMda2OsTT8EGW/pPXfSGuVP2AYNEXG9Ma0OWp7qEvA+5zq46kfVdtnpYFbB6AS8TLD8vWD003OtFMC2DfuWlNXTtcYnvlp6sqoQfw9OKM8EgTKfwzX3z4cgBRtnEYv+cC09AKYs0zWi8RvpCLwSpf6tEV8D4hdgiTw7loNtCfFhKG2IJxkEPHY0E5uEwCN3+XfhKGkou2soqLKc+KuDzQ9zYxU4j/zTXuNY8Qw7poqDwatNgdg1zBUyzxiZ6ht49wnLaVezTYvuX3KmvgeunMM5XeRuK2/n7NM1iPcZBDxtFVTOdalTh73TF3Dm7EcTSpfd77hGr7LAj93qouB/k72xtB4xvhsc0YYahOGtszNKenKWHshiX0EsHYD/wnmLJNHiT8RMGhelY48gPXTuQ+oxFzefPee7JW0DQC5sqwG/hV3fSbieUnbsBHV+A8vgUOXztb4U8fGVIgVluWi5J3q43FOpHRa1mvA513qU8rqdFUONtjzM5f6WKiqqZTxodqzLXGm/pd9gLgvrsP7/JMHkrYBzE2ZHguXy+DGcHHsBg0tKTkGCEOpgGl+975J2/AEhgS6SFLkAASmh1fTYMbUyGUzhga5CXjcIOKVvR36Opc6edyxKKtHAq+Ju17h0XXT4ieLjsV64TAgdnRRJD0RALaTXgaVJtOR79/TMgegYgn/1/b8jQ5A7GMADQwzrl1jmf0epCcPQNVUQ58aB2DdNP6ArWTGUsu9GeFyGQS+bBIinOdSJ487Mpg/my+FocRtYT0mga0fwX+6yymqAND4zxZJkQOQMbzsaUqOMQCITMnr/3MAxOAAoG7nt1tQS/vZdCUCWrJ+UzO9LgwlUuE7se8DvNW1TqpcblkvcNSiDrVkdXvqQKFTX6HWwU0Rl7nWS+HNhuXfESR2A6s6cHDs+2B4qXFNZEgAFMcjoo12WMq+/wP/iwDEDp0blXCK2LyzfZPWf5QdFm/5hUtn65SkbXgC5duG1fv35tSpQ5Mf4PtirKsOhA+71MnjgIiPWpar8MeepfIjlyot6tRDsLxt2n47Tqkle8fuZkiKIgCmcmlDlLkOWNoy3wc1B0AxjJpMUf95thMHIAj4g2H5lKEm0w/VKU1V20NMlONc6iOIRmJ+0zuumFPfHjglFOfoscAxFhkBLHetVxDxFst6IX70zDVTV/E8IP6Y7qrpmeYWSwlgiiIAQRB/793YcC4Y/R8xSc8RgM072z9p/Tcyb4n8F8uxjONWuhbmLuNPGCJMAm93rZO0cBkYhmABqlwUhtrqWjfPxFg6W6doQMkiQ+HRqIVP10G9dxjW/iM/IHfVQadYqPASw/L/5C+UVGTOjxhjOgK4N2n1R9kRe+8NGOUABIGh+1yaBtBEpg9nb+dlZzbijyPV9DgAgijK1+KbwssKHRq7retY5IvymGCOAjyrbTVdLvXyTJzBJhZA/OY0AIFycU9BTA7hpiyerc/DcGYucKNLfayoEL8VtnJH0vpvZNFZOgNDW+ZKNT0RAEtb5iga6WUQAFQtRwCwj6JxaxGdMrQLDwDrYy6XdZn0hM7FVv+bGgegZovtYSa8y7VOmYClwLBRzPxFOU1N5OipxqKcPksiuo1i1muVZa51q2ZMw4hQ5auudTKhvCr2WkmPAyAtpmf84IKB+CXzLlkxUzOooXfN6ByAqRXuB6KYotqKs9PRRCcMJQL+End95HgMrQlbDf2BpaxOT9qEjbQq3wQeM4h4r2snc26//FPgSqOYNlEuSUv75acSYahBAJ9CMB3DCFxep/B07HbECo8OzeC7ddApFuHZugO2Z+Mvk7ZhI8ZR439JS1XG33fnGUBLzOXVdTNGmhkFUGuTSvxZzVGGZyV9QzYiym8Na1PjAFQ28HPiz7CX9crLk7ZhI3OWyXpVbjeIOKDQwatd66UVPk78LpjASFlg2yp/FNBo2lexAOX1JiHKuiZhkWvdas2iYj8TRfhGWvr/A7RP4VXE75yHanocAALTMz723uIa4557X61xHqPfXP4aV1rG8GV3fmOC+ANojF8Op9Rm2P8ttilirIl2TCCsNK0PONO1TvkL5QHsFQEgfLK3Q2N3oPNMjN4OfZ0KHzMLEi7uLMn9rvUTOMskwNiy2jURJuf7Xz0DkpoxwCgvjr1W+E3S6j9hhsTfc3VUlDwY9Y+xHQCUA5K+IaN0if8hKS9MUzjXlAcgxrcjxwwO8lUMbXhVmblwtj7NtV7NcD72+d5NIly3eK7u6lo/z5NZOFufhvA5DG+kAAirqsMsdK1f3zzdDYmf/a/w6ND0+Emz9UAiU0vu7yet/0Zqz/b4fUWi9EQAxLDniv5vr39iswsk/tumxRtxTYuYPqQd2x9OT0dAhZ/GXqsc0p/T2JOiXOOgDe+UTBOnuNarsySPiPBJB6L2rlb4TJocyO2NFTM1k8lwjeAg5yjio7Uom1OiYT5A/LNZqEM7YgvhLG1H4icACvwgaRs20vIozwKmxl1fSdERgFgiAKP2+v89rKL4yXMYy3BcUgvpxf5hS1N6jgECWyOQYFg5PGkbRiMjb27xUTpqIzCdMm0tF1q7A44YyLGtqym71s8zwr17sQx4kwNRfxiawadc63fpLG1GONsiQ9T4G3FMazuHAZbOoqmJAGQiXmBY/uB5A2LpzeKUSHh23LXCGBGAasZwBADPrbWKTAeGRMAoRYmA8wb4HYZJjQJvSNqG0QxO43YMo46Bfda0c4Jrvc5cLsMEfIj4SZdPIDC7kFU/MMgxhayGaj1bHyFS5UMbk6Bcsrqdk7H1RXlgvwf4lmu9TBiGGSk8uu/9hpws16aI4fyf9Jz/XzpLm0XjOwBBNNYRQBN/Jf4DcErbqvTkAajhGEDgkKT1/58uohC/la6mzAEIQ6mocIVFhmp9Mu67S/JdsOk2ik8WOvTceuj5VKSY01ngIOkPELi0Z0Cch6VrZaqm76YKl6dl1OxGROI7AKL8IE32iMZvzATpcWRWTeU5QNxIqK5dx90b/+MJByBflMeA2BmxQZCeMbSB4axG4dVpaWwEoCM19HF5diGrlhnezmkKuByI/1AQDqlXH/6WkQe4m5pwodyXU+dtjJ9qFDv0napc7EjcfdEU5tdDz745HINtWE5VKu6nEVq4oEN3x5I0J9yWtA0bqT3TX2mwJTXn/9g+k3tr+VjAk8sAgfgDGzRKzxhaSwQA2HXRXJy2njXZEpgcAFR4W9I2jGbeEvk7cIvJJkdvg5uSK8tqlFNxcBQAZCJlRTGrp9VD16cChay+R4XrgIwDcVEgfMB1y1+obS4BoUWGwNfyyyT2zIx6kBnp/x/7ZUhT5AAUsxwIxK4iirYXB2CTPd6dA5CiOfTNI3bEbqTRVCU1Nd3zS3I3lglUyvFJ27AposYELOVVtQlwzskPyG3AgCNxTQqXFzrUNwqaIMWcdgBXEz/U+WSEJV0lsTSj2iKFHMcpvMyon/OkRDPKLvGXcn9PSVIzAVDV9Exfv36nVI0zjh1tF+WPo//7SQ6AGBwAxJRh6ZTOkgxh6D5lbHzhHsMxgMDLCufqnkmbMJrBGdwE/Nl0SwI+Ua+jmrYqPcCvHYkThGIhp71pOlpKK4pKMat9qpTZ/AUlFiLcMTSND9dD3zDUQJSPG8X8qavEN+qhn4nA1L47NW//ACKGZ7pwR5pKM0Xj77WRbiUCIGqa2XxQOEvbE743/7NF4tefSvocAMswnYBmjkvahNGEoUQiLDGKeUlfh/uKABhpXSxVTkBY5Uyoki9mucqPEN4y/Tlt68txtcI8h2Ifrion1Ku1busaTsY4Q0RgcVp6zI+mxTKRVFLn0MSOAIimp5dB3zydqhK/7D4Qfv+k/x79H2uH+QPxzz8zU9vSM01P4YeG5c++IKuxR0a6pjngNmBtbAFRuvIAAAancTVgqqtVoVivDbV7mfyNiJOwJCxuzvtb13BHb05Tc1yWFhZ26nOGlR+r8l6HYiOF980vy7310Lk/p22ixm6Cyr8Hp6er9n8jnSW5X+L0IhFWrVvLDUnrv5Filz4d4lepRYaXSddUN/Bi4kfGImnirtH/8CRB4cXyOMK9cZWLgvSU0FWr/BBDMlezZfylYzpLMqTKrbEFCG+oZfSmhlpIzTqGdd/2NXTWS8f8gNwmwkddyhTleaL8uJhV5yOOJyuFrL4nE3EHmOq0N0Nhfk9Zbq6X3pWILog/k71GOU3h5c0Y+f5PbFKs8vHRmeaJs8HUylijDfwoaROewLbH/q1rsTzpRXIzT0JtoxtfktR92ZQFy+Qh0Sd7OxMhbXkAEpjmgzc1GcaT1otoPRcDqy0yVJlfzxyH7pIsVPvY4E3ZUeFzhaxe2p/TtnrpnnbCWdpeyOplwGeBHRyLX95TlmK9dC/M1r1V6DaKeURbU5j8N4ruknwfJuQEf2VoOkuT1ns0GpgSAP9Yj5bRBix77GZ7+2YOgCi/iitdUuQAAKghdBNIeioBAJrhRiB29zIRp6FVJ8y/RFaJUjKK2YEms4ytMmOQDymmccZbYtYw/KE3p2+tp/5ppDenb2tr54/AGXUQ/42h6ZxTVwMyDGDoK19jcT3KEl2TL8sFAnPY+uhsFbhkaDonhaFMLGJQZ4w5XZaj5HrYcnDctSqbJzY7jQCo8oIwVMsgDKeI4cNTeMnCczR2GYxrOkvyiGWwhsLLFs7VA5O2Y1MGh+nH0O64xom9Oa1bnsOZy2U408Tx1GOwibKfKDcUcnpj37mamkFU9aIwW/cuZHWlKF/BHj7fDIWf0sLMerT6fcKGrB4P8Sf+1XgwaErXm/LW6C7LsqDC8wUW1+ZmbMyNuU/haoRXdJfl7HolW8Zl4Wx9mmr8sLlqehyApbN1CrZphpu93G/Wv7+q/LIpfrHSlKmrOATDFDuXVIUfBPFzazNBC2+C9CToqPJlJP6An6DC+4BU9akPL5bHCx26GMEUrhVlWaFbv1XraOmcrsWydtFZelwwhW/j+KwaAOUtURNHFrK6MGiivOlZ3WSnb55OjSp0AvOBeh17/HoKHJ2r03cAYOls3WnInrsCsGiyfcZdF8o9jHTLnDR9LTIZjsZQTpqppmeY0foML8EwmKnKOCIAtYlHsduhasArEro/mzG/JH/FMHwmgGOStmE0FfgCtmOA96RxXO3QEBdhb8G7D+vpraee8y+RVUETR2Hpl7F12oFPRhXuKWR1/tLZulM97WkEvXmdVsjqeVGFe4GPU7/N//fVKkflyrK6nvYMZegD9jaK+efQ9HSf/W9HWJ7hD9ScnlRQtbQyhvvGmmY49mYghmOAKD0OQI34xwDK0Stmqos2pE6ofYCWBhvPbF0Vf7hHvQiXy6Cqgx7twlm9WX1zPXXtWiwPRut5rdY3yvU0YOFQhvsKOR1IWwXHeFh4ju5SyGooG7gH+CSwa72uJcIdmQxHLFgmD9XTpmJOjwY+aNYX8qnO/N9OqD27LeOjU/P2DyDwcsPaMXP7xnQAJDI83CRdDoBgakix6z37GFt8urfnGtN647zyepEf4BrgZ0YxInBlvTfM+ZfIKqbwJqTu5UE7osxpEv5ayOqnF2X1yDRGcDYShhoU5ujre7P6mUwzfwc+hjKjzpf9fmuFI+ctkf/W8yILZ+vTNOIqDL3xa/y4q8zn63xPPMC9e/EKYOfYAtLXzCh2abrCj8f697EdgICfGJTcN02tZ4fh61iGu0TUped8XAYH+SqYWnS+efFcdZ58ZUUQDSCLfRDPbhm4pN769hRkTVuFI9GGPMx3AN4fwDdbV/OPQk4Hilk9uAHXHReFrB5UyGrYtoa/EnC7wCnYM+S3iQpfbBbeNGeZPFrX66CSyXA5wtPNooRsGrv+bY9Eanp2K8PpcQBqe2r8o6ct7OljOgBTKvyMiTZ/GC20OX6owjXnleVfwG/irhdJlwMQLpdBhS8aRGSiCh9K2o6x6CrLj3GQdCnC22vDZOrKnGWyvnuAdwPnN+L+AAjshTJH4VeFrP6tkNVLezv0lEY63Yvn6q69OX1rIae9xZz+gpGciI+hNK6KQVi6bhondpZkyC5s6xSy5MDeTlvhmnxJrFEuzzgRw/m/CL/MXyhuRoO7sCVjKmWs0jR2W+cthrMKWf0dxB46UM6XJdfA+7NVejv0AhEWxFyuVNg7TV+GRVk9MsA0Jvi/Q9PZJ43nkIvn6q7VKn/CfmY8rMqRPQPSkDaehQ49HbgQIale/xHwW4TvacQfVbgrgrtqDnBsLsjqHk0BB2qV50jA81AOY6T3fVKDjYYQzsqX5DONuFhfVl8ZjbTDtZY3Pxw08byuxWItefWMgwuyukcT3E/M76kKH+8pSV3GjsehmNULldi9LX6dL8uYpZBNW1n0E+I7AIc38N6Mh5shtgMgNPMm4KqkjdjI+ul8p2019wL7xhSxa+sqTmCkA1uqmLdE/lvMal7hCqOoZhGu65unhzbioZsfkCsKOf0NyheBZzTmbj2JADgY5WCRkadeAPRm9dEA7lLhXiIeQngYZa0IgwjrAVCmqNKOMFVgVx1JQtxX4TkCOxGNJFeYD2esCPdEwjvn90vsZmUT4YIO3b0KK8W++aNKp9/8G0czvFkNTqoIdWshHQe17Km65SP9IM6icfCi/pzGT75wzP4P8GPgkbjrRdM1TCcMJVLhUosMgc60jqftKnMVyrcdiNo7qrCiUc2p8iX5RSbDoYJpeqNTBHZSeBnKTEYSQD+C0KuwVJVLVblUYSlCL/ARhbOAE4CXCqSpDPErzfDSRm3+S2frlCbheoG9HIi7rZbk6mkcliOb/+73T36etAEbWTxXdwWeF1tAEMcBsHU9C4aj9LTSPXGlVDEM01E4Jk0ODUBU4QqovcHFQTikL2cqkakbgqgoZ7L11qPj5bDW1TZnaSLMWyL/7S7Lcaq8H8sER89GhkTI5svy9s6SxHbiJ4KiMpThMgwjZEexNhI+5BP/Gseis3SGwlFx14twy4krxeUUUBNRhcMwRDOirZQzbtEByA/IXViaswiHNej+jFefmwyrW4ZJVxRgwTJ5SISVFhmq9CRtx5boXip/Eci7kCVwaiGr9j4DE6BnQK4GXtaAUsHtmR+gHNJdkoFGXrSvg/OA9zkRJsybX5K7G6n/U53MFN6JoWNeRLrC/5FtL71va9+/rdcUK98zXPjIOt+XCVGtcguGygZVTk7ahk0R5WKjiMN652hqxh5vSleZC7H1cRjNJxs9dCdflj91l3iNCGcq1LVUbXtC4VERskPTOaz2ItIwih36ThU+7kjc17tLjYs+eUaIbJNPq02BYfR6HRDD+b8I39na/75VB0DZ+uJt8OI0dTBbsEweQuM3mhE4sm+e7pa0HaPpKsuPRbjDIiMI0hsFEESDJk7BPiwIIBD4TG+HNjRBTxDtLslyqfJ8UT5H8ql0aUaBa6TCQd0lGWj0VLnFs/V5KnwaNxUOD1WU0ydL6H/xXN110Rw9tDenL6wNnZmUXNChuwscEVuA8NN6N5WakD1Z3YP4yfhoZHAAoia+a9BdmoQ31PXuTJSA6w2rm6oVZiZtwqZoZGt6o/CW3py+MGk7tkTXYnkwEEd9C5QZgfCZJJIf88vkvu4BeY+O5Mb4WvBNUPhpoLwyX5ZTkii5DUMNKhmuZKTpkt0c5Yyxeq+niTDUpkKHnlvI6u+rVR4KAn4hym+HMjxWyOpXi1m11J4nQtPI23/89u1qO1Z1TfNIK+P41QwWB2DBErkTy2AgQyJGXRjmOgzHAEL6jgGGZnAthoFHgBA1rpFNHLpK8mWg7EKWwuHFDhp6FDCanqXyo3xZXh4Ib0RpSEZ7yvmDKCfmy7yya0ASmyI6dQ1vs/RafxJKf35AbkjKlvHQn9O92lbzU4RlbD5ithk4TuH7hQ5dnNZqoTER0zM6ajbmVbnGuIc+0L1M/ra1PxhPX/HYUQBRjkrTl6f2ZmGpbnjVkk7dJ2k7RlNr5mMaTyrC2/uyapk0VXeGptOFo+EcGr8plDO6SnL70AxeqsK7GGNM53aP8itRThyazou6B2Rl0qHyqrpJOAW+PzQjvcdqMJIlP6x8B3jJNv5UEOYWspSS1nk81Fqcx55FI/C9zpLcn7QdG6nN/bBE0bfZLG6bDoBgSIgQnr64g1SFlxVT7/ZgODIlmNTHpilcDKyxyIiUC5K2Y2uEoVSaRzZLcz6AwMsLOf2/FNgU9ZTk8/myHIJylI781ibFmXFMFOUWIt6QH5CXdA/Iykaf849FX1Zf6eTtX/l3BU4KQ4k9srsRyBT6gWeN++9hTqFDUzdFdFOqFU7Gkr8hXJe0DaNpW8NLGGnKFZdtJlBv0wHQiu2hVBWOrsvdiUlU5Xog9g9U4D1J27ApPQVZA8aKAOGIYk7TdWSzCZ0luZ+Ak4FhszBNVw+E/IDc1lOWN0nEcxEKQKrPjyeE8m+EpSq8MD8gx+SXiqWNtXMi28jYjQxLwMnW1sv1pneOvkrg/RNcJgjnJa37OLR8t2H1cGWDacaKe2zPKK0ot2/rj7bpANTC5n+Iq4WQ3HnrWNRmhlseQAcv6tBUjQgGCJooY2yco0oxzeNmAfL98m2Us6xyLKU19aR7qfwlX5Keoek8Q4XjgeuAx5PWKwaPifI5lLdNH+IZ+ZJ09JQk9nOkzphLlgXO7i6JJWm67oShBkFAmXhvyYctnK2Wt9G6UujUVzAyoyIuty64SB5O2o5NsHQz/NV4klDH97BXUy32q9JUDgggtmMAgoAzk7ZhU7oWy4OoeV7Bi9tXpa/SYVPyA3IF0G+Roa4SvupEGMqGnpJ8NV+Wdw8Nsjsws/b5pvkN8wGEK4B3Ngu7dw/Ie/IDcsOZy8UesakvtuMgZUl3WS5P2oht0baG9ynEfnmRTLqOc0ejke2ZrI0Z6z1uanvmS+Oul3F2vm0azx9JwK2qzI2pS9AsHAN82vVNiktrlS8NZbgYaIslQHn3orO0a/4lsippW0YTCX0BnIFheIkKxXCW3hgul8Gk7dka+91P97178WyNH2Ga2p/TtkaMk7VS+yyuB65XVPqyvBjhCFVeA7waSMbBVv6tAT8U5Qca8O2efok9djspwrN1Bwxd44AbhmbQnbQd47JTWWSRkYkSm3S5VXrzOk3Wc2JsAcq69ohUVW00C2/V8b6gj0FVxvfSPi4HoAm+PwyDQHscZWoP6U/X4T7FYs4yebS3Q28R4e0xRbRlpvBejNn3rplflnuLWb3MMDYS4BmtU5kPfCRpe7bGiSulGp6t725r4T5gWkwxOzMyMnTSIIhS5teMVA6UABbldP9AORh4oQovFOVAYD9i/l7HYC1wD3CnKL+TgN8xzK+7LpR7kr4fVnZsZUYlfhri6qENvCcNiYzboq2FBcAeFhlRUzp/K8F6TlHLd1342pxlkrZOnW8xrH1s/fTxtSAflwPQWZKhQlZvJ/6ZxFFLZ+uUOcsk/vAaxwRwnRLbAUBhFilzAABo5pMMcyowNa4IiZhXnK2f3lYNadJMDXhaRPy3kigY3/c/7dR6fd8NfGn0v/fN092iKvtKxG4asIsquwjsihAAU9GRSJHCehEGNaKK8LAID0vEwxrwYJDh3u15jG20gabY3wKldWrA00h5jkbfubpfpORM/Q2FVTMe549J2zIWivlINlXZ//05bRtWYlddqHBrGMqG8fzt+L/6yg1IbAdgh8EMbwC+7vROGWiNuGEow0PEL7N4QW+HvqZnQCx9BZzT3Sf/7u3QAbHUugutmqGflA1AGk1/TvcaVm4jfvi2uuNjhmFXk4Daxr3dbt4umCI8MDRS5TTx7VFojZq4rT+nh6WpfnxTqs30idrC96pcncZcjt4OfQ2bNzKaCP8Zms7XkrZjNMMRb0TiRzQmMo583GcMQTM3Yuiix8iM8dQwZ5msF2xJcyLMStqOMWmlCFgzWo8rztFjkzZlLPrm6W4bRmrmD4grQ+HfaXygeRrLnGWyHjWVXB4wrHwzbYnOG1mU1SNFeadRzFqpUEzalrFwkJB95XjflhuGGPIZoJoJxv+iPW4HoJZlbhmmc3wYauzktHpQFS7F5tScmMbSmJ6CrFHsP1gNWBrOUlfnyE5YPFd3jSp8U5TnWeQI/DZpWzzpQMX8XXhuk3D74rm6a9K2jKZvnk4N4DIHohYnMZ9hWyw8R3fRyPRiqZFwZdJ2jKY2iMly/v/jiQwzmlCWoQTjDy2MwfTW1bzeeH+cUjs7tfQEmBJkJtxUoyG0CMvUnuB2QGsbn0zalo2Usjq9OtKYKvZ0rCeQdIX9PMkR4OS78IJqldv7c7pz0vZspFphEbC/Ucx/aGFJ0raMRaaFUxHT0cat80vy16TtGM1gE0cRP6kZdGLf5Yk5AFVbqYRo+mrMRW3zugU6Lp2lzUnbsSmdJRlC7T3vReionbMlSt88nboBbkQ4xIE4pZKush9PckTKV3HTgvnFG5Sbls7WnZK2qdbxz1INBIDAh/NFeSxpezbl0lnajNJhkRGI7dlfD6x7ZCaa2Ev6hByArqXye1HujG8db0/bMcDgDL6KYeIhsPeqNt6VtB1jkR/gGuB7RjGBCJeHoSZWAxzO0nat8DXAiSMicEN+mdyXlD2edNEzIP8AbnIhS+DlQxm+1jdPY1fhWAlnabsEfAZDHXmNX+97v7m5WF1YPZV3A5bBbP/aaW26ooC18H/s7n+i3DlvmUyoUmPCXxAVU7/k6a2r45c31IPa4A5rMmBPmqYePqEXolFAFqgaRT23dVUyfQHCUFva2rle3bXujaKAjyVhiye9qDAfWz7QaF4bVflqf07jNRoz0tbOBUxg2M+WbokqHSeuFOuzwzmKCso8o5jL05YEPJThGAzhfxW+MNE1E3cAAtu8ZFHea1lfD1RZjm2TPKhvDsckbcdYzO+XXwkst8oRoXvRHD20kbqHoba0reYr4O7eKnx2Mnas89SXnpL8ToTPOROovH5Y+WKjI57FrL4amONA1Gd7BsQaPawLfR28GVseUJTJcEXSdmyKim1vVJn43jxhB6D28LzLoOfxvXmNn+RQB2ohwFtMQgK6krZjSzQJH8ZeFtgUBFzbqNDmpbO0uW01X8Dh5g/8Q9eTbYT+nsnH4HrOUnHa7OaYttV8oVE5Qktn6xQdyfq3hv4fo0JPI3SOg4rxWSvcNG+J/D1pO0bTm9dpoljKru+KM2wr7hflSzHXgdAqG3iHwdC6oHCJcf3haZgxPxadJXmEESfAynOrFZbWW98VMzWzpo1PA8c7FPuYwNvSNr/Bkx7Ci+XxKOCdCi7bwh6/up1rVszUTL31X5ehBBzkQNRH01j2B9DXoS8HXmeRocqnkrZjU4L1zCTubBrihf8hpgMgI4NJYpPGY4B8mZvM3r+mNwowNI3lwI+tcgRO683pyfXSMww1uHsvrlTbbO/NzI/g+O6y/Lpeenu2DxYskTtrLcJdDok66e69uLKeo7aLWX2X4mRM9s/3uz+FLc5rRGIbvKTCH/NlNwmfLlHMe2KsPTnWF7K7LL+0VAMoHF6YrXsbDXaKICqw2Cjm7YWsuvDAnROGEqF8AGWdVZYon+o7V/dzraOi0r6aCwVOcSh2g8LM+WX5lmt9Pdsn88vyLRGOd/Fb2YjAKW2ruLweycLFOfrsCCdvtZVqwJlpTPwDWDxbn4cxKhgofYK4KPl0Rm+HPgN4rUHE73tK8rtY98Nw0WsNawNS2EBn+lo+C/zTICID6c0wzw/IXRLwCQeipmmT+7PNvixFF28xoxhGmdlTltTMoPBMDrpLcqsGnAy4yxQXPlDIMuBSzzDUVg1YIeCi90Bhfr/8yqV+LqlmOB/DnqVw/+B0h4mejhDhAxa7UD4bd2nsiwZNXIOleYZwej1DYnE4c7kMK1xoFHNiMasHJ23LlhicRhH4hVWOwstWtVFwpVchqwsVc2nPaKoC788PiG/444lFT0m+WsvMdvZGLDC7mFVnv5vW1VwCHOxA1F1D09PT9XNTenP6QrDljolQSlvf/1pEyBLx1Cjm+T8YHIBaFuUPDZbvN2W1s9puZ7RX+RSw2iBCgDBpO7ZEGEolUE7HwZuNCLliVk+1yunN6fnAfIdmKsqZ3WVJ1ZhPz+SjpyQrgA/grkcACt2FrIZWOcWsniZwqgOVKoHy/jAUZ0cerhFYiO3t/1Ft4fKk7diUvhxvxNKuWfnO/LLcG3e56Q1cDaEHgMzIRpQq5iyTRxHbAA2Ft9WyVVNJ14D8Fuh1IUuVSyz9AXqz2inKRx2apwhn5wckdXW+nslJvizXIJyBQycA+Fgxp7FbdffN0RcozpL1FnUNyE8d2uaUQk5fivJmiwyBi3oKsiZpWzZF7Xug5Sje6ABsYAWwPvZ64Z1pm6AF0AwDgClUFKU4CgAwNJ1PotjP+4TWIOD6OJ9jIatZwemgEUWZky9J6sp8PJObfEmuEtz2kFDlgkJWJyxz4Tm6SxTwJYg/M/5/SvCrNIf+azouZCSyGpf1FXfOkjMWnqO7AG8z3Jd1LbbOvDYHoFZT/VWDiCnVitNyLyd0luR+1OZZIRydhiE6WyIMZUMUcCLgYtDHvlGVL4ShNo13QTGrpwH9Lm1SYUF+QKw5HB7PmHSXZRlqK0Mbg/7erI478XXpbJ2SaebLwLPNV1bWBcopaTsXH01vh74OzO3jrzmvLP9K2pZNaWrhFGCKQcRXcmVZbdHBnIQnYmupKHBWGvvoRwELMZ6Ti6Tbs55fkr8itolaG1E4sm0NpfH8bTGrp9Y6ljn73EX5SE9JnBxreDxbIj8gfaJOK31E4KJiTmdt6w8VlaEMl2ErGfufPGFe11L5fb3ulaObY32GDgcVFiZtx6YoKqp8yCIjCOztjM0OwOA0bgdit1VU4cDFOV5v1cM1tTnRnzGKOaw3p/FDPA0gX5KrRB2VxijnFnI6d2t/UsjqCY7alY6+7pLuAUm1s+XZfugekI+rOt1URJVLCll9z9b+qJDj48D73FyRr+XLXFzH22SmkNV3YHV2lCu6LpR7krZlM9s6OAp4jkHEvWunYe5tYn4Ih6FEwKctMiK1z62uB6p8AkOOA4Ao/bUxj6klauVsBDc/EqVvSw+yQlaPBz4HjPuoYNuXYyA/IC7LBz2ebdIzIOcJFB2KDIDPFDv0pLH+x2JWTxV10s4b4L7qBk5NW0Oc0dSGKNkiesq6pkz63v4BRDjbKOLK2t5rws1bWJXLsdXKvnVRVvd1ootDegbkH4K5dGT/wQyzk7Zlq3YWZE0UcRJump4IcOWirB45+h+LOT0K+DzgrnmQcEW+TK6R98rj2UhXmR4xzhDZhIwKVxc79C2j/3FRVo9UBxM9a1QETl5wkViHg9WV1jV0YsxzUOHSuf1iaexWF2qd/yxVDZGqOToNOHIA8svkPuB2g4hMANs8A0uCYbgAGLTIEPhosUufnrQtW2P+gPwccVaL3xLAyoVz9UCAvpy+QSO+ii3h5UkoXNld4oNpfovxbN8Iol1lzsHd5gzQosIXi3P0WIBCVg8KhOtx5DiL0N1dlvj9WxpA3zzdTdQ8jXBIKk4jNM4IRrqdxh8OpdxSm2DrQhdnWH8EZ/TnNPY0pHpxXln+hZq9/B11mPOTtmVb5EuyBHDVPGfnTJVvFrP6qUi5AaHVoarXrpvuN39P8gii+93P2c7yaEZo0YDrCx16CXA7ygxHcld0l2RcibpJElW4ADCNjBdYlsaJhv05bVMx1v4b+9SMxpkDsN/9fBVDMiDwtOGRjlupI9NEL/ZyuTMsDXMaRbNwugh3OBK3p8KZGMZcbooqXx6azqkuzr88HhecuFKq+z7AKRC/JesYtCF8CNjTkby72qp8sPF3Z2LU2qhb94HHK1XzYLe6sEE5DXiaQcQ/9rufG13p48wBqE2QsnkmSmcj5mZPlHlL5L/AUqOYIBOkMyQ1ms6SDAUB7wQeSlqXzVBuaY94VxhKJWlVPJ7RnLhSqkPTOQXha0nrMgZrUN42Z5k8mrQi20KhjCU8DqjQv2CZpO75tWKmZgRbzpIIl7qc1uh0GE+1ynLjCM0D7t3TNvChbrRQQPm3RYTCkVvK8k0T85bI34l4F5CajVbh9qEZvH3OMjFVZXg89SIMZcPQNN6JpmrefFWU9+YH5K6kFdkWteqhw4xi/tNecdpd1Bn37skJwAEGERuGI3vt/2icOgALlslDGFsTqjjvtOWEfFEeU+w961UYWHSWujrTq5+9S+Wb6nZAT2wEvrNukLeleViJxwMjTkBzwAko305aFwCUzu4BSWNU4kn053RnXHQGFeanNdIRifntf8V5A/Iflzo5H8cbwEVGES8tdOoRrvVywboZXOHgfHz3oNXdGN160lOWxWL/PG0oP9EWjguXi6kSw+NpFJ0lGRoa4i3A95PUQ+HK/IBYjy4bwgalD9jNaPCvhqa5KY9zTWGOvl7ANCBOxf2z2LkD0FWWHwv83CQkosu1Xi4IQ4lUHOimnFHrcZ169r2fDrHNe7Dw62gDx+aL4mJegcfTMMLlMqhTeCvwi0QUEL45Y9DWarZRLMrq4eIgAVwCOlKbHBzY9g2Bn+f75Sfu1aoHI96chWNq2aCpI98v3wa+ZBQjIlwWhuqyNK4unLhSqoODvBvF+ZdvG/y2OswbagOnPJ5JR09B1rSMDLL5ZYMv/fsW5YQzl4uLxl51ZelsnRLAxdjngqzoLkmiEZct0dehLwKOsshQt10nn6AuDsC+D/Al4C8WGZExW7KeREKXMdkR4Dltq83NLhpCuFwGqxHHAX9t0CXvkmbelPZuZR7PtsiVZXW1ytHAHxp0yfuaAo61TolrFEMZzgMOMglR1kWQT9qWLatHHpuDc/d+9/PleuhWFwfgxJVSVcY3GW5LCLyr1jIxdcwvyd0EDLgQtXi2Pi9pe8bDgmXyUCQcQ/3LA/9KhSO7+8RUceHxpIUFy+ShivJ6Ue6s86XWqHBsGtvfjkWhQ58LDpK+hSXzy3Jv0vaMxZJO3UeFmUb7+lyW/o2mPkcAQIvwaWybRbMYz03qSVuFhdayQKClmuHyNPY+GIv5JfmrRhyPvSnSlvhbU8CRaezg5fFYOG9A/pPJcBRwdz3kKzyqEcf2lOR3Sds6HsJQmxgZImdtD/7A0Abj0KA6Uo2Yj62N84PN9qm0W6RuDkBnSYZEudAkRJnVd67uVy8dLcxZJo+K0OlA1Cvv3TMd5XbjoWep/IiAowCn5SjAryvw2sny9uLxTJS5/fJPKrwW+I1Twcq/RXhjz1L5UdI2jpf2VSxAeIUDUR3hxfJ40vaMxeK5+kzF1vZXlGWdJRmql451cwAAmgIuBCwfTkvUnN7Nsbss1wn2towqfKyQ0/9L2p7xku+Xn1DlpY5qnRXhimbhVeeV5V9J2+bx1JP8hfLA0CCvqvVzt8+yEL7ZHPDSfEl+lrRt46WY1ZeoOBltfHO+LNcnbc+WqFb4GNBiELG2UnE6bXIzrJmX26SQ0wGUOQYRVZTnp7WTVW+HPkOEPwA7WOSIcmdTwEvq6e25RlEpZnkvEAL7xxDxswjy88vynaRt8XgaTTGnr1WlALwyxvK7gY92l/ncZBqKFc7S9rZ2fgk81yhqbVDhhV0Xyj1J2zQWxTn6bA34I9BkEFPOl6WuyfB1jQAAREoJW0vZjAROvMW60DMg/0AIrXJUOHCY9J5ljYUgmi/LNdMHORB4J/AVtp0f8FqIUB0AABYbSURBVKDCpyM4Il+Wl/vN3/NUpbsk38+X5VWqvBa4fFs5RQqPMlKC/PbpgxyYL8u1k2nzB2hvZzH2zR8Rzkvr5g+gAedj2/wrmQzleutZ9wgAQCGrnwPeZRARBcohXQPy20boO1FWzNTMvXvzU1Ws0/5U4c09Zbk5aZviEoba1L6aF0TCgSi7iLKDwmoR/lMN+OP8fv4y2R5aHk+jKM7RZ0cZnkfE0wWmA2sFHooy3LluJ/4wmQdhFXN6lCq3YN93frHf/byiXpnxVnpz+nxRfovhBVuEz3aX5H311rUhDsCiTj0kiLjDcj0VvthTkhMaoW8sG+fooUHAT7B5fSjc3yK8qLMkjyRtk8fj8bhg8VzdtVrlt8AeRlEVgZd1l+XXSdu0JXo79EsivN0gQjXgkJ5+cZssOgZ1PwIAmN8vv8LYTlaUdxSz+pJG6BvLxqVyB/aRwQjsNaxcoWhDnDOPx+OpJ4pKNeIq7Js/CKU0b/6FnL5UhOONYr7ciM0fGuQAAKjwUcDSp1kUPt4ofeMQNPFR3NT5Hl/IMjdpezwej8dKIUce5S0ORP11aK0936quKB/HFlmPantlQ2joW2ahQ69DONkiQyNeneZ612JWX63wXcDa3GdYlSN7BuQHSdvk8Xg8cSjm9DBVbsd4NApUAnhdV1l+nLRNW6K3Q18jYp4AeW2+LO9tlM4NiwAAiPJRbBUBiLAkzeHx7rL8sFbaY6VZYOUFWbWHzTwej6fBXNChu6vyOeybP8CiNG/+iooIS4xiqiifaKTeDXUAupfKXxQ+axIivKKY5d2N1HuirJvBx8wjkUdsfXqTcu1kaRXs8Xg8AGGoQZNwDbCnA3G/nD7Y2I1xohQ6eB9gbeZ2VaP73TTUAQBoyhACGywyFAp983Rqo3UfL2EoFYX3A/amPsIR9+zFx5K2yePxeMZL6yo+wcgoZBvKOhVOSfNo4/Bs3UGERUYxG4IKCxute8MdgHlL5O8CV1hkCOxVrTqYIlVH8mX5k4izNsbnFXN6dNI2eTwez7YoztFjRZyNOu/qKUmjRinHonUKeYyRDoHLkmhs1HAHAGAYPoHx7ViUrsVz9ZlJ6D9eukosBVw09Qki5Qu9OX1+0jZ5PB7Pllg4Vw/UgGtxs7fc1j3ARUnbtDWWdOo+osahcMq6JnsEIRaJOADnleVfqnzKKKatWkl361xBlCqzEFbZZbGTKF/uz+nOSdvl8Xg8m7LwHN0lU+VrjHQwtPIwFU5Ne9fQSsRioN0o5qLOktyfhP6JOAAAmWZ6sU0KBOGkYlZfnZQN4yG/TO5T+AAuJn/Bs4cjrr90llrmS3s8Ho9TLp2lzZlmvggc4ECcKrw/f6E8kLRdW6OY09cCM41iHq9GTqrGYpGYA9C1WB4EikYxosqyMNTE7BgPPSX5KsJiJ8KEI1a1m6MnHo/H44w17SwDDnMhS5VFPWX5etI2bY0w1ECVfoy9dERYtGCZPJSUHYlunM0jm+K9JiHCIe2rOSVJO8bD0DQWAN9zIUvgtGJOO5K2yePxeAo5natwpiNx3103I/1VT22r+ADwUqOYfw6urf/Ev62ReEOdYoeepMLnjWL+0yw8L+0DdArn6p408UtgdwfiqiK8pbsktyRtl8fjeWrSm9U3y8icF3uvEuXf0sIh3X3yb7OsOrLwHN0l08wfgd0sckQ5sXtAViZpS+Kh864BVgA/NIrZfYPSl7Qt2yJ/oTxAxHsAF2MsM6p8vpjVg5O2y+PxPPWoDWf7HC42f6hGwrvSvvkDZJrow7j5A99LevOHFDgAgmgUMBvboCAEPlCYo69P2p5tkV8q3xR1NtBimsKtCzv1OUnb5fF4njoUZ+sBqnxdYCcX8lT48PyyfCdpu7Zpd04PQzjVKCZC0jHsLXEHAEbGBStcbRQjBFwShtqatD3bomuAC8Q4HnkUT8tE3OxnBng8nkbQN0930ww3IzzdiUDlpnXTzAnhdWfpbJ1CxKewH51fmS/JL5K2B1LiAABUYQHwmFHMs1tX8ZGkbdkWgmiTcBrwF0ci92+Cm3rzOi1p2zwez/ZLb16nRRVuBZ7tSOSfow28NwzFFAFuBEMZPqbCgRYZCo9WlA8nbctGUuMAnFeWf4G9G5II3ZPhXLyzJI+gvNVFk6AaB8t6bg5nqbUphcfj8WxGf07bZD03AC92IU/hURXeMf8ScfUMrBu9OX0hMM+BqE+cNyD/SdqejaTGAQAYms4S4K9GMU0Kl06GCXr5AbmLiJMwjkgexSvb2/l8GKqL8Zsej8cDwIqZmtkA1wCvcySykhHemfY+/zBS8y/KpYC1Advf2qssS9qe0aTKAQhD2SDqZIjE/92zJ2clbc94yA/IbQpZV/IU3tq2mkuStsvj8Ww/3LMXnxLlna7kKczpKsntSds1HtpWcS7wSrPNwtw5y2R90vaMJvE+AGNR6NCvIxxrFPNYU8Dz5/bLP5O2Z5w2X4RwtkORC/JlSWTAhMfj2X4oZPU84JPOBAoX5ksyO2m7xsOSTt2nEvEHYEejqBvyZXlb0vZsSqoiABvJNHE21jkBsGOlynJFU+nkbMrQDDqA2xyK/ETa5yR4PJ50U+t3f74reQq3Dk0jl7Rd49NVpRJxGfbN/7GmgHOTtmcsUukAzFsifxfho2ZBwtGFrNO36roRhlJpq3IC4OpMLKNwmR8c5PF44hCG2qTKJbhp9ANw1xQ4KQzFVc5TXenLci7wJqscgfPSGolOpQMAsO99LBX4uVWOQHHhXDWVbjSKOcvkUanyNhRX3bAOWtPO+5O2y+PxTD7a13Aa8HxH4v4VCcfmyrI6abvGQyGrByn2KX0KPx2czkVJ27MlUusAnLhSqlHAB7FnyLc3RXx2srwJdy+Tv4lwDLDGhbxIJke4zePxpAtVZ8nJazTgmPkluTtpm8ZDGGoL8FmgzShqGOGDae5xkFoHAKCnX36DsMQqR5VDV7enf8LURrrL8msR3oayzipLlOcVOvS5Sdvk8XgmD4tn6/OAg8yClHWqHNfTL79J2qbx0r6K84GXmE1X+npK8ruk7dkaqXYAAJpHElCsvQEA5hdz6mRedSPoLsl3NeBEXPQIGIkoeDwez7ioZMxVWABVgff2DIiTMeiNoJjVV6vQ5UDUX1oCh5UTdSL1DkBnSYaI+BCgVltVubLQrdaMzobRU5IbBc5yYPsbkrbF4/FMHsT+zFCBD3UPyBeTtmW8LJ2tO6lwDfakR43gQ50lGUrapm2RegcARiboYR8WBLA/6xlI2p6J0F2Wy4HzjGKembQdHo9n8iBqfmacV3t2TRoGMyxD2c8sSPn0/LJ8K2l7xsOkcAAAqsPMdZIdL3ygkNV3JG3PRMiXZRHCUoMI6+xqj8fzFEKFp8VeLCydbE3IClk9QeAUsyDl39WKkyOEhjBpHIAFF8nDopyOPRwOwuV956rd02skFfoMq3dOWn2PxzM5qDVPmx53fTPpH+07mkU53R9huQNRqsJpCy6Sh5O2abxMGgcAoHup3CTwKbMgZYY2szIMtTVpm8anrgpNhAYRjyRtg8fjmRwIohB/SukwnD9ZOrCGobYGykqUGWZhyiU9Zbk5aZsmwqRyAAAGB5kH3GWVo8qhbasnRz5AX5YiI9GPmMZyf9I2eDyeScW/Yq9UTi/mTEeWDaNtNctwUPInyp1DQ5Mn9L+RSecAhMtlMFLeBww7EDert0Pt5z51pJDTohrnUIvwj6Tt8Hg8kwjh76b1yrmFnKb6KKCQ0/cDZzgQNVxV3hsul8GkbZook84BAJg/ID8X5eMuZAlcuqhTD0naprHozen5qN2rVOHWpG3xeDyTiMjBYDKlqzenzgYJuaQ3py9EudiFLBHC+UvljqRtisOkdAAABmewELA3mBBag4gv9OZ1WtI2jaY3q52iDgYiAZFyU9L2eDyeyUMU8DUXckT5aDGnC5K2ZzSFbt0xiFgBtDsQ98N977PPDEiKSesAhKFEUuU07GODAZ7NBq5IS+JKIatZwd4CucbP5pfl3qRt8ng8k4f5JblbBCdvtapcUMhqNmmboJZQvYFPq+BiQNxjkXDKiSulmrRdcZm0DgCMDM7B0cAKUd7Zl3M2/CI2xayeBvS7kqeYqgc8Hs9TlGikDbsr+gs5TXw0ezFHJ+CkD4zAnMky4GgrNkx+Cln9MnC8A1HDqrwhqd7VxayeqnAFrhwz4Uf5krw6CVs8Hs/kpzerPxF4uSNxEcIZ+ZJclYQtxZwepsptgIvJsF/Kl+WdSdjhkkkdAdhItJ7TEO5xIKpZhC8WZ+sBjbahmNV3KVyOu89kQ1RlTqPt8Hg82w8izMFNxRVAgHJZb07f3Wg7FuX0Wap8ETeb/93ReifVA4mzXTgA8y+RVVGVmS7G5wK7aoYbS1md3ij9C1l9h47MOrAOoXgCEbona2aqx+NJB/mS/Eyhx6HIjCifaWQ79lJWp2cibgR2MQtT1gnMnH+JxG6UlCa2CwcAYP5SuUMCOhyJO2gDrAhDbaq33r1ZfTNwHeDsWgrLuksyKZoceTyedNNTln6ECx2KbAKuK3boW+qtexhq03pY6SjpDxFmd5fll/XWu1FsNw4AQHdJlit82pG4N7atcdB2eCv05fQNolwPtDgU+5l105NPZvR4PNsP3SXmgJN++RtpUeGLxTl6bD31blvFgIPRxhu5drJNONwW25UDALBuOmeh/MqJMOX0QofW5Ry9mNVXR8qXEVzOI7h+v/s5PQwlqofOHo/nqYkgOjSds4BrHYpt0YDrF2X18HroXMhqFsFV5cHvhgaZVQ89k2S7qALYlEU5fVag/AJw0dynqsLbe0pyoyv9Cp36CiJuBXZ0JVOVL6+bwYlhKBVXMj0ej2c0K2b+f3t3G1tnWQZw/H+12+IwuKII8jIFIxqIIXwwJCQG0G0IyJARN40YRTEOImztXnq24YcmCltbtrYbhLhIokiMQYkyogMGzvqCOmNUEhDFSBQw4pzuRdpt7TmXH8YAkS3deq/ntP3/PrbnXM91Px96333u576ubH7mVO4h+HjBsC9GcFl7T/ykVMCutrw0kwcos7W6p9rM+avWxlMFx9wQJuQCAKBzcV5J8L1CY9zTlLx/eV88PtpAXa15XsKjlG3R+9D0Kh9ZtCH2FYwpSf/nK5/PqbuO476EuQXD7qolc1b2xa9GG+i2m/KcajOPUeYfwIxkfntf3FdwrA1jwm0BHFTpi02Z9BYKd3wtuP+WxXnyaIJ0L85zEx6h4OSf8PBgC1c5+UsaCws3xtBACwuSoj1GZjQFm7sX57mjCdK1PN9WbeYHlJn8IVk3USd/mMALAIATBqkAPysU7owpwYNH2zOgszXPrgVbKHEU5RX9eweY19ERJY4/StKIdHTE3r0DzAP6C4Z9Sy3Y0tmaZx/Nl9dUckYOsRl4R6F8ftoyyMqC42s4E3oBsHBjDDU3cxVQqlzjebGPzd3L8o1H8qXVbfkuDvznf1KxwSW/YBpzx2MLSknjX8fGGBgc4HJKNGV7xUnA1luX5hEd21vXltNjH5uA8wrl8Zfh5KMLN0apIkgNaUIvAACWrY1/NleZC+wqFPKCWpVvjbRGwNolObPpQPnJUwsO67e1/Vxe6Yo9pe+XJI1Ux8YYmF5lbsCo9+5f5eTmKlu6b8wzR/Lhe+dn81ByD3BhoevvaUquvLkvXih+wxrMhF8AACzbEE/GgbdWy3RtSq6YvpOvdXTkYe/furY8bbjGVuCMgsN5vDrE7IlSiUrS+LZoQ+yeCpcAJQvknF6bwo9uW5qHfZyfZPz5NDZSqMEPUMvgmhIvfI8Hk2IBANDeEw9GsLxgyGuO28n6Q/2ye1metP/ASzIl+wr8MabyoVV3xI5jdqMk6Qi19cbOapVLgScKhn17tcqWW1rzlEN9oGsx3QGfLXXBCJaUPPLd6CbNAgCgvSd6Au4sFS/hC52tefNrf37b0jyxNsyjkZxTMP0/McwH2rvj72NysyTpCKzaENuHk1mRlDwvf9YU2Pp6J7C6FucXCZYWu1Jw12QroT6pFgAAAy0seukoXilffnW1wDWVnFGtshl4b8Fr/LUGcyq3x9/G7EZJ0hG6uS9eyBpzCnVnPeg9U4KH1rXly8en1yzOhRl8qeA1+gdnFKsaOG5M2EJAh7P6hjyheRqPlWoQAVQJrhtOHm6G7xbsnw3wXC24aGVPlDrJIEnH1Oq2fGdT0g+cXjDsNoaZx1TmkNxFoe6pkTw1NbigrTd21uNe1dOkXAAAdN+YZ9am8EvgrfXO5TD+AVxc6Y3f1zsRSToSXYvyrGyiHzhl1MGOnR1R44L29fF0vROph0m3BXDQ8tvjmQjmA41aQW97Bh908pc0HrWvj6czmANsr3cuh7Avk6sn6+QPk3gBANDeE/0kC4BGa6Czq1bjshU9UfKNWkkaUyt64ommZDbwr3rn8hpV4JMr+qJkEaNxZ1IvAODlngHXAVnvXDiQxG6CS1auj1/XOxdJGq3lffF4rYnZBI1SuyQDrq/0xnfqnUi9TfoFAMCKvribbIiazwMkcys9sa3eiUhSKSvXxW+akg8D/6l3LiSV9t74ar3TaAQuAF5S6YtOgu46pjBYg7mT/ZGUpIlpeW/8PJPLgBfrlkTQWemLev6dbyiT9hTA60kyulrZCHxujC+9P+HqFb3x/XrfA0k6ljoX5xxgE8EbxvK6CXdXerk2iIbY7m0EPgF4lSDyzOe5HhjLvaEhkvlO/pImg0pfbIkm5jG2J7A27W3hOif//+UC4DUWfDuqgy1ckwfq+B9r1Qw+VemLTfUetySNlfaeeBD4BGNxAivZOtjCxzo6otFOe9WdWwCH0Nmex7OfHwLvO0aXqGXy6RV9cU+9xypJ9bCmLRdE8k0KVfV7Hb+bBhdPxip/I+ETgEOodMWe6hCXFu5zfdCwk7+kyW5FT9wLfIZj8yRgW3WIWU7+h+YC4DBW3RE7chqzKPtOwI5MrnDylySo9MY3IpgLlGxzfu/gfmbZOv3w3AIYoa7WvDahGzjxaGME3N/cxE1L18Wz9R6PJDWStUty5nCN24ErRxFmO8HySk98vd7jGQ9cAByBNZWcEfu4MeGGgNNG+LVawiNNwa3tPdFf7zFIUiNb3ZoXB6wMmM0In1InPB9w5/QqGxZtiN31HsN44QLgKHR0ZNP03VzEgb7X55O8G3gzcBzBTpJnSZ7M4MdR5YHKhniu3jlL0niydknOHE7mklwInE0wk6QFGAD+TfAHkm00sWXwTfR3dESt3jlLkiRJkiRJkiRJkiRJkiRJkiRJkiRJkiRJkiRJkiRJkiRJkiRJkiRJkiRJkiRJkiRJkiRJkiRJkiRJkiRJkiRJkiRJkiRJkiRJkiRJkiRJkiRJkiRJkiRJkiRJkiRJkiRJkiRJkiRJkiRJkiRJkiRJkiRJkiRJkiRJkiRJkiRJkiRJkiRJkiRJkiRJkiRJkiRJkiRJkiRJkiRJkiRJkiRJkiRJkiRJkiRJkiRJkiRJkiRJkiRJkiRJkiRJkiRJkiRJkiRJkiRJkiRJkiRJkiRJkiRJkiRJkiRJkiRJ0rH3XwoGVRK9L55iAAAAJXRFWHRkYXRlOmNyZWF0ZQAyMDE5LTA2LTAzVDE0OjUzOjI4KzAyOjAwfBO/3gAAACV0RVh0ZGF0ZTptb2RpZnkAMjAxOS0wNi0wM1QxNDo1MzoyOCswMjowMA1OB2IAAAAZdEVYdFNvZnR3YXJlAHd3dy5pbmtzY2FwZS5vcmeb7jwaAAAAAElFTkSuQmCC;fontFamily=Comic Sans MS;fontSize=17;fontColor=#000000;" parent="7312b7dc-07d3-11eb-b423-c9350188184f" vertex="1" >
          <mxGeometry x="115" y="80" width="70" height="80" as="geometry" />
        </mxCell>
      </object>
      
      
      <mxCell id="7312b806-07d3-11eb-b423-c9350188184f" value="" style="group" vertex="1" connectable="0" parent="1">
        <mxGeometry x="370" y="12.5" width="300" height="215" as="geometry" />
      </mxCell>
      <mxCell id="7312b807-07d3-11eb-b423-c9350188184f" value="" style="rounded=1;whiteSpace=wrap;html=1;fillColor=#D5DDE5;strokeColor=#EBEBEB;fontColor=#D5DDE5;" parent="7312b806-07d3-11eb-b423-c9350188184f" vertex="1">
        <mxGeometry width="300" height="215" as="geometry" />
      </mxCell>
      <object label="" id="7312b808-07d3-11eb-b423-c9350188184f" Type="label">
        <mxCell style="group;fontFamily=Comic Sans MS;fontColor=#FFF11F;" parent="7312b806-07d3-11eb-b423-c9350188184f" vertex="1" connectable="0">
          <mxGeometry width="300" height="60" as="geometry" />
        </mxCell>
      </object>
      <object label="Edge"   Type="Tier" id="7312b809-07d3-11eb-b423-c9350188184f">
        <mxCell style="rounded=1;whiteSpace=wrap;html=1;arcSize=0;fillColor=#195190FF;strokeColor=#6c8ebf;fontFamily=Comic Sans MS;fontSize=22;fontColor=#FFFFFF;" parent="7312b808-07d3-11eb-b423-c9350188184f" vertex="1">
          <mxGeometry width="300" height="60" as="geometry" />
        </mxCell>
      </object>
      
      <object label="Polaris" Type="EdgeNode" id="7312b80a-07d3-11eb-b423-c9350188184f" Tier="7312b809-07d3-11eb-b423-c9350188184f">
        <mxCell style="shape=image;verticalLabelPosition=bottom;labelBackgroundColor=none;verticalAlign=top;aspect=fixed;image=data:image/png,iVBORw0KGgoAAAANSUhEUgAAAgAAAAIACAMAAADDpiTIAAAABGdBTUEAALGPC/xhBQAAACBjSFJNAAB6JgAAgIQAAPoAAACA6AAAdTAAAOpgAAA6mAAAF3CculE8AAACglBMVEUAAAAk3ckk3skj3sgm4csk3sgu6NEk4Mcl3soj4Mck3sgk3skk3sgj3skk3sgi3ckj38gk3sgk3sgk3scj3sci3cgl3ckk3sgk3sgk3sgl3cka5swA//8i3cgl3sgk3sgk3sgk3sgk3scA/6ozzMwj3skk3sgk3sgl38gk27Yk3sgk3sgj3sgk3ccr1dUk38ck3cgk3sgk3sgn4sQl3cgk3skp4Mwk3sgk3sgl3clAv78k3cck3sgk3sgj3sgj3MUk3sgk3sgk28Io38ck3sgj3MYk28ok3cgk3sgl38oh3sgk3sgi3cYn4Mkj3sgk3sgj3sgk38kh3sgk38kl3sgj3sgj38gj3Mgn2MQl3cck3scl3cgk3sgk3sgg38ok4cgk38Yk3skk38gk3sgj3Mkk3sgl3sck38kk3skj4Mgl38kn3ssm38Yl3cgk28gj3Mok3sgA//8j3cgk3skk38gk3sgc48Yi3cok3sgj38gk38gj3Msl38gk3sck3skk3sgg378k3sgl3sck3sgk3sgr1b8k28gk4MYk38gj3Mci3cgl4Mck3sgk38ck38kk3sgj38ck3cgo5Mkl3sgk3sgl38kg388k3sgk3skk3sgk3sgk3skk38ge4cMm3ccm3skk3sgk4Mkl3sgk3ckj3MYk3sgj3sck3sgl3skk38gk3sci3cwi3ckl38ck3cck38gk3sgk3cgj38gk3sgk38gk3sgj3sgl3scl3sgj3cgr48Yk3sgi3col3sgj3ccm3sYj38km2cwi3cwm3skk3sgk3cgk3sgk3sck3cgl38ck3sgl38kk3sgk38cl38ck3sgh3sUk28Uk3sck3sgk3sgAAAC8ZJROAAAA1HRSTlMAiFW7Iu4LMj5JsI3SbPQmZpXi4WUlWqLjoVkKAjyZ8vaqTQMFXtfdbwdr4N9pBkDV2kYap6QZ7exLBID9/pEWx8YVINkkK+TnMC7vLSHm5djcF8XRiq0zDa6zU1TrGCo/zjjIQvx8f+pBZycoYRwd1gGfm8zxCTWjpp0stVZjlAjwvKy4DA4x1DtKKcR3lvVXgRNF83YQ3vhd+6l+EUQvqznDcTq/e7qScNMeNDdbnve+WMlPwYLKfZASmkOLiTZfFA896GKonM1gXGjPpW7bHyNkuRpCwcEAAAABYktHRACIBR1IAAAACXBIWXMAAA7EAAAOxAGVKw4bAAAAB3RJTUUH4wYDEDY2m3E+XgAAD29JREFUeNrt3fljFOUZwPElB4YciKCAiq2SKBBSpK0oxmwElfsIihqL4ZCKCqYFrAZRUEJBEUTxKLSCiGi9q9RabYvWgldr73b+oCYmNMn7zmRmd+edZzPP9/vrzuTdd54PYbPZ3WQyMg3zjIaFnlJinlIaekqZeUp5+D0rN88pCz2l1DylxMX+0xUAAAAAAAAAAAAAAAAAAAAAhJ4CgDQFAAAAAAAAAAAAAAAAAAAAAKGnACBNAQAAAAAAAAAAAAAAAAAAAEDoKQBIUwAAAAAAAAAAAAAAAAAAAAAQegoA0hQAAAAAAAAAAAAAAAAAAAAAhJ4CgDQFAAAAAAAAAAAAAAAAAAAgNQCGl51VMaIktErzAlSGnlJlnlIdekqNecrI8Hs20jynJvSUavOUKhf7LxlRcVbZcOn5DtbZo84pHe2R08aUnnPuedKT9mn42HHjpa+Nnkaff8GF0hPv34SLvvVt6WuirYsvmVgrPffe6i69TPpq6GzS5CnSs+9qSv1U6Quht4bvTJOe/+XTpS+C7r77PdHxf/8K6QtAM66Um//Eq6R3T54382qh8Tde0yS9d+ou2yzySODaWdIbpzPNvi75+V9/g/Suqa9Jc5Ke/9x50num/s1fkOz8Fy6S3jENrHxxkvNfslR6v2TWsiS5+V+3THq3ZHfjTUnNv47H/0XZ8rqEAFQNfj9abp5dSg6aXR3yP+8tycx/YjbwHpTfWtN6W0IMVXZba80Pgh9/ZxN5TvDKoOd/m1bcXgy/nkx9U9pWBD0Fu3JVAutfETD+caulr4ye5s4IIDDD/dpr/P8DuGOt9EXR1Vk/9Bdwp+uFp/j+BLjurmJ5eZKaau9e5zeJ6a5/L1Tvt+o9a6Qvh8bWz/SbxQa3i9Y1+Kw59V7pa6Gz9jE+w5jU6HTNH/nN/8fSV0JrG/0EXOpyxQk3+Hz/59+/WO0r7Xls2uxwwfU+j//WSF8Fza33eSRY4XC9++zl7pK+Brq7xp7IT9ytNtx+/8/9/PwnWu0d1kge6HC22lhrsaYt0ldAe2vt5wTD35yeb+OstR6U3j9ttYbykLO1rPf/Zh+W3j6ttr4FTHW11NmWtRXSu6dMZps1lvDPNMmvUdZKt0tvnjKZ7dZYHnG00qPmQuX8/r8I2tFpzqXZ0Uo7zYV+Kr136s76vKFdjhayHgPWS2+duptszqXBzTq7rZeCtEpvnbrbYj074+apoDnWD4G8/rMoesx6FHi9k3UeN5dpkd459TTfnMxCJ8tUmMtUS2+cetpjTuYJJ8vsNZdZLr1x6sl6p9YIJ8u0mcvslN449WT9fN7mZJk8PqyZEimPD6vOJwAUawBQHgCUBwDlAUB5AFBe8QJoLKOCC3+vV/ECKPOo4Jz80SoADJ0AoDwAKA8AygOA8gCgPAAoDwDKA4DyAKA8ACgPAMoDgPIAoDwAKC9VALKLKKRsqgEscnLPUtUiAOgOAMoDgPIAoDwAKA8AygOA8pIGMCxylQBIojgAVEafasbLPwC4KA4AOQSAYgsAygOA8gCgPAAoDwDKA4DyAKA8ACgPAMoDgPIAoDwAKA8AygOA8pIGwAtCiqykXxASPV4Slki8JlB5AFAeAJQHAOUBQHkAUB4AlAcAu30bmndVTyofv+zJh/ZXTHGyueIJAEZrn1o64Es8veLADif7K5IA0L/asdWeXfkzzzrZYVEEgH49t8zz7/mf1TnZYxEEgP93cKsX3PRWJ5uUDwBn2nLIG6yf1zjZpXgA6G3ixV5I50xwsk/hANDTL14Im7/nHQ7/q6pDLwB808QI8/e8Bzc72aloAOhuS+j3/56OONmpaADo6uDgj//6anrOyVYlA0BXg/38N7D5LzrZq2AAyGSORp5/148CTvYqGAAytUHP//m17iUnm5ULAJmxOczf84452axcAMj4/f4nuKZ2J7sVCwAv5zR/z7vFyW7FAsBTflM+/kpF+8tjt/o9PdBS62S7UqkHsHmpZ7Vsfe+NGw/7CHjVyXalUg9gnz3hXx7su/k1++bXnGxXKvUANtj//g/2v93+H+J1J9uVSj2AN6wB3zng9o7R5u3znGxXKvUAdpnnHDcOeNM8ILvbyX6FUg/gLfOcV4wD3rb+tua9TvYrlHoAU81z1phHrDSPeMfJfoVKGkBJ5KqSAWCNd595xB7ziMsTnZDj4gBQFX2qxfcZQfPMc34VesRa6aHFmfoPibrMPOdd44Dd1qvF5koPLc7UA3jSPGerccDt1h25SXpocaYewHvmOSfeHnjAr80DOqVnFmvqAey31jk84Pb3rdt/Iz2zWFMPoMJeqP+T/a0jrZubpWcWa+oBTHnaXumpC8/c+r49f+8D6ZnFmnoAmRU+S817s/uBwO623/rcduIx6ZnFGgAO+K92T/U8/3cLHY7wNYdQAOgoz+1u7JUeWbwBIPNhTvdiesreIwyAzLPP53IvDkhPLOYA4PdUQHAfpewbAAC6arw58n1Y97j0wOIOAF0tPBH1PvxOel6xB4DuaqLehbT9B5A8gNLIWe/YcvkJIb+PdO+n/0F6XPEXB4Dq6FPN4Z4l+hExE/zeAWI2eqPIiNym/jWBvdWeDJ3/prcjf7UhFAB623ykafD5l6bw+38GAP36eP4g43/hSPoe/30TAPo62LwuaP73b3GyxyIIAP176Zjv/wPVB1L4AYG9AWBg7Z+0GF/jxOG96R0/AOxqX33t9TNvBej8qPmDdL3+wwoAvu0+u/XjtXNXOdlYcQUA5QFAeQBQHgCUBwDlAUB5AFAeAJQHAOUBQHkAUB4AlAcA5QFAeQBQHgCUB4Cg1h4buh0FQOEArPWHUKMAAAAAAAAAAAAAAAAAAAAAoFgAlEWuHgBDBUB99KkW6WcEAaAvlR8SBYC+AAAAAAAAAAAAwNANAL0BAAAAAEB+LRk1dGsHQOEAlAQA5QFAeQBQHgCUBwDlAUB5SQMoj5z1Z5sB4KI4AIyMPtUc7pn0S8KUxGsClQcA5QFAeQBQHgCUBwDlAUB5AAhq8R+LtTnmXX3XPOJTABQOoHhfEmZ9AMwx84hR0bcJgMjrF00ACAoAAAAAAAAAAABEDgCR1y+aABAUAAAAAAAAAAAAiBwAIq9fNAEgKAAAAAAAAAAAABA5AATFC0KUA1ASAJQHAOUBQHkAUB4AlAcA5QFAeUkD4CNiiqykPyLGyz8AuIhPCVMeAJQHAOUBQHkAUB4AlAeAoOL4kzF/sr6qdcg0weF3B4Cg4nhJmL2+dciLktPPACA4AAQFAAAAAAAAAAAAAAAAAAAAADkAKItcPQCSKA4A9dGnWsgAAOAiXhMYeX0A9AYAAAAAAAAAAAAAAAAApBXA2mOFd5/1Va1Dhju5eNEDgPIAoDwAKA8AygOA8gCgPAAoDwDKA4DyAKA8ACgPAMoDgPIAoDwAKA8AygOA8gCgPAAoDwDKA4DyAKA8ACgPAMoDgPKSBlAauWoAJFEcAKqjT3UIfUaQkviQKOUBQHkAUB4AlAcA5QFAeQBQHgCUBwDlAUB5AFAeAJQHAOUBQHkAUF7SAEoiVwWAJIoDQFX0qeZwz3hJWCLxmkDlAUB5AFAeAJQHAOUBQHkAMNto/rXTaeYRq8wjrD/7cso84rR5xGnziFPmEcPNI1aZR0wzj9iYx3YBYHbI/CKt5hE7Qy/ASfOI/eYR+80jTobuf6d5RKt5xKE8tgsAMwCEBQAAAAAAAAAAAAAAAAAAAAB5rBseAAAAAAAAAAAAAAAAAAAAAISeAoDcA4AZAMICAAAAAAAAAAAAAAAAAAAAgDzWDQ8AAAAAAACQMgDDIlcJgKECoDL6VIfAZwQBIGcAOQQAAAAAAAAAAAAAAAAAAAAAAABAcQFQFgCUBwDlAUB5AFAeAJQHAOUBQHlJAyj+F4QoK+kXhESPD4tOJF4TqDwAKA8AygOA8gCgPAAoDwDKSzeA7CIKKZtqAJR7AFAeAJQHAOUBQHkAUB4AlAcA5QFAeQBQHgCUBwDlAUB5AFAeAJQHAOUNZQCNZVRwjUMYACUSAJQHAOUBQHkAUB4AlAcA5SUEoM1cZmfhX5PiyPqo3DYny+w1l1kuvXHqaZY5mRFOlvnMXKZaeuPU0x5zMk84WWaBucxS6Y1TT5+bk1noZJk55jLeY9I7p+5OW4O53sk6w633rb4jvXXq7lNzLk0dbhYaby5UI7116m6yOZcGRwtZP23cKr116s76BM9djhZ61Fxo0RTpvVMm0/GAOZdmRyuNsh5suHnCgXJquzWWLxytdJ610grpzVMms80ayxJXS40xV8o+LL17Wt1kTmWqs7XOt6zNkN4+fWkN5Stna11grdX0qfT+tfey9Q3A4SOzjk5rsT/XSl8B3dXeYY2k09HTQN29Z63mHZG+BLr70J7IycK/amCX28utWy99DTR31P4PwPvM4XoTltnrrWyXvgp6W32VPY/pm12u+Bd7QW/MRunroLWNo33G8bXTJesO+SzZslj6Suhs3xifYUwKfydZQf3VZ01vJY8DBDp6ld8sznW86rRNfquuu5ufBhOu8Zkmv0m8Ved64Yqs37re316VviK6av3IdwzZBL4X/913Za9pK78XSKzFX/r/M/TOT2DxVTP91/ay27bvkL4yGtqxfVvA+L17bkriDlwdtLzndVb+YwuvFHXY6S2TKx8IvPxNbt4PYPWJN2jz35pVSg6atWf+4Fc+lz8EXEh1sz0qwo47fgqgr1OXSe+V7P55bVLzD3gOkkRrcfNukIAWlkvvlwZWnvDz8XPHF36fKb6WLkh2/pnMv5YVfq8prm78d9Lzz2SuWy69azrT8VPJzz+TabymqfC7ToWXbXb+G6CAjn4uvXfyvJV7hcbf1apx2cI3QAV1SSLP/wdWsafwLVD+3XBUdPxd1W04VPg2KL9u/I/U//79a7x0U+Fbodzb9HViT/6H1do8s/D9UC51jjvq9PXfudZR8lCD9DXR06Gv2nZIT9ynskfe+G8DPxY4ralhV/MXzt7/H0cdZQsuGlESmvW5NpWhp1SZp1SHnlJjnjIy/J6NNM+pCT2l2jylysX+S0Zc9FLZDun5xtUw8wKEv5oljj9aVR5+z6zfczr5o0157D9dAQAAAAAAAAAAAAAAAAAAAEDoKQBIUwAAAAAAAAAAAAAAAAAAAAAQegoA0hQAAAAAAAAAAAAAAAAAAAAAhJ4CgDQFAAAAAAAAAAAAAAAAAAAAAKGnACBNAQAAAAAAAAAAAAAAAAAAAEDoKQBIUwAAAAAAAAAAAAAAAAAAAKQA/A+9kvstYZZy7QAAACV0RVh0ZGF0ZTpjcmVhdGUAMjAxOS0wNi0wM1QxNDo1NDo1NCswMjowMFOqx8oAAAAldEVYdGRhdGU6bW9kaWZ5ADIwMTktMDYtMDNUMTQ6NTQ6NTQrMDI6MDAi9392AAAAGXRFWHRTb2Z0d2FyZQB3d3cuaW5rc2NhcGUub3Jnm+48GgAAAABJRU5ErkJggg==;fontFamily=Comic Sans MS;fontSize=17;fontColor=#000000;" parent="7312b806-07d3-11eb-b423-c9350188184f" vertex="1" >
          <mxGeometry x="115" y="80" width="70" height="80" as="geometry" />
        </mxCell>
      </object>
      
      
      <mxCell id="7312b831-07d3-11eb-b423-c9350188184f" value="" style="group" vertex="1" connectable="0" parent="1">
        <mxGeometry x="720" y="12.5" width="300" height="215" as="geometry" />
      </mxCell>
      <mxCell id="7312b832-07d3-11eb-b423-c9350188184f" value="" style="rounded=1;whiteSpace=wrap;html=1;fillColor=#D5DDE5;strokeColor=#EBEBEB;fontColor=#D5DDE5;" parent="7312b831-07d3-11eb-b423-c9350188184f" vertex="1">
        <mxGeometry width="300" height="215" as="geometry" />
      </mxCell>
      <object label="" id="7312b833-07d3-11eb-b423-c9350188184f" Type="label">
        <mxCell style="group;fontFamily=Comic Sans MS;fontColor=#FFF11F;" parent="7312b831-07d3-11eb-b423-c9350188184f" vertex="1" connectable="0">
          <mxGeometry width="300" height="60" as="geometry" />
        </mxCell>
      </object>
      <object label="Network"   Type="Tier" id="7312b834-07d3-11eb-b423-c9350188184f">
        <mxCell style="rounded=1;whiteSpace=wrap;html=1;arcSize=0;fillColor=#195190FF;strokeColor=#6c8ebf;fontFamily=Comic Sans MS;fontSize=22;fontColor=#FFFFFF;" parent="7312b833-07d3-11eb-b423-c9350188184f" vertex="1">
          <mxGeometry width="300" height="60" as="geometry" />
        </mxCell>
      </object>
      
      <object label="Twilio" Type="NetworkNode" id="7312b835-07d3-11eb-b423-c9350188184f" Tier="7312b834-07d3-11eb-b423-c9350188184f">
        <mxCell style="shape=image;verticalLabelPosition=bottom;labelBackgroundColor=none;verticalAlign=top;aspect=fixed;image=data:image/png,iVBORw0KGgoAAAANSUhEUgAAAgAAAAIACAYAAAD0eNT6AAAABGdBTUEAALGPC/xhBQAAACBjSFJNAAB6JgAAgIQAAPoAAACA6AAAdTAAAOpgAAA6mAAAF3CculE8AAAABmJLR0QAAAAAAAD5Q7t/AAAACXBIWXMAAA7EAAAOxAGVKw4bAAAAB3RJTUUH5AYEDysIMtSjpQAAZ8FJREFUeNrt3XecXFX5P/DPc2Z2U7dM2w2RLhAVCwJ+7QqoWMD6NSBS7KhogC0J8LWNlZLdTTCKihWwQfRnoygi2Ct2UIpKNWR32pbU3bn3+f2RDQSyZWanPPfOft6vl6+XSWbv+Zy7zJxnzj33XEFYrdRI24FDBzpfDhOVJ8LhMECSUG0D0AJgKSBLAG0DsHXyf1sADKtii4gOC3CXAnep799ZKI7dhQ2H7rTuFlG1xM7L749i8fDd7w9VrBBIAtAlAGIAlky+dCuAAiBbFZoVwV1Q3KnQO0Qjt+UHEg9Y94WoalbdvSAWbTlMnFshwGG+YAV8aRPBUgDtAJZi13tjCSAjgO4eO8YgMgJodvf7w/f1zpEHO+7DRvGsuzUXYh2gVB3nDHZONLljxcdxEH22QA5VYEEVm/AA3AfgVgVuiShuzg6k7rLuN1GpOns3d4xr5CWiOBaCYwEcXI3jCvBvBW5R4OaJ8eJNWzbsk7HuK1GpkmsyK7yiHCcOx0L1KAAHAnDVOr4AOxVyF6C/UcEtTRP+LUOXdg5a97vE7AG1UiOx/TPHQ/EKETkWwOEGKR5U0ZuhcmN0u34vc1nHFuvTQrSnA9P3LBzZsvQlAjkdqq8B0FTjJj0At4jKVVFX/PZg37Kt1ueAaE/JNZkW9eQ1ED1eFccBWF7nCArgHwq5WeBdl7+/46agzhAErgCI9+SeJOqdoSJvArDMOs8etkPkWoVeVViavAFpKVoHovlr1/S+3yvQNwFoNYoxApUrAOnjZQIylVYXG8s8RyCnA3gjdk3jB8VDUNnoInpFdm3qT9Zh9hSIAmB5etPinVua36qqbwfwNOs8JXhQIVdGnb8hs7Zjs3UYmj/aejcfFPGj50L0TAALrfNMmlDgmxHFx3jZjOopuSazXD1dpbsG/sdZ5ynBX0TlC4t0+5ceXLffduswpgVA6qyhpd4ivA2Q8wDsY30y5mBcgaujvn4ks67jX9ZhqHF19m5eUvTdB1SkB0DUOs80ilC5DBPygfyGxKh1GGpc7T2FA5x63RB9B4BF1nnKJYKMApf5xej64fWxYbMcFo22XDCaaJrYeQ4Uq7Br1WXYTQByVcT3L2QhQNUW6828UhSfBrCfdZYSPSQq5+cGkldaB6HGklyTWeF7egEgb0Tt17vUQx6CDV606dKRi9oL9W68zgWASqI7dzqc9qkiVe/O1sEEVD7jovr+7CWpMeswFG6tXSPxiBv/sgCvss4yFwp8129qeqvFBxs1luXpTYt3bGlaA8UFAJqt89RAAdAP51tSG5AWv16N1q0AaF89dITzcRkgz65Xm4b+Kyr/x29ANFeJnuwzFHo1gIOss1ToAaj/hvxA56+tg1A4xXozrxQfn4Jgf+ssdfBHgbw715/8Qz0aq3kBkDpraGlxkfuEQM8CEKlHpwJDcL1fLL5neP0+91pHofBI9A6drSp9aIwpTgCYEJHuXF/yU9ZBKDzaugYPjrjIZYC+1DpLnRWh+FST895f69tsa1oAxHtyTwK8qwF5ci3bCbhRiL4j39dxjXUQCjqVeG/2Q1B8yDpJjbr3yfxA4lxA1DoKBVuiJ/sahX4Ju3asnK/uVPFPKvR1/q1WDdSsAEh0Z89Q6GcgWFyrNkLm8vz48NncbpimtFIj8f2yn4HgHdZRaklFryyMpt6Oy2XCOgsF0Kq7F8SbYpdA9GzrKAGxA9Dz8/0dl9bi4FUvAJJrMi1axGdV8Mban5twUcWf/Ih/0sjazn9bZ6EASauLj2W/AeAk6yh1cnW+JfnGei52ouBr7ykc4FC8GsAzrbMEjQi+6rbpu6u9G23V9kMGgNTqoWW+h59z8J+aCI6M+O4PsdWDz7XOQsERH82tw/wZ/AHg5MRY9tPWISg4Er3ZZzoUbwUH/ymp4jRvEX6T6MpWdbOjqhUAbV2DBxd9+QWAI+p9ckImJp67MdY99ArrIGQv3pP58Hyc7lTgXfHuzAesc5C9WHfmRPX1ZgBJ6yzBJk9Wp79IrR46tGpHrMZBkj2Zo3zgegAdZucmfIoQfVe+r+OL1kHIRqwnc6oAX7XOYUkFpxT6Ut+0zkE2Ej3Z0xX6RTTOHS/1MOgcXlGN5wpUXAAkezPH+IrvA2ixPishpBB05/tS662DUH2lVg8d6vlyK+we5BMUWwTyjFx/8g7rIFRf8Z5MD4C1CMgzaUJm1PfxquF1qZ9VcpCKLgEkuzJHc/CviEAxEO/JvN06CNXPgel7Fvq+XA0O/gCwVIFr9u16IHT7udPcxXsyZwLoAwf/uWp1Dj9Irs4cWclB5lwAtK0efLzvcC04+FdKAHw20ZN9nXUQqo/R0ZaLFXi6dY7g0Kdsk4WfsE5B9ZHszrwKABeBVq5FFT9MrsmsmOsB5lR9Jddklvsefonwb1MaJNvV6UsLazt+YR2Eaie5OnOk7+P3mG+7Ys7O81WfMTzQ8WfrIFQ77V2ZFzqHHyI4j7JuBP9xHp6XXZ96qNwfLHsGIL4q1+p7uAEc/KttkfjyvXhX7nDrIFQjaXW+r58GB/+pRJzI55DWqt6aTMER69r8FOfwPXDwr7aD/QiuT501tLTcHyz7zSbN/mUAnmrd4wYVg/O/k1yT4WWVBhQfy74dkGdZ5wiwZ8S3ZN5iHYKqL3XW0FJxkWsAtFlnaVBHeIvkC+X+UFkFQKwn8y4FTrXuaYM71PdwuXUIqrJVdy8A8EHrGIGnkkZaG/Fxr/Oav1g+A+AJ1jka3MnlLigvuQCIdW1+igAD1j2cJ94Q7x56q3UIqp5YU/ubAVR1F68GtW98LHuGdQiqnlh35p2qOM06xzyxoX310BGlvrikRYCps4aWeovkD2AFV087fPWfNTzQ+VfrIFShlRqJ7Z+9Q4BDrKOExH/yLckVSEvROghVJtabf7Ko93sAvM2zfu52ERyVvSQ1NtsLS5oB8BfhYnDwr7eFAvclrFQuGAu52AHZlRz8y3JwfEuGt8WG3UqNiHpXgYN/vR3qF+Vjpbxw1gIg2ZM5SiHvtO7RfCSCIxMH5N5tnYMqI75yYVvZ5E3WCagy8f2zZ4PPhrEh+p727qFZ9xqZ+RLArseU/hp8QpOlURfBE7OXpDZZB6HyTe6ZcT9461+5ihGn+2XWdmy2DkLlS60eWub5cge46t/SH/ItyWfN9NjtGWcAYmO5d4GDv7VW9XGxdQiaG8+T08DBfy6inid8rHhIeb6sBwd/a8+Ib8m+baYXTFsALF31UEqgJV1HoNpSxantPUMvsM5B5RPo660zhJboSusIVL5Ed/ZFAE62zkEAVC9s7RqJT/fP0xYAC5oj3QBi1vkJACARkY9Yh6DytJ9baAdQ0cM65jc5Or4qxwcmhYxCP2ydgXaTRDQyfu50/zplARA7L9+mkHdZR6dHqOKFsdVDz7fOQaWLRL0XgtP/lYhqk8+ZrxBJdmeOheC51jloD4qzJ7+M7GXKAkAmvLMBtIMCRVT+zzoDlU4Vx1pnCDtxPIdh4gveZ52B9tIWiXpT3k22VwHQ2bt5iTissk5MU1C8LNGTfYZ1DCqVPsc6Qegpv02GRaIr+z8AXmSdg/am6vdM9bCgvQqACY2cqYqUdWCamsI/3zoDlWzOz+mmh/EchoQvyhnKwJKEtwh73REwxSUA5R70gSav6jhnsNM6Bc0suSazHAAXsFWunf+9B1/HOYOdIjjBOgfNRN7x2L95VAGQ7MocDciTrWPSjKLFqLzBOgTNoshvrtUyHhWey4ArRt1pAKLWOWhGhz/2QUGPKgA8J3wKVyjI6dYJaGY+9CDrDI0iojjYOgPNip9JIeD00WPHIwVAWqMCPck6IJXkqFjX5qdYh6AZiHAXtGpxvJQSZJPfKp9mnYNKoDgNaX14pubhAiA5mn0FAF5rCwkn7lTrDDSjFusADUNZAASZ8+U06wxUso7YaOb43X94uADwuYAjVJS/r6BbWvkhaBdhMRVsJ1oHoDIIXrH7/z5cAChwnHUuKoccnlo9tMw6BU1NoYutMzQKH7rEOgNNbfJuFy7SDBEReXisdwAQ787tJ8Ah1sGoLFJUOcY6BE1NVCasMzQKEdlpnYGm5hWFXxzDRvHERFf2ccBkASCi/CWGkHCr2cBSkW3WGRqG8lwGlQg/g8LId3oMMFkAKHz+EkOIl22Cy6nPQatKRMBzGVz8DAqh3V8eJ9cACPcsDyEBDuEuacGkToasMzQK9f1B6wy0t13X//VA6xw0B4LnAYBDWpsBcNOSkBp37gnWGWgK6t9vHaFRiHM8lwGkvvCzJ7wejzO1ycXH8oeAWziGlnNcgRtE4kU4aFWJ+MpzGUC+z8+eEIsm27MHOxHlLzHMhG/CIGppH7sHAO8EqNx4tjV5r3UI2pvwsyfciljhfOUvMdT4+wuke9MH7QDwD+scDeDvSMu4dQiaAr88hprnsMIJN3EINeXvL8Dkj9YJGgDPYVApDrOOQHMnKk9wgHIVeYgJsK91BpqG6G+tI4Qez2FwKbgTabg9zoEPLQm7hZ29m7lVahA5d4N1hNDzIzdZR6AprNQIBIusY1AFRBMOfGhJ6I1HmhPWGWhv+UsSD0LwT+sc4aW35QcSD1inoL3FDi4sBSDWOagCioQTzgCEXkQ9VuIBJYofWGcIK+W5CyxR5bgRfoudsgAIPc/3F1hnoKmp7660zhBaLvp16wg0NfGUM8fht8AB4PXjkHMaYQEQUPl1idsB/NU6R+gIbi30xW+zjkFTE58FQOgpmh0APmoz5Hzx+DsMMFH5vHWGsFHFF60z0PSKUS1aZ6AKCYoOwJh1DqpMVGS7dQaa3oLW8S8DmrPOER6aaxbvKusUNL2I73ZYZ6DKiGCnA5QFQMh5EmEBEGCb0su3qbjPWucIDZFPDfYt22odg6bngZ85YaeKHZwBaADFiSiflx5wRR1fD2DEOkcIDE80LdhgHYJmVhzfwc+c8Cs4AFusU9DcCbBzdF1rwToHzWysf3lWVNda5wg6hVw4dmErL5cE3JbEshz4sKuwyzhA8tYpaO4U2AyIWueg2S1oLa4D8F/rHIGluH+Jv53f/sMgLT6AzdYxqCIZpyL/sk5BFVA8aB2BSrMpvXybKt5lnSOoxMnZD67bj9eWw2OTdQCqyF3OKe60TkEVEHCr1BApDKSuBeRb1jkC6OpcX/J71iGoLPdZB6C5U+AuB58FQJgJ9HbrDFSeiPNXARi0zhEgm5vEO9s6BJWJz7kItQhwh/ObHQuAUHPcLS1kMms7NjvFKQA86ywB4IvI6YN9y4asg1CZVPnZE17qj7u7XeHi+Ai4mCO0nO/zTRhC2YHULQA+Yp3DmkA/kOtL8pG/ISSe4+xjeG3Kb0iMOgAQ4FbrNDQnhUxb6j/WIWhu8v3Jjyown3e8+2auP3WhdQiam9x/E3eBe1uEkgJ/BAA3+YefWgei8gnwy8nbcSiURAstybcD+Il1krr3XPCz/Pjwm3kLa4htFA/Ar61jUPkEejMwWQD4uusPFC6+4BfWGahCaRnXaOR/AfzOOkr96G90p3sVNhzKh1iFnIjwMyiE1PcfKQCGW1N/5cNKwkd8xzdfAyhcHB+JbNcXi+Bn1llqTvErjEdelt+QGLWOQpVT32v8/2Ybz1BhXedtwGQBMDmNzF9kuAzlH4j/wToEVUfmso4t4vBKQH5knaVmBNdHdigH/waSb+34LXhLa9jcsvvSm9v9N6pyo3UqKsv3J6/BUYPIXpIay9+fOEEhjbgd7uX5pclXZy7r4LNHGklafECut45BZRD98e7/+3AB4GnzRgF4TS4kVPU71hmoBjaKV+hPng3gnQAaYVvc7RCcme9PvRNpKVqHoeoTAXdwDI8dfrHp27v/8HABMLquLa/Q66zTUUnyhYmRebdyfD7J96cuF0+OAvA36ywV+IeK/6x8X+rz1kGodhZ5228EMGydg0og8oPh9bHh3X90j/o3uPl8T3JoKORrXEHd+HLrk/9c7O94lop8HMC4dZ4yjEPw0daWLUcV+jrDXMBQCR5ct992EXzDOgfNTn29cs8/P6oAyI0lrgOQtQ5JM1Pnf8k6A9XHg+v2217oS74fcE8Pw34dCtwinhyR70t98N70QTus81B9iOKL1hloZiLIFLYkH7XI+FEFAC6XCah83ToozeiPw2s7/mIdguor35/4R6E/dayIvAQSxJ075e9QPanQnzoutz7Jh8TMM9n+1B8F+LN1Dpqe+vgaLpeJPf/OPfZFniuuB8DFOgGlQL91BrKT60velO9L/o8KTgT0xwAsd9JTqN6oqifk+xNPyw90bLQ+P2THVxmwzkDTmvD94qWP/UuZ6pWx3qErROUM68S0l3vyLcnDuJqadov35J4E+EYPZXGH5/sT/7A+BxQQaY3Gx7L/AnCAdRR6LPlSvj/5tsf+rZvqpU7dhQC4x3zAiMgAB3/ak+UAzMGfHiUtRQjWW8egvXhO9eKp/mHKAiDXn7wDIt8GBcl/Fywd5+I/Igqs1qVbPgvgAesc9CjXZAdSd031D266n/B97+PgLEBgiOr7N6WXb7POQUQ0nXvTB+2Aato6Bz3MU4l8Yrp/nLYAGB7o/KsIPmedngBA/p57IMU9Gogo8PIPpK4A9DbrHARA5dOFvvi0vws3088Wo03vAzBk3Yd5T3V4330fbLaOQUQ0m9SBmRQgTdY5CJu1yX1wphfMWACMXNReEMga617Me4Lnb3MLf9jZu3mJdRQioul0nDPY6flyE4AV1lnmOwV6CxfHR2Z6jZvtILn+xJVh2IFsHnjBhEauZxFAREHUcc5gZzHqfgLgcOss857iF4X+5Kyb+s1aAACizpOzAGy17hPhBRMa+e6+XQ8ssg5CRLRbavXQsmLU/RQc/INgi4viHYDMuklYCQXAroeSKPAO614RAODFvBxAREGxx7T/E6yzECAq78lekrqzlNeWVAAAQKE/9Q1Ar7DuHAHg5QAiCgBO+wfOF3IDyStLfXHJBQAANIn/HgDc/SsYWAQQkRkO/oFz+8KWiXPK+YGyCoDBvmVb4buTAIxZ95QAcE0AERngNf/AGRVPVpa7WVxZBQAA5NclbneKVwuw07rHBIBrAoiojnjNP3DGAff6uTyGu+wCAACyA6lbAHkDAM+65wSAlwOIqA447R84PlRPy/cnfjyXH55TAQAAuf7kd1VllXXv6WEsAoioZjj4B4+IduUHOjbO9efnXAAAQGEg+RkIPmx9EuhhXBNARFXHa/6B9KFcX8cnKzlARQUAAOT7UmkRPQd8cmBQcE0AEVUNr/kHjqpgTb4/9ZFKD1RxAQAAub6OTypwBoAJ6zNDAHg5gIiqgNP+gTOugtMKfam11ThYVQoAACj0p74mKi8HbxEMChYBRDRnHPwDZ6tCX1PoS826x3+pqlYAAEBuIPkT5+M4APfV/dTQVLgmgIjKxmv+gXOPc3hBob/jhmoetKoFAABk16Vuxbh7KkTmvDKRqoprAoioZLzmHyyq+J7X1HRUdm3qT9U+dtULAADIb0iM5vsSJwN6LoDxWp8gmhUvBxDRrDjtHyhFFTm/MJB87chF7YVaNFCTAmAX0Xx/x6Xiy/MB3FG7dqhEvBxARNPitH+ACP7pfDy70Je8uJTH+s5VDQuAXXLrkr/PjyWfOjkbsKXW7dGMeDmAiPbCaf+AUGyD4MP5ncNPz65L3Vrr5mpeAAAALpeJydmAJyhwVV3apOnwcgARPYzT/sEgwLW+Xzw835dKY8OhdXnWTn0KgEm5dcn/FvpTZ6jgRFVUfUGDsU2i8l4RfNU6SAl4OYCIwjXtr/igqLwXwCbrKFUluBW+vjzXn3rl8Pp97q1n03UtAHYr9KWuKwykjlLoK6D4lUWGKtoMRc9if8chuYHkp3P3Jd8ckiLgxdvcwu+zCCCan1Krh5Z5vtyCEEz7i+r78wOpj+YGkp9e7O84BEAvgM3WuSr0S8B/Wb4v9Yz8uo4fWgQQ6zMAAMnezDG+rxdA5MUwKkrKJcCfAbk0N1745l7TNSs1kjgg+xVVnGadswQ3LfZ3vOrBdftttw5CcxPvydRskdBM8v2pQHx+UPnCNvjnBjo+vtc/pLU5MZY7RXetLzvCOmeJfEB+7Pt64fC61M+swwTqDRw7L7+/myieriKnA1hhnWcKwwCuUedfWVjbOfPMBYsAqhMWAFSOhhj8HyPWM/Q8UTkDgpMAtFnnnsIdAr3Kj0a/Wrg4fr91mN0C+wZO9Gaf6fv+aSJyAoCD7JJoTkRuUNXvtbZsvfbe9EE7Sv5RFgFUBywAqFSNOPjv6cD0PQtHR5e8UkRercDLAcQNu/AfhVzngKty/ck/GOaYVijewG29mw+K+O5YETlOgeMA7FPD5sYA/S1Efq2iPyncm/o1Noo356OxCKAaYwFApWj0wX8vKzXSvn/muU7kOCieC+CZAFpqGHuTCG5W6M1+0bul3gv65iKUb+C2rsGDI5DDEJEniGKFAodh1yWD5SX2yQcwBGAQ0H+ruH9C9XaIf3vhvo7bKxrwp8IigGqIBQDNZt4N/lNZqZHYAUOHQ93hEDlc1H8iIIcA6ADQidLGDgXwXwB3CXCXQu+Ajzu9iH/nSN+ye6zPXbka7A2s0tLzUGJBpCkBD0t3/RVaIRiFg04U/eGmJrcjuzg5hLQU6xqNRQDVCAsAmgkH/xKkNZrclu2YmPAXNjkXA/DI2AEAEWzZ6U3kxvr3ydVyZ7564xu4nlZqJHZA5kuicoZ1lBL8vEm8Vwz2LdtqHYRmxgKAphOqTX4UH8wPpD5qHWM+CcUtdw1jo3iF+1JvVdErraOUgDsGEoUYB3+aDQuAemMRQEQ1xsGfSsEpPCu8HEBVMs0lgK0AsgCyUOyAYNd6DpFdjxVVfxsgkxtY6QKIW7zr/+ru65+LIFgIIDn5v72KQF4CCCYO/lSqqHWAeWujeIWV+tbYARmEoAjYPRPAIiCAVOV0UT/rnGR8dUOLdVu22gs49+16YNE2WZx04nf4vqZUXNK637Q3Dv5UDlbw1jgTQERVwMGfysUCIAhYBBBRBTj401ywAAgKFgFENAcc/GmuWAAECYsAIioDB3+qBAuAoGERQEQl4OBPlWIBEEQsAohoBhz8qRpYAAQViwAimgIHf6oWFgBBxiKAiPbAwZ+qiQVA0LEIICJw8KfqYwEQBiwCiOY1Dv5UCywAwoJFANG8xMGfaoUFQJiwCCCaVzj4Uy2xAAgbFgFE8wIHf6o1FgBhxCKAqKFx8Kd6YAEQViwCiBoSB3+qFxYAYcYigKihcPCnemIBEHYsAogaAgd/qjcWAI2ARQBRqHHwJwssABoFiwCiUOLgT1ZYADQSFgFEocLBnyyxAGg0LAKIQoGDP1ljAdCIWAQQBRoHfwoCFgCNikUAUSBx8KegYAHQyFgEEAUKB38KEhYAjY5FAFEgcPCnoGEBMB+wCCAyxcGfgogFwHzBIoDIBAd/CioWAPMJiwCiuuLgT0HGAmC+YRFAVBcc/CnonHUAqrON4hXuS71VBF+1jlKCF0xo9OPWIYjmohh16xGCwV9U38/Bf35iATAfbRQvd1/yzSp6pXWUGQl+6CL6AesYRHPRJN7bVfE96xwzUnwwN9DBInue4iWA+SzIlwNUPpl/INGNjeJZRyGas5UaSeyX+biKnGcdZS+c9p/3WADMd8ErAjyBduX6OzZYByGqlnhv5h1QXAYgap0FAAd/AsACgIAgFQFbVHFKYSB1rfUpqYV4d24/iPc6qLTnB1Ifts4TJImeoQtVZKcn/lUjazv/bZ2nFuKrc8fD968B0GYahIM/TWIBQLus1EjigOxXVHGaUYLNvvovGx7o/Kv1qaim9nML7RHnnarQUyB4DgD4To8cXtvxF+tsrV0jcV0oMnZha846S/vqoSOcL3+a/OOvVOXr6ke+Mbw+Nmydrar97B58mhP3IwCdFu2L6vt5zZ92YwFAj7CaCVDcH4noizNrO+62PgXVkuzJHOUDZwI4FcCSh/9BZGO+L3mSdT4AiPVkrgSAQn/KeuYHABDvyW4E9PV7/NUOiPxAgMtzfcmbrPNVS7I7c5gvuAnAfnVtmN/86TFYANCj1b0IkHs933vRyLrO/1h3vWKr7l4Qb24/XRXvFsGRU7zCA9xT8/2Jf1hHjfUMvVwg1wOAU7w6O5D6vnWmeFfucDj/b5jq7iTBrfD1M/mJka9hw6E7rbNWqr2ncICgeJMAh9SlQQ7+NAUWALS3+hUBd4gvL86tS/7XusuVSK7JtPievhWQ1QAeN93rFLgqCN+2O3s3L5nQyN8BHDT5V//VaOTwwsXxEetsie7M11TwxhleMgTBZ7xo06UjF7UXrPNWIrV6aJnn48eAPLmmDXHwp2lwHwDa2+RmQTXeJ+Av4+PFF4R58E+em9kn3ptZ63t4EJD1mGHwB1CM+voR68wAUERkLR4Z/AHgcSgWA3FdWIAPA5jp1s8OKD4UmZi4N96TuSS1emiZdea5yqzt2Nwk/osA/KVmjXDwpxlwBoCmV7uFgX/wmppeGtZvcK1dI/FoZPxsKLoBtJTyM6L4em4gdap19tjqoeeLLz/F3sW/r9AXFvo7fmmdMd6T+SaAk0t6sWIbIF9ocsWPD/YtG7LOPhdt5w/HIsWJG6E4uprH5YI/mg0LAJpZ1S8H6G0TzQuPCcLK83KlzhpaWlzs3iOq5wNoL+dnfdUjhwc6/mzagZUaie+f/ROAp07zitvzLckjkJaiZczJlfJ/RnmfT1tE9dN+U/TCIFzKKLvP5xbaXaR4C4AjqnJAfvOnEvASAM2sipcDBPi38+T40A3+aXWJ7uwZ3iL5l6hehDIHfwDXmQ/+ABL7Z87C9IM/AByeGM290zrn8EDnXyH4UZk/tlRFzpOi9594z9A5WKkR636U1ef1seEm8V4K4M6KD8bBn0rEAoBmV50i4L9F8V6SXZ96yLo75WjvyrwwPpb9o4pegTneu61OL7buR2vXSFyBD82aVfSjLT2bktZ5fQ8XzfFH44Csj++fvbW9Z+gF1v0ox2DfsiGNRo6H4v45H4SDP5WBBQCVprIiIAu440f6lt1j3Y1SJbqyj4v3ZDc6h5+ikmlZxa8Kazt+Yd2faGT8E4AkSnhprFmazBcrDq9L/QyQX1dwiCMc5GfxnszVyTWZ5db9KVXh4vj9DngJgMGyf5iDP5WJBQCVbm5FwKgDXhaEe99LoxLrybxLnd7+mE1p5sQBl1j3qL176OlQvL3kM6B4Z7IrU9UFaXMhUpVzd5Lv4fZ4T+ZMQEOx5ik7kLrLV/+lAEpfJMvBn+aABQCVZ7IIEMFXS3j1hIi8Ntuf+qN17FK0rR58fLwne5MAn0FV9muXe7MPJK+z7peIDAAo55q485x94ZJbmvgBgGpsENUO4HPxnuzPEz3ZJ1j3qxTDA51/9X28FsD4rC/m4E9zxAKAyrdRvNx9yTfPNhOgwNm5vuTN1nFnlVYX78n0RHx3G4Djqndg/aT144x37fiHY8r9OQGOja/OHW+ZHWnxofh0FY/4PIX+Od6bOTcMswHD61I/g+hZM76Igz9VgAUAzc1slwMEA4X+1GetY84mtXpoWXwsey2APgALq3joLRqNfMm2dypQ+dicf9z3P2E9UPp+9EsAtlTxkAuhWBfvyf440ZV9XOWHq618X8cXoVg/5T9y8KcKsQCguZu+CLghf19yjXW82SR6sq/zfNwG4OXVPrZCr7C+Hz3Wmz15mmcSlOqoeE/mfy37MLw+NiyCq2pw6Bep09tiPZlTLPtXinxrskeBRz+rgYM/VQELAKrM3kXAPzQaOcV66ntGq+5eEO/OXqrQb5e4Mr5c6jxXzanr8q3UiOjst/3NTj6OtEZN+1KUDQC0BkduF+Dr8Z7M55DWZtM+ziQtfiSC0wD8DQAHf6oaFgBUuckiAJBLfURfYf3Ndybx7tx+8eb2n0H07Bo285Pc+uQ/Tft5QPatAKqx4O2w+GjG9AFGk+eylmtJzoyPZX4WX5Pb17KfM8lekhrzEX0VoOdy8KdqCfxCGKJqSfZmjvEV38QcN/Qpmeob8gMdV5t1NK3R+FjubkAPrNIR/5NvSa6w3CI41pM5RYCv17iZLJw7Nb82caNVP4nqiTMANC/Ee4bO8RU3odaDPzSXnxj5rmVfE6O5N1Zx8AeAg2NbsidZ9qkwPvz/AK31FtJJ+P71id6hWs4OEQUGCwBqbCs1EuvJfnLycb213x9e5SpsOHSnXYdVVPzV1T6qKN6HtNp9Xmw4dCfgStl7olIRVbk03pP5HM7UJrP+EtUBCwBqWMk1mZb4/tnvCXRVvdr04X/Fss+JntyrAXlyDQ79pORo9kTLvqm4L9SxuTPjSzPXxs7LV2FDKKJgYgFADSnRlX2c7+E3AE6oY7O/Gx7o/KtlvxV+zW6/9AXvs+xboS9+G4Df1a1BkeOl6P08eW5mH8t+E9UKCwBqOKmuoUPU6S8AHF7npk03/kn0Zo8D5Nk1bOJ/kt2ZYy37iPqf46dqBL9o6xo82LjfRFXHAoAaSrwrd7jn5KcADqpz0+NFv/lbpp1X7ap1E57gXMsuek1NGwWo6xoLBR4fce5Xsd7Bp1r2najaWABQw4h3554F5/8CQN23eFXg+tF1bXmrvref+9CBWoMdDR9LgBMtvw2PXNRe8IEbDJpeJupuSXRl/8eq70TVxgKAGkJydeZIiH89gJhF+wL9mmX/XTS6CvW4ywFwkYh7t2VfRfQbRk3H1emNiZ7sMyz7T1QtLAAo9NpXDx3h+/gxjAZ/AKOL/Z1mj/1dnt60GIo3161Bxds7ezcvsepv69Kt3wdgtdtkm0JvTHZljrbqP1G1sACgUGvvHnya83ETgLhdCvl/D67bb7tV69tHm06vc//bJxB5o1V/700ftAPQ71q1D6Ddd7gxuTpTyYOWiMyxAKDQSq7JrHDibqrRA33KILXeonbm1kXeU/dGFe+17DNcxPScA4j5Pm5IdQ0dYpyDaM5YAFAoJc/N7ON78kMASeMo+XxL/BarxhO92WcC+hSDpp9qeS08PxK/BYDZostJHZ6TG1Orh5YZ5yCaExYAFDrJNZkWjeC6Ku93P0fyfcuH5Cj0LXZdN2z7cplQ0WvN2n/EQZ4vP+KOgRRGLAAoXNLa7Hv4jgJPt44CACL4rlXbB6bvWQjFyVbtq+KN+3Y9sMiqfafuO1ZtP8ZTpVjcyGcHUNiwAKBQiY9lNwB4kXUOAIBi24Kl4z+2an5ky9LXAWg3PANtWyMLX23V+CJ/+48AbDXs/x7kJfGW3OesUxCVgwUAhUa8Z+gcAGda53iYyPWb0su3mTWvsJuC353Bt7sM8OC6/bZD5IfW5+AR+pZEd7b+CzKJ5ogFAIVCojf7YkD6rHPsSUXNpqDja3L7ArDelx8QeXHsvPz+Vs2r2v0Opswjun7XMxmIgo8FAAVe2+rBx6vq1QCi1ln24Hles9m3T/X0NNRn57/ZOBT9N1g17vnNNwDwrE/CHqKq/jVtvZvr/SwKorKxAKBgW3X3gojvrobpRj9TUPzWcu9/qK60PgW7idhl2fU7kPo9Irgkkoggcg1W3b3AOgnRTFgAUKDFmtr6ABxlneOxBGrxQBoAQFvX4MEiCM4udIqj21YPPt6ufQ3QOoDdmXB0vDl2sXUMopmwAKDAivVmXmmyy10JJCJmBUDUidmU+3ScRl5v17bJ0wFLoGcnerOvtU5BNB0WABRI7ec+dKAorgQg1lmmMJhdkvyLVeMKCcz0/25ieEki25b8E4Ah63MwBVHVL7b3FA6wDkI0FRYAFDxpdRKJfhm297jPQH+ItPgWLU9OtR9hfQamcJTZvvhp8RX4kfUJmEbMofhVpJWftRQ4/I+SAic+llklwDHWOaajIjdate38SOC+/e9WdO51hs0HtQAAgOclxjKBvJRF8xsLAAqU5JrMCkAutM4xk4jDT63aFtUTrfsfxGwRDzdb938mqnJRsjtzmHUOoj2xAKDgWKkR38MVAMz2ly/BndlLUpssGm7tGolD8EzrEzAtwXNaLhg1eTRzdn3qIQB3WZ+CaQkW+6JfwUoNwt4NRABYAFCAJA7IvAcI8AAHAGL37T8SGX8ZgrUZ0l4Ro+M7jzds/6fWJ2Bm8uzEfrl3Wacg2o0FAAVCavXQMlX5sHWO2ajiZ1ZtOx8nWPd/1oywy6iBLwAAFf1Eck1muXUOIoAFAAWE58s6BHbV/yMiEaMCYKVGVPSl1v2fjQIvR1pNZikiXvALAACtWsRa6xBEAAsACoBdD/pB4Da3mYLZ9f/YgUPPAsTk+nqZ4rGtQyaXcSbXAdxpfQJmo4I3Tv43T2QqyNcTaZ5YsHT811t3LA7WXv9TaB4dn7Bqu7Bj9Na2JanAnyMAGNmaMXtEcmS7Hj3e2txkfQ5ms2Thtp3WGYiIiIiIiIiIiIiIiIiIiIiIiIiIiIiIiIiIiIiIiIiIiIiIiIiIiIiIiIiIiIiIiKi6xDrAw9Lq2oc37+8iboVq5GA4tML32wRuCUQXTqYdVV8nnMNmwN0nog/4O9y/8hsSo9bxiYho/oivyrW6hf4hqrIf4B/g+1gmTpqgaAUAqOxQ+Fvh3Ah8jIp4//E9/87h9mX3Iy2+dX7AsABYuuqhVHNT5BhxcqwqngNgBYCFcziUArgbwJ8A/a3A/SjXn7zDql9ERNR4Eudmn6hRfSkUzwJwJIBDMLcxdDuAOwX6awVumUDxp2P9y7MWfaprARA7L7+/KxZPU8hJAJ5aw/bvU9UfCCJfyw8kflvPPhIRUWOI9+aereqdKiqvhGD/GjXjA/ibQq4Wla/lBxIP1Kt/tS8AztSmREvuDT70LQK8EICrV+cm3a0iX9Ri5HPD62PDdW6biIhCpO384Vi0WHyXr/pW2fUtv558ALco8OXCWPIaXC4TtWysZgXAgel7Fo6NtrxNRVcDOKCWnSjRFkC+iIj05S9JPGgdhoiIgiPendsP0F6IvhXAUus8gNyriksKE4UvYcOhO2vSQtWPuFIjsf1yZ4roBwEsq/UpmoPtAr3Uj0YvKlwcH7EOQ0REdtrPLbRHIsULFFgFYJF1nilsUsVHCq3Jz1d78WBVC4BET/YZKnoZFEfX9/zMSVZUenIDySutgxARUb2pJLozb1JBHyAJ6zQl+L0Dzsr2p/5YrQNWpQDYt+uBRVvdgrUCeTfqf42/0lPwIx+Rdw73x+6zTkJERLXXfu5DBzoX+RxEjrfOUiZPIZe1tYytuTd90I5KD1ZxAZBck1nhe7gawNOsz0wFRgF9W76/41vWQYiIqHaS3ZlX+YKvAIhZZ6nAP+C7k/LrErdXcpCKCoBYd/Y0Ef0MArFgomIKYCB/f/I8bBTPOgwREVVRWqPxsVwfoGcjSJvgzd2YCt5V6Et9fa4HmPNJiPVmzxPVi6zPQNWp3uii8vrsJakx6yhERFS5zt7NSyY0cjWAE6yzVJuoXpwb6Dh/Tj9b9k+s1Ehi/+ynFHiXdcdr6A9N4p042LdsyDoIERHNXcc5g50TEXe9CI60zlIrAr0s15JaVe5dAuUVAGmNxseyXwNwknWHa0/+PoHx46y2aCQiosp09m7umNDIzQAOt85SB9fkW5KnIi3FUn+gjBX7KvGx3OWYF4M/AOhTmtB0U8sFo2G4PYSIiPbQ0rMpOaHRmzA/Bn8AOCk+mv0soCV/sS+5AEj0ZC8C9C3WPayzpzXt3Pk9rLp7gXUQIiIqzYHpexY2Ifp9QJ9inaWuBG+LdWc+XurLSyoAEj1DqxRYY903E4LnJha0f6GcqoqIiKyojI0u/SIgz7ZOYkFELoj1ZM8q6bWzvSDenXsWxP85gCbrjllSwZpCX2qtdQ4iIppew96hVp5x8eX5uXXJ38/0ohkLgPZzC+0uUvwTgIOsexMARYh7Qb4v8RvrIEEX78lcjfCvFflGvj/1xno3mlydOdL3UbWtPoPEORyVXZv6U73bjfdkvg7gFOv+V+jqfH/qDdYhgi7Rk32GQn8JoNk6iznF/UVtfvrourb8dC+Z8RKARIpfBgf/3aKi/lXJNZkW6yAh8AzrAFWw2aJRz8Ny6443XN8Ug9Z9r5QgFM9XMRU7L9+mwDXg4L+LYP+o2/n5mV4ybQEQ7x06SYDXWPchSBR4vO/JR61zBFlr10gcwIHWOSqlIiaDhkjjFgBWfbP6XVa1D8DBvCNpZq5Y/ASgB1rnCBZ5XaIn+7rp/nXKAiC5JtMClQHr6MGkq+LduWdZpwiqqNvxDDTANpvO920GjQYuAKDYx6JZEaPfZZW70TQ+0bAb2VRq19S/vNM6RxApdH3qrKEpt+ufsgDwPXwIwOOsgweUg/M38K6AqQmkEab/4YvRtLHfwAWAsykAFNIQO3oKvIZ4b1WfikI/AyBinSSg9vMWyQen+oe9CoC23s0HATjbOnGgKY6O92T+1zpGEPkqDXGtMuKMpo0beAZA1KZvES/8awAAQIGjrDMEUbw3sxI8N7M5t72ncMBj/3KvAiCikfMxz2/5K418HGmNWqcIGhE0xMYbnovYbAEt6LTue62o2MwAeM2RhpgBUMhTrTMEzkqNAJK2jhECTRFM7LWXz6MKgERX9nECvMk6aUgcFh/lLMCjpLUZwAEVHycAomPFfOVHmQOVpHXfa9c3xC2alW06bN31qvQDOGjyPUaTYvtnT4LiidY5wkAhb02em3lUEf6oAkCd9ijAbW9LJY6XSvaQGM49Ho1xHa6YuSy11aZpNRkk68RkFXt+Q3wMQMkPSAmwSHI0e6B1iCARKD+DS7fQj6Bnz794pABIazOgZ1gnDBd9TqIr+z/WKYJCnB5qnaFKhgHRurd6pjYBaOR9JlptLpuJAjpi3flq8Bwa5T1WsWRP5ihAeEdWed6y57NtHn4zxscyrwKE95mWSZ3+Lt6TsY4xVbKV+f6Ob9WzRV8a5sOpYNFox6KheBGuke8ukaW5zbEtQN3fMAIZVqMZiOr2o/7vsXjv0ElQudq6749V1oPvabd4YkHsFTngO8AeMwAC4bf/BuL7Uv+qpHEKgGGLRj2JNPL0PwBgQXOTySCsYlPUVZto/WfZnMVnCdWM+v7pu/+/A4CWC0YTCrzMOhhVj0Qiubo36mujbBttMl2szotZd7zmfVTPpshRm6Ku+t1wj693m56LsABoJCIntJ0/HAMmC4CmnTuOA2/9aygTO3fW/95nkWXW/a4GBbaYNCwNff1/l0h0aeUHKZ8qjBZ1Vr0ndb9NtGliggVAY2mOFovHAJMFgDg51joRVZW/ZfMyi9vYOqw7Xg1Osc2iXUFkiXXfa95HVZM+itj8Tmug7u+xoVhHDkD9F8VSzfiKY4HJAkAVx1kHoqrKY6N49W1SBUBD3MOuVoOFwuTbcT35PmyKHKOirgY66r4NeVqKMFoXQ7Uh0OMAwKVWDy0DsMI6EFVV3Xexa+l5KIE97ioJM4Vst2jXh9HgWFc2MwAKNfmd1kC0tWvUYq0ILwM0lid19m7ucL7nDrdOQlWmqPsCwCZ/QcNsYevUN7oEYDM41rePNkWOE2mUGQA06YTBe03rv6iYakk8P3K4A/AE6yRUZYId9W7Sh98Q0/+A3QwA5sUMgE0ftXEuAcCL+Kl6t6mQun+mUG15ghXOF07/NxzBzro36XSxdberRZ3Nh52ILrTue60pdJFJu0a/01pwPur+XhODzxSqLVGscAIcZh2EqszXur9ZnbiGGbxE1WTfeBVpiDUUM3EiJs+KEF/rvCi2hn2JuLo/r0W1/rOKVGOCFQ7Qhpm6pUkidS8AfGjjPERKYDNY+I2xiHImKkZ9tPqd1oD6ft2LbQFnABpQwgGNf+vR/GMwA+A3zvS1qM23RTX6dlxXvs0sh8BmVqc2fTGYAZD6f6ZQjQlaHBr76WPzlMUMgDTMDICvzmSwcGLxpLz6UvFNihwfrnFmAAzWiohf/88UqjFFKwuABqQGBYBzjXMJQMRoBkDR8DMAYrXOwWhWpxbE4HKbGswqUs21OHCLx4Yjyt9phWyeNDoPCgCrdQ7iGucSAAT1f2S0OH6mNB51AMasU1CVGXwb9xtoitDsm7jMi8LNpLhSo7UHNemL1v+WRotZB6q5MQerJ59R7Wj9r8e7BpoidKLNJg030Er1abvoYLW+wuZ3WgNicIkPLAAa0aiDcAag0YjW/8PON7j1sFYUYjJYqNH+A/Xkq9jssWD0O61JX9Q3uCe/cRb50sPGHIAh6xRUXRarhJ00zk5rIjaDhWjjrFSfvo82i/EaaQpbxNW/2NbGOX+0iwAZBx93WQeh6hKDbzu+7zfODIBvdQmgcVaqT8voEoAaFXU16YtvMAMg0jD7fNAuCtzpVHCndRCqLjX4thNxjfO0NYvzN6nhLwFYbcmrKk3Wfa8W3+ZhVZwBaDSCO11EcId1DqoyrX+17nuuYZ4XLs5qsGicdRTTMXzQUsPMAERU6n/ZVlkANBpf9U63UyduA/cCaCyCRL2bHC+ON85aEt9oDYA0ziNrp6NqM1OkBnfG1Mr4oub6v9cMPlOopnyveeHtbqx/eRbQ263TUPWIoO7PC9+SWJZDg0xh231b9Lda973WnFGR00AzAMWxBS0Fg3Y7rDtOVfW3sQtbcw4AoO5m6zRUPaqIY6XWdzObtPgAstZ9rwa72wAbZx3FtH20KnK0YRYBDk2+1+pn12dJu3XHqYoENwOAAwAR3GKdh6oq0rL/QzGDdhviMoDVt0UFGn4GAL7RDAAaZgag7u+xzgMGE5gcK6gxqL9rzHcA4EfdLQAa5j5uApq95rpfBgB00LrfVemF0aYnTubBDIDR3SINcxugat0LgAltSlp3m6pqeySKnwGTBUDh4vgIRH5gnYqqx4v49S8AVO617neVOmLyhEyBjlj3vNZUjfqoaLXue1U4uafeTfq+wWcJ1dL3spekxgA88mQu9fVKEay0ThY6im0QBO72LRFpq/upcLhbGuF+EkXcotmi7xecNPZMq/i+xQI2AGryO61+N3B3vZuUCFqhMPq9zXguFkCw2DpG2KjqVbv//8MFQKE1+cP4WHYQQKd1wDBR5z+70Nf5N+scQeBU7m6EJxELbG55kqamAoqNvRmgNDWZDCQCxMP/XyagUv+dWwt9qR8ANkXxTGK9+SeLen8DDB6PHF5DhdbUjbv/8MjXjbQUFfJF63QhczMH/0eoL3X/dlKTfhgVANGxYt6677W2cPFOkz5a/U6rzWljvMeqodAXv02x61o2lUouR/qRB3I9ar5xYnxiPebDSuQqcYpLrTMESb6Y/xfQEI+0bUNa6/78+MxlHVsAjFt3vobGN6WX138R4K7b2BphDYCXGy/UfQ1AkDmRT1pnCJEtExh/1Jj1qAJgy4Z9MlB83jplSPwt25q81jpEoGw4dCcgD1jHqAJpGXuo3ajtYevO15DJt/+WQ8ba0Ri3sd2/6z1Gu+X6Et8F8BfrHKEg+Oyujf8esdebQlT6wFsCZ6WqF9R9Q44QEOjfrTNUw4JIk9WUccM8U2EKOYtGF3g7G+I2NgX+ap0heERV8QHrFCGw3RUx8Ni/3KsAyK1L/heCi63TBtzPCwMd11uHCCIFbrXOUA2+76wWPW227nvt6CaLVg1/l1XloH+0zhBEhYHUtQB+aZ0j0BQXZtenHnrsX085LZbfOXwhUP/VpiFR9NU/2zpEUCn0D9YZqtIP37e5E6CBCwCFmPTN6ndZ9X40yHurFlQi7wYwYZ0jiBT4V2vrlrVT/dvU18U2HLoT4CA3FRW5eHigk1Nx0yii2BAfUk7EZNBQwUOVHyWYrIobB2mIGYDxcf9P1hmCqtAXv02AddY5Akn1nHvTB015WX/ahTH5/s4fKXAVaA962xJv+8etUwTZ5CKT+6xzVEqtNo7Rxp0BAGCyVbSKNsIMwD1bNuzTyOtDKragZeLDAP5hnSNY9IqZLlfPuDK2Wbx3Q/BP6y4ExA4VPfXBdftttw4SfNIAswA23xq1oS8BGPVNYPFgrCr3QRpibU0tbUov36YSORkAP6N3uctFZNVML5h1B6VY1+aniIv8DsAi694Ye2e+P3W5dQgiIpperCfzLgE+Y53DlGKbusgzC33x22Z62az3xhbWLfu7qLwLaIA9XudIVT/FwZ+IKPgK/anPiszrAkBVcOZsgz9Q4uYYuYHklQr5P+temRD8sNCa6rKOQUREpcndl1wlwLzcqE0F5xX6U18r5bUl745V6E9eBNl7I4HGJr92DiftuXcyEREF3EbxouK9AcDPraPUk6p+qtCXWlvq68t8ipJKvDv7OQjeYd3R2pNfu4i+bPdzk4mIKFziq3KtaPZvBPBM6yx1cHm+P/kuoPSHspe5P7ZofiD5ToV8wrqnNfYTjMvLOfgTEYVXfkNiVKORlypwi3WW2pKPlTv4AxU8RznRm32vql6KxnjIxsNU9MrC0tQ7kJZGfiobEdH8kdbmxJbsF1VxmnWUKlMAq/P9qf65/PCcCwAAiPVmThDVKwCbXdOqrKiQDxT6ExeXW0UREVHQqSR6Mu9TSBpAxDpNFWQVekahv+OGuR6gogIAAOJrcvvC878B4HnWZ6MCQyJyaq4veZN1ECIiqp32rswLncM3AOxjnaUCv/e94snD6/e5t5KDVDx9n78k8WC+JXksBB8VIHTPqhbF18fHi0/m4E9E1PiG16V+1iTeEQC+aZ2lXALshODD+Zbkcysd/CePVz3JNZkVvodPAXix1Qkqo+v3qvrv4WN9iYjmp1h35kQBPg3B/tZZZqV6YySC92bWdtxdrUNWtQDYLd49dDJEPgLgsLqdnNLlAXwiPz78qV1PPSQiovnqwPQ9C0e2LF0liguAQD434g5AP5Dv7/hWtQ9ckwIAALBSI7EDsitF5f8AfUpNT09pBqH4tNfc9KmRi9oL1mGIiCg4WrtG4lE3/l4A7wHQYZ0HwN8g+vH80tS3kBa/Fg3UrgB4mEqsN/sKUXmzQF+pwILat/mo9n8DwRfzO0e+ym/8REQ0kwPT9ywc3bL0dCjehvpvILQDIj9Q3/9KYSB1Q63vSKtDAfCItvOHY2584iQRnATgOQAW1qAZFeAvCvwg4vSr1bxeQkRE80eyO3OY73CaKE5U4AjUZszcAeBXEFztF6Mbh9fHhuvVv7oWAHvat+uBRdsji57tA8dB9TkCPAFzuS1DsQ2if1XgT1D322ZXvHGwb9mQVb+IiKjxdJwz2OlFI8f78J8pwFGAPA3Aojkc6iEF7hDIr5zqzUtbt/zm3vRBOyz6ZFYATCV2Xr7NFf3DVP2DIdKmgjZRLBXVBZNpR1VlXCGbEfHv0wnvgeH2ZQ/yYT1ERFRXaY22D2/eV5oi+znfHaiqnSLaDEUrAKjIThVsEcUIRIdF3T06LnfmNyRGraMTERERERERERERERERERERERERERERERERERERERERERERERERERERERERERERERERERFRlQTqaYA0P8V6hl4ukOutc8xGRP4v15e80KLteE/mmwBOtj4HJbo63596g0XDid7sBar6CesTMBuneHV2IPV96xw0vznrAESF/o4bFAj8h6GqPt+qbVH9oXX/S84KucGqbYW+wLr/s4fU73DwpyBgAUDBEI2sArDFOsYsnoe0Ri0adhH8EIBan4ASqHh6o0nLaY1C8RzrEzAjxTbf97qtYxABLAAoIAoXx+9XkY9Z55hFS3Is+zSLhjNrOzYL8BfrEzAbVfw5uz71kEXbibHc0wG0Wp+DWXxoeP0+91qHIAJYAFCAFEYTAwj4IOcrXmjXdgguAzhO/8/gj/nW5HrrEES7sQCg4LhcJgB3KoAd1lGmowKzdQCIwGxwLZl4hgUAAlsACLBTfe8tSEvROgvRbiwAKFDy/Yl/CPSj1jmmI9DnI60m75vCktRvAAxbn4OZIhaWdPzOpOWVGhEYFmez8EU+VFi37O/WOYj2xAKAAid3f+piADYDyawkkRzJHmnSdFqKIrjW+gxMT79v9Q03cUDuaAAx6zMwNf1N4b5En3UKosdiAUDBs1E8pzgDAb0rQEVfatj4t637P300u2zq6/HW/Z/GWMTHGdgonnUQosdiAUCBlB1I3QXVt1vnmIqKmA02LS1jPwQwan0OpjDWtnTLjw3btyvKZqAqZ2XWdfzLOgfRVFgAUGDlBzquBuRL1jmm8JzYefk2i4bvTR+0A0Dgdk0UxQ8ms9VdfFWuFYL/sT4HU7i8MJD8qnUIoumwAKBAa20Zew+Av1rneIyo8/xj7JrX4F0GMJz+lwX6IgBN1qfg0fS2hS0TXdYpiGbCAoAC7d70QTsE8gYEbtrbbh3Awpbi9QC2Wp+BR04FtkWl+CO79gN3/X/YqfzvpvTybdZBiGbCAoACL9efvAPwTwIQmIVU6uMEQE0eprUpvXwbJEAPTxJcO9i3zKggUVHgBOtTsAdfBadlB1J3WQchmg0LAAqFfH/njxTyfuscDxPs396dOcKqeYVeZX0KHs6ieoVV28me7JEA9rM+Bw+fC8H5hb7UddY5iErBAoBCo9CfuFgUX7fOsZtz8mqzc7E0eQOAzdbnAMBgoTVl8/AfAL7A7HfwWAJ8rdCXWmudg6hULAAoRERbWre8DcAvrZMAANRw8Nm14c43rE8BBFeZbm+r8hrrUzDp5y0tWwJ52yrRdFgAUKjcmz5oh0YjJwIShG1Vj2jr3XyQVeMqEfNbJBW+2aWI9nMfOhDQp1ifAwD/8JqaXmN1GyTRXLEAoNApXBwfQUReAeAB6yxRuFeanYe++G0wvEVSFX8q9HX+zap9F4m+1qrtPWzyEX3FyEXtBesgROViAUChlL8k8aCv/ith/HAcX8V2EBJ8xapp5+wW/016jXH7BZXIS4f7Y/cZ5yCaExYAFFrDA51/dQ4vAmD27UuAFyS6so+zat+LNl0BhcX95tsnvAVmu9wl12SWA3ieVfsARsSXl03OwhCFEgsACrXs2tSfIO4EAGNGEZxGdKVV/0cuai9A5GqDpr82uq4tb9Vv38MpsPv82qpOX5lbl/y9Vf+JqoEFAIVevi/xG3X+y2H19EDVky3776u/od5tOuCzln0GYHPOFduc4MTC2o5fGPefqGImO5kR1UKyN3OMr/g+gJY6N62eeI8f6Vt2j1Xf4z1DvwHkWfVpTX6d708+16qvbV2DB0ec+xfq//k16kNfOdzf8XOrvhNVE2cAqGFk+1I/dcCxALJ1blqcRk1nAVTdp+vWlmjd2ppKVOQU1H/wz4vI8Rz8qZGwAKCGku1P/RG+OwbApnq2K9BTLPtdaE1cA2Cw5v0UZAo7h02fRqji6l1s/Vc8eV6uL/k7y34TVRsLAGo4+XWJ2z3ffz6Au+vY7FOTqzNHmnU6LeOQ2l+XV+AybDh0p1U3k12Zo+u8+c+dvld8Xm598p9WfSaqFRYA1JBG1nX+p+g3P0sEP6tXm56nb7Hsc9Fr/iRquxBy64ROfMqyj+rqeY7l1+PjxecPr9/nXss+E9UKCwBqWKPr2vK5pcnjFajLdrUi8kasunuBZX8B+WINm7h8rH95vddXPOzA9D0LFVKvSy3XtLaMvWjLhn0yVv0lqjUWANTY0jJe6E++CcBHAGiNW4vHF7TZPp0uIn0Axmtw5AmNRtZbdm1ky9LXAIjVuBmF4MP5/uQbuLc/NToWADQPiOb7Ux9SxatQ662DVd5s2dP8JYkHAanBI5PlqsLF8fst+yaqb61xE6NQf2W+L5UGpNbFIpE5FgBUHWltTvRmLkutHlpmHWU6hYHUtU7xTEBruX3r8fHu3H6W/RTgYgB+FQ/pA9Jv2af2nsIBgLyodi3I3yNOj84PdJre4TCT1OqhZbGe7PnWOahxsACgyp2pTbGx7NWqeLfny7XL05sWW0eaTnYgdVeT+M8C8I0aNRGB6JmWfcz1J++ASDUHso35/sQ/LPsUwcS7UKPPKxF8tUmKz86s7ajnXSNlOTB9z0LPx3cEemG8JzNgnYcaAwsAqsyZ2hRryV4jjzyZ7agdY81XABrYXSYH+5Ztzfen3gjVk1CDSwIi+k7LxYAA4Hx9P4BiFQ7liScftuwLVt29QCG1mP4fA/DOXF/q9MG+ZVtN+zgjlbHRpV/cY6fHLhYBVA0sAGju9h78J+nr473ZD1nHm01+oGOj7xWfDsWvqnlcVaRiC9r/17Jv2YHUXYBU4+6HL1vfA59oip0MoKPKh/19xNcj8/2pyy37Vop4T+4jKnjjY/6aRQBVjAUAzc20g/8kxQdjPZlTrWPOZnj9PvfmW5PHQPBRABPVOq74OMu6bz4iHxagkk17xj3xPmHdDxX/3VU83AQEH863JJ+bWdfxL+u+zSbeO3QSoO+b5p9ZBFBFAjtNSwGW1ubYaPYaEcx2y9sOqDs2P5D4rXXkUsS6Nj9FXOSLAJ5RjeM54Ohsf+qPln2Kd2cvhejZc/phxfr8QKrLMn9799DTncifqnS4vzrgbda/k1LFuwefI+JuVmDmy0mCvnxfarV1XgofzgBQeSYX/JUw+APAQoh3bbwrd7h17FIU1i37e74l+RwVOR/A9kqP50PMZwHGJyY+hl3Xusu1Jer5F1nnd+LmVrw82nYVrMm3JM0LslLFu3KHQ+T7sw7+AKDo5UwAzQVnAKh0s037T2+T5/vPH1nX+R/rLpQqtXroUE9lPRSvmOsxBNgpHg7Krk89ZNmXeHfmAxB8pLzs+oFcf8fHLHMn12SW+x7uAdBcwWGui/h6bhim+3ebfNzxLwAsL/NH1+X7U93W+Sk8OANApZn74A8AyyPO/Ti5JlPuB5qZzNqOu/N9qRNE5CUQzGkRnAILPKerrPvS2rplLYB7yviRe1patvZZ5/Y9nIs5Dv4K/EsVr8z3p04M0+CfXJNZHnHuxyh/8Ae4JoDKxBkAml1lg/+ebp9oXvDCsQtbc9ZdKsuquxckFsS6VfV8AK1l/nTBRXBA9pLUXKbhqybePfi/EPetUl4rIq/L9SW/Y5p3Va4Vzf79ANrK/NFRFflEYWdhveVTC+eipWdTsglNPwPwpAoPxZkAKglnAGhm1Rv8AeDwpvGdNyTXZFqsu1WWDYfuzPUlL5xoXnCwqF6M8tYHxHwPb7fuQn6g89tQvbGEl95sPfgDAJr8M1He4D8O4PJo0T+s0Je8OGyDf3xVrrVJmm5A5YM/wJkAKhFnAGh6pa/2L4sIfua26YmZyzpq+ejamomvye0Lz/8AgLcCiJbwIw/mx5IH43Kp2m2Gc8rdk3sS4P8FQNM0Lymq7x1ZWLfs75Y5caY2xZdm/wXB/iW8uqjAN9QrfjCsj+1NnTW01Fsk1wF4QVUPzLsDaBacAaCplbfavyyqeKG3SG5u7RqJW3dzLvKXJB7M96fe6fn+ChF8BsBsT43bN9GSe2Mpx65p7v7EPxTy2WlfoHKZ+eAPIN6aOa2EwX+7QC/zxDus0J86I6yDf/u5hXZvEW5EtQd/gHcH0Kw4A0B7q+60/7QE+PPO8eJLw/7M9c7ezR0TiJwFxTkA2qfp679zLcknIC3V2J63kqxLJjTydwAHPeofFPe7KJ5svVYBKzUS3z/7TwCHTvOKMah82UX14uwlqU2mWSvU2jUSj7rxH6JK+07MgGsCaEosAOjR6jT4P0zwT+fw4rB/mANA7Lx8mxSLb8au+/8P27ur8uZcf/IK85w9Qy8XyPV7/p0KXlXoS/3AOluie+jNKvLlKf7pThG9zI9EryhcHB+xzlmp1OqhZZ7vbgT0KXVqkkUA7YUFAD2i3oP/I+7xxHvRSN+ycm5VC7RYz9DzRNzZUH0tJtcJBGUWYFe+zJUCnA4AClxV6E+dYZ1p8tv/P/BI8eQDuFkFnyz0Ja8FRK0jVkPsvPz+KHo/EeCQOjfNIoAehQUA7VKjBX9luM8pjt/1EJvGsWszG10pkDcp8PSgzAK0XDCaaBrfeTuAyPh48UlBuAyzx7f/f0Cw0S8WvxLWa/vTSa7JrPCLuLHEBY7Vx4WBtAcWAGT5zf+xCk7wumxf6qfWp6QW2ruHni7inl3oT15mnQXY9aAZhbhCX+qb1lkAINaTPUud/+vhtR1/sc5Sk/6tHnyu+O67AJLGUTgTQABYAFBwBv/dxkXlHbmB5JXWQYiqJd49dDJEvgJgoXWWSSwCiLcBzmvBG/wBoFlFv5LoHroIUBaoFHIq8d5MGiLfQHAGf4CbBRE4AzB/BXPwf6xrWlu2vOne9EGz3WdPFDxpbY6NZb+we7FlQHEmYB7jDMB8lNbm2NLsxoAP/gBw0ujY0jXWIYjmIjGWWRfwwR8AuuK9mbXWIcgGC4D5poY7/NXAdfnx4YutQxDNhec1vQ/AH6xzzIo7Bs5bvAQwn4Rj2n+36/Ljw/8btoe6EO2p/dxCu4sUb0Ttd/urBl4OmGdYAMwXHPyJTLAIoKBiATAfcPAnMsUigIKIBUCj4+BPFAgsAihoWAA0Mg7+RIHCIoCChAVAo+LgTxRILAIoKFgANCIO/kSBxiKAgoAFQKPh4E8UCiwCyBo3AmokaW3m4E8UDsPrY8O+Fz0eYdgsiM8OaEicAWgUu/Ydv5qDP1G4cCaArLAAaAQc/IlCjUUAWWABEHYc/IkaAosAqjcWAGHGwZ+oobAIoHpiARBWHPyJGhKLAKoXFgBhxMGfqKGxCKB6YAEQNhz8ieYFFgFUaywAwoSDP9G8wiKAaokFQFhw8Ceal1gEUK2wAAgDDv5E8xqLAKoFFgBBx8GfiMAigKqPBUCQcfAnoj2wCKBqYgEQVBz8iWgKLAKoWlgABBEHfyKaAYsAqgYWAEHDwZ+ISsAigCrFAiBIOPgTURlYBFAlWAAEBQd/IpoDFgE0VywAgoCDPxFVgEUAzQULAGsc/ImoClgEULlYAFji4E9VEOvNnBARPATB5uzi5BDSUqxJQ2mNJrdlO6BY5in2KfSlrrPuOz0aiwAqBwsAKxz8qUriPRnd4487AIwC2CLACASjvmLECUZVsQ0ABPChOvKog4i0KeB2/V8s9hWtTtAGRasCbSJoUUULgIW7fyTfn+LnRwCxCKBS8Q1sgYM/VdFjCoC6YQEQXCwCqBTOOsC8w8GfiGpseH1s2PeixwP4g3WWEnTFezID1iHmIxYA9cTBn4jqhEUAzaYxp/BW3b2gNdqxRLCj3UWwNCqyfbyo3gIfW3VCtmYu69hS90xpbY6NZq8RwautT89sFPhuYSx5Ei6XCessNDteAqCZtHaNxCMy/mMRHGmdZVaCvnxfarVF0529m5cAWLLDk6XNUYkUVRf5HrYoFg6PtrVuQVrGrU9PtYXyDdxywWiiaef2FYA8QURW+MBhIlgBxTIASwE0zXKIrQA2QbEZIv9W4J8Q/acP77aRvmX3VD0wB3+qIRYANBsWAbu09W4+yPmRwyHyJAGeANVDIOgE8DgAS2b58QkAWyDYrIo7neqdCtwF6B0TCxbdOXZha8761JUrFG/gpaseSjUviBwrKscqcCyAFTVsbjNUfwPIL334Pxke6PxrRUfj4E81xgKASjEfi4D27sGnOXHHAfo8QJ4DYFkNU98hglvU11vGJ7yfbtmwT6Z+J2xuAvsGjvfkniTwTle4EwB9smHWBwS4Tn39Xv7B1I+xUbySf5KDP9UBCwAqVcMXAWmNxkcyLxYnr1bgBAD7GaVXAH9X1euc767KrU/+0yjHjAL1Bl666qHUgubIG1TkDCiOts4zhc0QfF097yuFdcv+PuMrOfhTnbAAoHI0YhEQ6x18qsC9CYo3orbf8ufqDwK9ahzFb4z1L89ah9ktEG/gZE/mKB9yPqCvxuzX7wNBBD8D5NLc0sT3kBb/Uf/IwZ/qiAUAlashioCVGknsn3u1qp4LwfOtY5ZoHCLfc6IXZdem/mQdxvQNHOsZep6IvA+Kl1mfiAr8B6KfyC9NXYG0FCdv9dsowKusg82Gg39jYAFAcxHaIuBMbYq3Zt8MxQUADrKOVkGfrlfxP1FY2/kruwgG2rsyL3QOHwHwAquOV5sC/3KQj/jQ13Pwp3piAUBzFbYiQH35K0Q/JMAh1nGqRYGfwukHC2s7flHvtuv6Bk6tHlpW9OUSAU6rd9v0KNzkp4GwAKBKhGzb4MYlsjE64a0aurRzsF5N1mcnwLS6RHf2DM/HbQKcDg7+ljj4E9HDQrZjYONSXVmMujviPUPnYKVG6tFkzQuAWNfmpyTGsreq6BWAJOrRKZqaAt/NjyVfy8GfiPY0vD42XPSbX6YK84Vp81w7IOvj+2d/F+/KHV7rxmpaACS6s2eIRH6rwNNr3RGa1XWF8eE38Jo/EU1ldF1bXv3oi8CZgCA4Cs6/Nd4zdE4tG6lJAZA6a2hpoifzVRW9AoLFtewAlYTT/kQ0K14OCJSFgKyP9WSuTJ01tLQWDVS9AIh1bX6Kt0huVeDU2p8fmg2n/YmoHLwcECwCnO4tlt/X4pJAVQuA9q7MC8VFfoHa7tVPpeO0PxGVjZcDAkbxRDj/l7HVQ1Xd8KhqBUCyO/Mq53ADgLa6nxyaCqf9iWjOeDkgcNqdLz+O9wy9vloHrEoBkOjJvskXfBvAIrNTQ3vi4E9EFWMRECwKLADkm/GezJnVOF7FBUC8J9Oj0C8DiFqfHOI1fyKqLq4JCJwIgM/GezJdlR6oogIg1p09DcBacGOfoOA1fyKqOq4JCBwB0B/vHnprJQeZcwEQ686cKKJfBgf/oOC0PxHVDC8HBI5A5PJET/Y1cz3AnAqAeHfuWSL4JjjtHxQc/Imo5lgEBE5EoV+P9Qw9by4/XHYBkFo9dCjEvx7AEuueE6/5E1F9cU1A4CwS4LttqwcfX+4PllcArLp7QdGTbwKIWfeYAPCaPxEZ4JqAoJFExHf/78D0PQvL+amyCoBEc/v6UDw3en7gtD8RmeHlgMB56shYyyXl/EDJBUC8e2ilAu+y7iEB4OBPRAHAIiBYBLoq1pM5pdTXl1QAtK0efDxEvmDdOeI1fyIKFq4JCBYBPtPWu/mgUl5bUgEQUfcpAK3WHSNe8yei4OGagEBpi6j7XCkvnLUAiPVm3gDFy6x7RJz2J6Lg4uWAIJGXlPLMgBkLgPiqXKso+q27QvIjTvsTUdDtvhwA4C/WWUjWpc4aWjrTK2aeAWjyPwxguXU3SDuxHJ51CiKi2Yyuay0A/LwKgH29xfKhmV4wbQEQ78k9CYL3WveAAABHxMayJ1uHICKaTaw3ewqAo6xzEADFOck1mRXT/fO0BYCo/z5wq9/AEMgnsOruBdY5iIimldZmp/iIdQx6WJPv6QXT/eOUBUBb1+DBKjjJOjntSQ+MN7e/yToFEdF0YqO5tylQ9pa0VEty6nS3BU5ZAEScuwD89h9E52GlRqxDUHDEuwefY9Z2b+7Z1v2nAFmpEYh2W8egvUSjGlkz1T/s9Sjf+JrcvvD8fwNotk5NU9GV+f6Ob1mnIENnalNiae4UdboKiqNNswhuFZVP5loS30BaitanhuzEu4dOhsg3rXPQ3gTYCV8en1uX/O+ef7/3DIDnnwsO/kHGCnveUol3D62Mt2RvV9ErzAd/AFAcrdAr42O5u+M9mTM5QzWPiXRZR6CpKbBAnZ7z2L9/9AxAWqPxsewDAJZZB6bpqfhPK/R1/s06B9VPvDf3bKh/GYAjrLPMRIA/q7qz8gOJ31pnofqJ9eafLOr93ToHzWgw35Lcd8+ZukfNAMS2ZF8KDv6BJ+rebJ2B6qP93EJ7oifzGaj/SwR88AcABZ4O8X+V6M1cFjsv32adh+pD1H+7dQaaVWd8JPPiPf/iUQWAKE63TkglOR1p5WWaBpfoyv6PixT/OPkUzrIe3W3MqeLdMuH9LbZ68LnWYajG0toM6KnWMWh2IvKoMf7hD5XJav1V1gGpJMn4SOY46xBUKyqJ3uwF6vRXAA62TjNngv3Fdz+N9WbPA1QqPyAFUWw082IASescNDsVvHbPmbmHCwDxiq8HsMg6IJVGnLzaOgPVwKq7FyR6s1eq6ifQGLfiRkX1onhP9pv7dj3Az5cGJE74xTE8Frmi/5rdf3hkWlHleOtkVDoFXou0hmlamGbR0rMpGW9u+6kqTrPOUgMnbZOFP265YDRhHYSqKK0OypnjUFF9eKyfHEBUABxjnYvK0pkcyR5pHYKqo7N3c0cTmm8G5FnWWWpG8Nym8Z0/T60e4kLjBpEYyx0FYB/rHFQ6FRy3+5KcA4BY1+CTAXRYB6Py+IIXWGegynWcM9g5oZFbAH2KdZY6eJLn48edvZv5edMAfNFjrDNQ2ZbFe/JPBCYLAHGOC8pCSAXPt85AlVme3rS4GHXfA/Ak6yz1I0+e0Mj1nb2bl1gnoco45WdQGInoccBkAaAqx1oHovIJ8AKuAwixlRrZPtr0dQDPtI5i4KgJjVyNtDbCQsf5Ka1OAd7mGUKq/rHA7hkAwTOsA9GcxNtGhg60DkFzE98/u1YE8/lujhPiY9lPWIeguUmOZg8BELfOQXMhzwAAl1yTaQEXcYRWk7gnW2eg8sW6MycCONc6RwD0Jnqyr7EOQeVTEX72hNe+qbOGljpMYAWmeCoghYOK8k0YMrHz8vuL4ErwfQcAotAvxrtz+1kHofKo6uHWGWjOZGIhDnVeBIdZJ6EKqPBNGDLieZ8DELPOESBxiP856xBUJplPC1cbjzhZ4QR4gnUQmjsFDrDOQKVLdGfPgOJl1jkC6OWxnswp1iGoHHqgdQKaO/GxwkFxqHUQqoBguXUEKk3svHwbnPZZ5wgqAdZNrkmiUBCuHQsxAQ5zUOUqzhATYDkftBISE8XzVJGyjhFgnb6HXusQVAoVcPF4qKmg00HcUusgNHcKLGg7f6TdOgfNLLkms1wg51jnCIGe5LkZDiwB13LBWBwAH0kebkkH+K3WKagyEd/jjmoB53vohWCxdY4QWOJH0GUdgmYW9Yv8zAm/uAM4AxB2EfX4mNUAi6/KtQJ4q3WOEHnnns8sp+DhZ074iWChA3wuugm5oirfjEHW5J8JgANa6VrF895iHYKmVyz6C60zUGVUscABwl9kyDmNLLDOQDMQvNk6Qugo3mEdgaYXVddknYEqpIg6EWyzzkGV8dQbt85AU0t2ZY4GwM2ayvek9tVDR1iHoKmpylbrDFQhwbhTxZh1DqpMRCI7rTPQ1HzBqdYZwsqpnG6dgaamzcJxI/zGHcACIOw8RLZbZ6CpqeBE6wyhpTjBOgJNTYUFQPjJNhYADWCB7MxaZ6C9tfVuPkiAQ6xzhNiKtt7NB1mHoL0V/hPbYp2BKiSadRDwFxluOwb7lvF6XAA5jb7cOkPYRTTyEusMNIWN4gHgzGOYqeScQoesc1BFNlkHoOnos6wThJ/wHAaWDFonoIo85JyPu6xTUEXutA5AUxPgSOsM4adHWSegaajPsSPEVHCHU+gd1kGoAsoCIIj27XpgEfio7Wp40oHpe7hXSQCpOH72hJhT3OnUNfGXGGIqLACCaGtkyeMBRKxzNIDo2HALFwIGkOOXj3DzcKcr7MzdDcCzzkJzE+GbMJj84v7WERqFRjyeyyBy/OwJMS/nFf7jsOHQnQLca52G5ijKN2EgiXDQqhZxPJcBpE54+Ti8/oMNh+50AADBb6zT0Bwo7s9ekuJdAAHkoEnrDI1CVFPWGWhv+UsSDwK4zzoHzYX+GgAcAKivt1jHoTkQuck6Ak3NVyy2ztAofHE8l4GlP7VOQOUTuFuAyQLAl6afWAei8qmChVtACYSPaK4SUWUBEFC7BxIKFw+RnwKTBcBwf+w+APdYh6LyOBYAgaWifFxqlSi02ToDTU1VbrbOQGW7e3LM31UAAAAU/EWGyx25dcn/WoegqTnwcanV4pTblQdVfiDxgAL/ss5BZZBHxvqHCwARud46F5VBwN9XgCkHrWriA8sCTJRjR5g4/5Gx4+ECINeSuBbQnHU4Ko0vepV1BpqB46BVNYJR6wg0Paf8LAoPzWVbkz/c/adHLgGkZVxErrGORyW5fXhtx1+sQ9D0xNdh6wwNQ92IdQSaXnZd6lZAb7POQbNTuK8jLeO7/+we84+s5MJA8RXrCDQzT/Af6wyNwo94/7bOQDNTuK9ZZ6DZOeCqx/z5Efm+xG/Ap8sFnY+o+6Z1CJpZc1H5PqqSou/xXAac83EVuKV80N2V60/+Yc+/cI99hYp82TolzeiGyR24KMCGLu0cBFCwztEA8mP9y7PWIWhmk3ck3Widg6angi889u/2KgBkp3wG/OAKLIVeZJ2BSsVHbVdM8U/rCFQi9T9mHYGmNYJI5PLH/uVeBUB+Q2IUkE9bp6W9KXBLob/jl9Y5qEQiv7KOEHYC5X/vIZEf6Pw1FL+wzkFTEKwvXBzfazGtm+q1E83N68F7bwPHqXzcOgOVjs/YqJwKz2GoiM/PqODZMqETn5rqH6YsAMYubM0BuBwUJL/LDST5zIYQiUTlFwAmrHOE2HiTcAYgTPL9nT8C8IeKD0RVI9BPTbeOxk33QxGnfQA34AgO9wHrBFSe7CWpMSh+b50jxH472LeMWyqHjEI/ZJ2BHjYcFX/ddP84bQGQWduxGUDaOj0BENmY70/82DoGlU+ccnOtOVLI1dYZqHyF/o4bFPiudQ4CROQDg33Lhqb7dzfTD+fvT34SwF+sOzGvKbb5GlltHYPmZudO7xvgZYC5GC9inMVTSIm6swE+D8OSKv6Uuy/xmZleM2MBgI3iiS/vBOBbd2Ye+9DuRzdS+GzZsE9GgB9WfqR5RvU63v8fXrueEshFy4Z8ce692Cgzbs7kZjtKbl3y94B8xbo389Tt+S3JS61DUKXkS9YJwsbxMyf0Ci2JAQj3cTDyhcmdfWc0awEAAL4X6QFwj3WP5hMBdjrgTbhcOH0ccrmWxPcB3G6dIzQE/8y2Jq+1jkEVSsu483AGgPGKj0XluK/oN19QygtLKgCG18eGBXIy+IusH5HebH/qj9YxqArS4ovKJdYxwkKBjyEtvOzYALLrUrdCcJ51jnlkAureMLquLV/Ki0sqAABg8iEC51v3bn6Qb+X6kp+q/DgUFLkHEl8DcLd1jqAT4N+FpUku/msg+b7kpVD9jnWO+UCgPfmBxG9LfX3JBQAA5PuT6/mLrC0B/q1R93brHFRlG8VT4W21s1HV9yEtRescVE2ivt/0VvAyck0J8INcf6qsL45lFQCAqNfc/DbwkcG1ssVTXTnVns0UfoW+1NcB3GydI8Buyg908N7/BjS8PjbsfJwEgBs71YLgn54XPQMQLefHyiwAgJGL2guIuBdDcb91nxvMBOC/fnig48/WQah2nOLdAuy0zhFA4wJZZR2Caie7LnWrqLya//1X3X99jb58eH1suNwfLLsAAID8JYkHoe4VAEpaaECzUlF5++Q+2tTAsgOpu3yRPuscgSO4ONef5OOTG1xuIPkTH3gLuLdMtYyo+K+Y614xcyoAACC/LnG7iLwCnNKphp7cQPJK6xBUH4WliTQUfFTwI36XH01+1DoE1UehP/UNUTnbOkcD2K7QEwt9nX+b6wHmXAAAQK4v+TtVPQnAduszEWIfyven1lV+GAqNtBQBdwqgOesoAVDwET2Z+13ML7mB5Kch+LB1jtBSbFPo/xb6Oyp6WmZFBQAAFAY6rheRY/lhVjaFoiffn/qIdRCqv/xA4gEVme9Tob4KTudW1/NTvi+VFpX3Yn6/B+aioKIvLfR33FDpgSouAIBdMwFA5AUAHrQ+MyExDtVT8gOpAesgZKfQl/qBzueFb4KeQl/qOusYZCc3kPy0iLwewA7rLCHxkK/+sZV+89+tKgUAAOT7E//wEX0eeIvgbLbAuVfydicCgEJ/8jJVvdA6R/3Jx/J9qfXWKcheri/5Had4BYBR6yyBJvinRiPPGh7o/Gv1DlllrV0j8Ygb/7IAr6rv2QmF2wF3Ur4/8Q/rIBQkKvGe7OUA5ssGUJfn+5PvKveeZWpssd78kwXeNVA80TpL0CjwXfWib5nLrX4zqXoBMBlX4j2ZswG5BEBz7U9P8ClwVbN47x7sW8a7JmgKKvGe7MUAVlsnqXE3P5lvTXRxr3+ayr5dDyzaJgsvheAd1lkCoqgi7y/0JS6pRcFcowJgl2RX5mjf4WoAB9eynYDbDsE5+b7U562DUPDFe4bOAWQdavzeNKAQfCTfl0pbB6HgS3Rnz1DRywAssc5iRnE/nHtDKY/1nauaf8i0nT8ci0wUBwB9Uz3aCxTFL0TkTG5wQuWIdWdPE+jnIFhsnaVKtqrgzMmtkIlKEu/JPQnqXw7Bc62z1JlC8SXfj/ZWe8r/seo2IMd6hp4ncJcB+pR6tWkoD+CCfH/y87zOSXOR6Mk+QYFrGuD9cof63kmFdcv+bh2Ewkgl0Z07XUXXAuiwTlMHf4X6Z+UHOn9dj8aqdhfAbAr9Hb/MtySOBPRcNO5qT1+BqyYwsSLfn7qcgz/NVa4/eUeTFJ8NyFess8ydfGlhy8RRHPxp7kRzA8krfS+6AiqfBOBZJ6qRrSpyfr4leXS9Bn/AaEo+eW5mHz+C1QDORGNc4/Eh8m2F97FKtmUkmkqyN3OMr/g0gCdZZynR3YC/is+2oGprXz10hPPxAUBegzp+ga2hrQA+Gy36a4cu7Rysd+Om1+RbejYlm6TpvVCcDSBmmWWOfIh8W4r4UG598p/WYaiBrbp7QaK5bbWqXBDgtQFbReTjuaWJfqRl3DoMNa621YOPj/huDYC3Aoha55mDMah8ORLxL8ys7dhsFSIQi/Lazy20RyITZynkbQjHHQN5hX7D93VgZF3nf6zD0PyxdNVDqeYF0fdAcQ6Adus8k7ZA5UvO14uy61MPWYeh+aNt9eDjo750K+QUhOBLpAD/hsgX/Yi7rHBxfCQAeYIl2ZM5ylc5A6JvBJC0zrMHD8AtonLVgtbxb21KL99mHYjmr9aukXhUxldN3i/9OKMYDwL4vNfUtGHkovaC9TmheWzV3QtiC9qPF8jpUH01grX/zIgC33ciV+b6Ej8J0tqwwBUAux2Yvmfh6NiSEwGcCJVjIdjfIEZBgZ8B+FGxecHGsQtb+cAjCpa0uthY5jkCOR3AGwEsrXGL2yFyrUKvKixN3rDryYZEwdHSsykZ1eaVgL5UBC+EzUzZfYDcAvWuzU+MXosNh+60Pi9TCWwB8FiprqFDPCfHATgWiudAsF8N8mchuFWBmyOKm7P3J/+CjdKoq06pwSxPb1q8YyzyfFE5VkWOA3AkgEiFh/UA/FGgN6uL3LJwyc5fcvaLQmOlRpL7Zp/uOTlORI+F6jMASVS5FQVwP4BfQ3CLJ/7NI2s7/23d9VKEpgB4rM7ezUt2+u4wcbJCfKyA4AkAlgNITP5vgQCLFViAXY+bHMGuD7McIDmFDjnVOxW4C9A7JhYsupPf8KmRxFflWmWBPhE+VvjwnyDOHaaqCQFaBGjXydkCAbYoMKzAmIjkVHGnU9wJxR1alDvyGxKNetsuzUMtF4wmmnZuXwHIE0RkhQ8cJpAOQHePHREAbQCcADsV2AZgJ4CcCLKq2ATgDqje6QN3LW4t3hnWovj/A7ZMdOT6/vtVAAAAJXRFWHRkYXRlOmNyZWF0ZQAyMDIwLTA2LTA0VDE1OjQzOjA4KzAwOjAwrVD15QAAACV0RVh0ZGF0ZTptb2RpZnkAMjAyMC0wNi0wNFQxNTo0MzowOCswMDowMNwNTVkAAAAZdEVYdFNvZnR3YXJlAHd3dy5pbmtzY2FwZS5vcmeb7jwaAAAAAElFTkSuQmCC;fontFamily=Comic Sans MS;fontSize=17;fontColor=#000000;" parent="7312b831-07d3-11eb-b423-c9350188184f" vertex="1" >
          <mxGeometry x="115" y="80" width="70" height="80" as="geometry" />
        </mxCell>
      </object>
      
      
      <mxCell id="7312b857-07d3-11eb-b423-c9350188184f" value="" style="group" vertex="1" connectable="0" parent="1">
        <mxGeometry x="1070" y="12.5" width="300" height="215" as="geometry" />
      </mxCell>
      <mxCell id="7312b858-07d3-11eb-b423-c9350188184f" value="" style="rounded=1;whiteSpace=wrap;html=1;fillColor=#D5DDE5;strokeColor=#EBEBEB;fontColor=#D5DDE5;" parent="7312b857-07d3-11eb-b423-c9350188184f" vertex="1">
        <mxGeometry width="300" height="215" as="geometry" />
      </mxCell>
      <object label="" id="7312b859-07d3-11eb-b423-c9350188184f" Type="label">
        <mxCell style="group;fontFamily=Comic Sans MS;fontColor=#FFF11F;" parent="7312b857-07d3-11eb-b423-c9350188184f" vertex="1" connectable="0">
          <mxGeometry width="300" height="60" as="geometry" />
        </mxCell>
      </object>
      <object label="Platform"   Type="Tier" id="7312b85a-07d3-11eb-b423-c9350188184f">
        <mxCell style="rounded=1;whiteSpace=wrap;html=1;arcSize=0;fillColor=#195190FF;strokeColor=#6c8ebf;fontFamily=Comic Sans MS;fontSize=22;fontColor=#FFFFFF;" parent="7312b859-07d3-11eb-b423-c9350188184f" vertex="1">
          <mxGeometry width="300" height="60" as="geometry" />
        </mxCell>
      </object>
      
      <object label="IoTHub" Type="PlatformNode" id="7312b85b-07d3-11eb-b423-c9350188184f" Tier="7312b85a-07d3-11eb-b423-c9350188184f">
        <mxCell style="shape=image;verticalLabelPosition=bottom;labelBackgroundColor=none;verticalAlign=top;aspect=fixed;image=data:image/png,iVBORw0KGgoAAAANSUhEUgAAAgAAAAIACAYAAAD0eNT6AAAABGdBTUEAALGPC/xhBQAAACBjSFJNAAB6JgAAgIQAAPoAAACA6AAAdTAAAOpgAAA6mAAAF3CculE8AAAABmJLR0QAAAAAAAD5Q7t/AAAACXBIWXMAAA7EAAAOxAGVKw4bAABPd0lEQVR42u3dd5xcVf3/8ddnNgnZEEoA6ShFinwtkAQCokhEIGZ3dkNxAQt2QfyCAgrqz68GbKCCYldELICwQJLdmQ1RSkBEKUnABoRehFAEAgmpu/P5/TEbDZCyc8ucO3Pfz8cjD75fM+fcz+fuyZzP3nKOIY1lqhcYxzHAscA4YEugJXRYEtwA8DQwB+d3zONyplol0SNo7MmapT/2JBUWOgCpwUzfhQGuBPYKHYpk3jyM99BuDybSm8aeDF2yY09SowKgUVS/gP8CvCZ0KNIwnsHYL/YXscae1C6ZsSepKoQOQIag21sGf/vSF7DU4jU4VzDVo/8719iTaOKPPUmdfjiNoJWj0aVXiWYs4+mK3FpjT6KLN/YkdSoAGsN7QwcgDcw5NkZrjT2JLt7Yk5SpAGgM40IHIA1tfIy2GnsSR5yxJylTAdAYdP9V4tgqRluNPYkjztiTlKkAaAx611riiDN+NPYkDo2fDFMBICIikkMqAERERHJIBYCIiEgOqQAQERHJIRUAIiIiOaQCQEREJIeGhQ5AUlY0bfjULEruoUOoicZe82i0sSdDoisAIiIiOaQCQEREJIdUAIiIiOSQCgAREZEcUgEgIiKSQyoAREREckgFgIiISA6pABAREckhFQAiIiI5pAJAREQkh1QAiIiI5JAKABERkRxSASAiIpJDKgBERERySAWAiIhIDqkAEBERySEVACIiIjmkAkBERCSHVACIiIjkkAoAERGRHFIBICIikkMqAERERHJIBYCIiEgOqQAQERHJIRUAIiIiOaQCQEREJIeGhQ5AUlb2M0KHIAnx0AHUSGOveTTa2JMhUQHQ7JyzQ4cgOaWxJ5JpugUgIiKSQyoAREREckgFgIiISA6pABAREckhFQAiIiI5pAJAREQkh1QAiIiI5JAKABERkRxSASAiIpJDKgBERERySAWAiIhIDqkAEBERySEVACIiIjmk3QCbnXNO6BAkIUZjba+rsdc8Gm3syZBY6ABkCEoefTfuouln3CxCjAONPQGNgyalWwAiIiI5pAJAREQkh1QAiIiI5JAKABERkRxSASAiIpJDKgBERERySAWAiIhIDqkAEBERySEVACIiIjmkAkBERCSHVACIiIjkkDYDktqUfWdgX5wtMV5ggPtZzi102UDo0KTJ9fpOFJjwn7HnPMBS/qKxJxKNCgAZmj6fxABfxRn/n//NqV5DauVpSn4uo/k+E21ZIsfr9hZG0UaFNoxdgY1Dn4IIKsBTwBzgcop2T+iAGlLJDwXOAiawakuaVf9t5RlK/l2W8j26bGkix5vqBcbRhtPe4GPvaWAOxuW0292hA5Ls0S5NjSDkTlzd3kIr5wEnD+HT82ihk8n2r1jH7PHxFLgIeGOsfrKlAvwS+DRFWxKph7ztBlgde98CTh3Cp/9KgU7a7JFYxyz5WOAi4M2x+smWCvArRnAyh9lLEc+LdgNsQnoGQNatle8xtMkfYCwDXMt03zTy8Up+KAX+SHNN/lD9t/YxnBvp8Y1CB9MQRvFthjb5A7yFCrMp+RaRj1fyg4GbaK7JH6pj7yOs4CZmeiNezZCUqACQtev1duB/a2y1O8P4XqTjlfy1wOVAa+jUU2OMp8CFocPIvLIfhnNKja12As6PdLwZvgNwBTAqdOop2psBfhU6CMkOFQCydsbXIrb8ACXfI0K7s4BNQ6ddB++h5G8LHUSmVSKPvWMpe+1Xj1qYCowJnXYdHE7JDwodhGSDCgBZs7K/AXhLxNYFjPfU1KLko6DGNo3tw6EDyKyZvgu22sOmtTFqHUfd3gocHTrtOtLYE0AFgKzdvrFaOxNq/Pw+NPfl11c6MHQAmTVQ49h5JWe/mj7fyjhgw9Bp141p7EmVCgBZM2fLmD1sXePntwqdcp1tEzqAzLI6jz3P2djzmv9tSpNSASBrsyhm+xfqfLxGU+v5yY9Kncee5W7svRg6AMkGFQCyZsb9sdp7je1buCt0ynWWt3xrEW/s1dp+gLv579JCeaCxJ4AKAFmbJfyReL+llmr6dJs9gjMndNp1dFXoADJrI24GnovRQ21jb4o9BtwWOu060tgTQAWArE2XrQC+H7H13WzErAjtzgyddl0YDzNa72Ov1UTrxyKuJQHzGV1jAQDgORl78BhLtQ6FVKkAkLWr8G2g1jXEV2Icz0Trr/l4HVYGfhI67ZStAI5LbM+EZjWc84B/1NiqH+OTEcfe1Tg/CJ12ylbifCCxPROk4akAkLXrtEVU6ACGur76SoyP0243RT7mUk4CzqM578k+AxwW6/zkxWH2Ek4H8OAQW/TjnEC7zY58zGWcAnyb5hx7z+JMosNuDB2IZIcKAFm3TrufFvYBrmTdX4x3U+BdtNuvYx2vywYo2mk4bwVmAM3w28ojwNkMZw+KdkPoYBpGhz0ETKC6PPS6xt58jEPpsHiXtqtj73RgP2A6EG3Tpmx5FOccVrI7HXZ96GAkW7RLUyPIyk5cfb4XFbqoLhK01eCe7PcCvYymHOnS6/rM9A3oZ1sKbJZ432lz+inwFG32ZCL95W03wNX1+JsxjsbYF9ga4wXgPqDEhvRq7L1CM4w9SZ1+MI1A//gE8l0ASFgaB01JtwBERERySAWAiIhIDqkAkGjKPoZuHxE6DMmh6b6pxp5IfMNCByANottbaeUTVLdNHYczglag5A8AZZzzB5/aTs5sH8ZL7A/sjLMl1mAFq7MMZwEF5tBuQ32dTV5pto/kJT4OHD24a+QIhgElfwinzDDOZ7I9kOgxu72FVvbH2KVhxx48SQtzEj830jT0cEYjCP0ATsnfBvwO2H4dn1qBcSZtfBOzeO9Rz/QNGOAU4DRgi9jxZ8NfcL4Q6z3sPD4EWPL9gcuA167jUytwvk6RryY09j4NfBZ4Tez4s+FWnC/Geg0w9DiQVDRWVSv11+vvBq5j3ZM/wAicr9MXcyW/km/BALOBb9I8kz/A/hjXU/LPhw6kYfT4IcBs1j35A4zAOJMyv4h1vGm+OQNcC5xD80z+ABMwrqXX/1/oQCRbVADI2k33HTEuA4Z+v9U5nrJ/ItLxqvd1pwP7h049JQXgm5T846EDybwZvgMFuoENamj1EUr+qUjHm+PDGcY04G2hU0+JYXyNsn8ydCCSHSoAZO2G8TVg45rbOV9nptfebhQn0rxfwKs7jz7fOnQQmdbCV4FNI7Q8i7KPqbnVk5yAcWDotFPnnMtMX9/VPMkJFQCyZtN9U6ArYust6OeImlq4G86podOuk9FUOCF0EJnV7aOBYyK23gznqJpaVMfeaaHTrpNWBjg+dBCSDSoAZM2GMREYHrl9gUNr+nwvbwJ2CJ12HU0OHUBmjeQgarv0/0q1jb0SewKvC512HbWFDkCyQQWArJnF/kJc34NbL1dg59Ap11ne8h26eo89y93PIm/5ylqoAJA1q8R8RdRpSfXzjS9v+dYi7mtjtZ7bvP0s8pavrIUKAFmbx2O2/1eNn380dMJ19kjoADIs3tgzjb310NgTQAWArE0/NwADMXq4rqZPL2Me8EzotOvGmRU6hMwazo1AnO19axt7c7kTSGbb3MagsSeACgBZmyPsaeDqiK0X0cJVNbXosgHgx6HTrpMVDOOC0EFk1iR7DihFbP0SxhU1tZhqFSw3Y28l8LPQQUg2qACQtTO+ACyP0PKbTLbaf5tfyncw7gqdduqcs7Q++3p9EVhWcyvnW7RZ7b/ND+c84O+hk66Dr1O0+0IHIdmgAkDWrt3+gXE8UMs64L3M5ZxIx+uyxVRoB5r5C+onFPlG6CAyr2j3AB8FKjW0mskyvh7peIfZSxQoAvNDp56iC2jnrNBBSHaoAJB1a7dfU10QaNF6PunAT9iGo5hqtXxpv1yHPYQxYfCS7MrQ6SfoUeD9FO3E2BvW5EXRLgWOBF4YwqcvYCmHD95KiqbNHmEkE4Af0lxj7zGc4yjaJzT2ZHXapakRZGEnrmm+JcM5nWoxsPqCPS/h/B74Nh12S6J5T/PNGc5hwK44rYn2XT//xpjDUm6KNTlBPncDrMawBfxn7K2+RsAS4A8Y36bd/pzIsVaZ5ZuxgsMwdmvosVdgLhtyExMtzkOV2RgHkjj9YBpBlv7xuRu/Z2sG2ArnRZbwL7psRehTlAt5LQBWN8u3YYCtMBYB/2KyRXlGRWqVtXEgiRgWOgBpMNVLiAsG/4jU1yTT2BNJiJ4BEBERySEVACIiIjmkWwAydH2+NQN0YuwLbEn16ez7qdBDp90ROjxpYtWHUDuB/Vg19owHgF7abW7o8EQakQoAWb+SjwK+SoVPYWvYprXAVyj5tRgn0253J3LMWb4ZKzke6AB2ovql32gPEy2nusTs7cCltDNDr2HVqNtbaeVM4CRg5Mv+rnomv0zJZ+OcRIf9M5Fjln0M/p+xtzONO/aeAm7H+R1FpmnsySs12qDOp5BP4FZ/85oJjBvCp18E3kPR/hDrmGU/BucnwKax+smevzDA0UyxxyK1zttbANXX//qAfYfw6cXA0RRtZqxj9noXxk+BMbH6yZ5bKXA0bRZtIyC9BdCU9AyArF23j2A40xna5A+wMXAVff6myMfs9eNxLqX5Jn+A/WnhFmb4DvG7anJzfDjOVQxt8gcYDXTT53tFPmbJP4ZxGc03+QNMoMIt9Pnr4nclzUIFgKzdKE4C3lpjq9FUuAD32qv+Ht8b4wc095WpbWnh8kjnJ08W8EmMA2tstSEVfh7p3Jb8LVQ3o2rmn8vWVOhmqut7XwAVALI23d6C87mIrSfQx0E1tyrwNWB46NTrYH/KTAkdRGZVJ6jTI7behzKHRGj3VfIx9vZlPEeGDkKyQQWArFkr+wNbRW7vNU5w03xz4NDQadfRe0MHkFn7sA+wXYweptT06Vm+GfDu0GnXjWvsSZUKAFkzY8+YPdTWvoWx5OutlH1CB5BZlTqPvRXshcae5JAKAFkzj/0Q3mY1fbpQ4+cb3xahA8iseo8909iTfFIBIGtm/DtmD0/V9OkKz4VOuc7int9mVt+x5xp7kk8qAGTNBoi7st+dNR5vHhBvu9xG4mj1urUpxBx7VuPYG8GdQLztchuLxp4AKgBkbTq4E3ggRg9X1vTpI+xZ4LrQaddNgctCh5BZ7fYP4J7I7a3GsTfJngOuCZ123bjGnlSpAJA1M3OcM6O1pYeizau5nfMl8nAVwJnDHK4KHUamWcSxBzNps1sjHO//yMdVgDuYx+Whg5BsUAEga1fkYqj5y+JJCvxvpON12O3AaaHTTtnTQBdTrRI6kExr43Lg0hpbPcUAJ0Q6XnVDoVNCp52yf9PCezT2ZBUVALJ21c1DPgLMGGKLR6hwGJPtX5GPWbTzB4+5OHT6KbgDY3867KHQgWSembOUjzH0W0mPUWBS5H0WAIr2Q+CDwKLQ6afgr1TYn8kW57aeNBkVALJuRVvCXI7EOQFYsJZPrcT4MTCeTvtbAse8iAK7Ynyd6sOES0KfhhieBmYC72cu42m3B0MH1DC6bCntdAEfBx5fy6dWYvyMFsbRZnfGPmbRfsNKXk91ZcA7aOyx9wxwNc5xLGUcnXZ/6IAkW5p53evmkZWduGb7MF7i7VQ3aNkK50Wc+RSYRbs9H/o0Nb287Qa4um5voXVw7Blb47wI3MtwZg0+xCdpyso4kETlafUriWui9QOzB/+I1E+XDQA3DP4RkQToFoCIiEgOqQAQERHJIRUAIiIiOaQCQEREJIdUAIiIiOSQCgAREZEcUgEgIiKSQyoAREREckgFgIiISA6pABAREckhFQAiIiI5pL0Aml3ZzwgdgiQk+nYsYWjsrZtTAZ7CuJ8l3Dq430H6ur2FDdiPArsAW2FD+EWw0caeDIl2aWoEcXbiEoEwuwFKLZ7EOIcN+eHgplvJ6/YRjOIknNOBLeuWmXYDzCzdAhARCW9rnO+ymFlc45sk3nvZx9DKH3C+Qz0nf8k0FQAiItlxMMu4nG5vSazH2T4M5wrgHaGTk2xRASAiki2HMZIPJNbbIj4KHBw6KckeFQAiIllT4HOJ9WWcFjodySYVACIiWePsSa/vFLufPt8N2DV0OpJNKgBERLLI2Dl2H078IkKalgoAEZFsiv8goCfQhzQtFQAiIllU4ZHYfRiPhk5DsksFgIhI1hgP02nzY/fTxj+Bx0KnI9mkAkBEJHvOT6QXM8f4UehkJJtUAIiIZMvtFPhJYr0t4fvAnaGTkuxRASAikh1/p8IUJtvyxHrssqUM0IFxV+jkJFtUAIiIhLccOI+lvJVOeyLx3qfYYxTYn+qthRWhk5Vs0HbAzc45J3QIkhCjsbbX1dgbiiXAPQzwBw63hakeabK9CHyGsp8JHIazO07rkNo22tiTIdE2jY0gzpas2oqzeYQYBxp7AhoHTUq3AERERHJIBYCIiEgOqQBoDAN1biciIk1OBUBjeDpiuydDBy4iItmkAqAxzInY7vbQgYuISDapAGgEzu8itrwsdOgiIpJNKgAawTwuB+bV1MaZw1yuCB26iIhkkwqARjDVKhjvYejPAjzNAO9hqlVChy4iItmkAqBRtNuDGPuzvisBzhyc/TjcHg4dsoiIZJcKgEbSbg8yl30wjgV6gSeoruv9BEYPcAzzmECHPRQ6VBERyTbtBdBoqpf1L0MP+ImISAy6AiAiIpJDKgBERERySAWAiIhIDqkAEBERySEVACIiIjmkAkBERCSHVACIiIjkkAoAERGRHFIBICIikkMqAERERHJIBYCIiEgOqQAQERHJIRUAIiIiOaQCQEREJIe0HbBIVpR9DAPsAoyhhU1xWjFGAmMA8NABikgzUQEgUm8l3wLYH9gX2BXYGdgFZ7P/XJPzV/xXRCRhKgAakbvRx1gqjKfAplRYSIE5tDEPM00ZWTPTt6fCoThvozrx7w5YXWMo+zHA72m350OfDhHJhvp+CUl8ZT8C55vAbmv42/nA5ynajNBh5l7Zd6bCERhHAhPIxr+1fuBmnDIVLmeKPbbeFiWPXlAWLQs5SxI0DpqSfjCNovpb/7k4pwzh0+dStM+GDjl3rvFNWM6HcY4D9g4dznpUgBswfsMSrqLLFq/xU/riF9A4aFL6wTSKkn8e+GYNLc6gaN8KHXYulP2NOJ8C3g+MDh1OBC8AF+L8kA576GV/oy9+AY2DJqUfTCPo9Z0w7gFG1NBqOQV2p80eCR1+0yr7u3C+CEwMHUpCBoBeKnyVTrsD0Be/VGkcNCWtA9AICpxIbZM/wAZUODF06E2p1/eh5NfgXEPzTP4ALcDhFJhLr19Fn78pdEAikh4VAI3AmRSx5btDh95USr4HJb8S41bgXaHDSZFhHEGFO0MHIiLp0WuAjWHHiO12Ch14U5jjw3mSU3HOovYrMY1MvyCINDEVAI0h6oNljfhAWraU/a08yQU4e4YORUQkSSoARNak20fTytk4n0S/CYtIE1IBIPJKfb4bFa4C3hg6FBGRtOg3G5HV9XonFW5Dk7+INDldARABmO3DWMTXME5H62OISA6oABD5vW/IYq7COCx0KMCzwL3AMxgvUWERxgs4FQCMDXFGYGwNbDf4Z+vQQYtI41EBIPk2zTdnBX1UN+ypt/uorsd/C87drORejrBna+6l+sDim4C3AGOBg6huMywislYqACS/qtv0/r6Or/gtweihwtUMYzaT7V+J9FrdyOcvg3+qZvgOtPAu4HDgUGCDOuUoIg1CBYDkU4+/ngGuA16b8pEqwPUYFzPANDptUV3yq271exFwEdN9U4bTifMx4G11OX5IZR/DALtgvI4CmwOjcFpxNgEWUeAlnMUYL2A8xXLu4Qh7OnTYIvWmh50agTbiSFaPb0uBP5HuSolLgQvp51wOt4dDp7xa7m+mhRNxPgiMTPVYw9mWSbYg5Xy2osBbqRY2+wF7AJtF6GkhMB/jH1S4EeN6ivZ4qrE3En0HNSX9YBqB/vElp+xjcG4E0troZiHOj+nn/Ez/Vlktgs4APkF6hcDf6OcdHG4LE+21uv3yUcCRpPu65nyM63B+Rzs3Yxb932Gj03dQU9IPphHoH18ySj4K4w84B6TQewXnF/TzxUgP8oVSLQTOBt5PGt8Hxs0s4RC6bGmsfmb5Zqzko8BHqP6WX28PABdj/IZ2ezDA8cPSd1BT0g+mEegfX3xTvcA4pgMdKfR+GxU+RafNCZ1mZD1+AAV+AOydQu+X086xkX6DnuF7UuDTGO8HRoU+TUAF40qcb1C0v4YOpm70HdSUtBKg5MNYvkTyk/9y4NPMZf+GnvwBOu1mRrMvMBVYmXDvR9PHl2pqMcN3oOS/ooW/Y3yCbEz+AAWcLuAOSl6ix8eHDkgkKlVmjUDVdzwlPxS4mmQL3vkUOIY2uzN0eokr+zicS4DdE+zVcTrosPI6P9XjG1HgS8DJpP2QYjKqt35G8AUm2XOhg0mNvoOakq4ASHMr+WuBS0h2rP+apYxvyskfoN3m0sK+wIwEezWMXzHDd1jrJ8r+Lgr8HTidxpj8AQoYn2Al8yn7R3DXZCcNQwWANK/ZPgzoBrZIqEfH+DxF+9Dg4jvNa7K9SDtHAP8HJPX0++a0cNngz+W/enwjyv5TnD8ArwudekRb4FxImV6m+eahgxEZChUA0rwW8zmSW+K3H+fjtNs5odOqGzOnaF/DOI7kngt4Ky9x+n/+vx5/PQX+gnM8zXFLsp3h3EnJm3/BJWl4zfAPrvnp/lvt+nw3KvyVZC4lL6bCEXTaNaHTCqbkk4ErSOZhvOUY44HtcH4HjAmdXgr6gdMo2vdDB5IIfQc1JV0BkObjblT4OclM/stwOnM9+QMUbSZGJ7Asgd42wJmJ00dzTv5QXWb9fHr9bD0XIFmlAkCaTx8fB96RQE8DwAfosOtDp5QJ7XYtxtEkcztgB6AldEqpM86gzK+Y48NDhyLySioApLlM901xzk6gJ8f5MEW7MnRKmdJuvcDHQofRYI5jAZfQ7c1f8EhDUQEgzWUYZ5DMZeWz6LDfhk4nk4r2G5z8PAyZjPcwih+FDkJkddoOWJrHLN+GlZwUux/jGuZwVuh0Mm0eX2QcewLF0KGsxRLg7xiPUGEhxkJgIcaGVNiQApvi7EJ1X4HX1CUi53hK/iRFmxr65IiACgBpJv18CdgwZi+PUeB9TLVK6HQybapVKPsHcf5K9X5+aC8BMzF6gbks4V66bGBILaf5lgzjIIyJQFvK+XyFXn+YDvtV6BMmoqdTG4FewVm/su+Mcw8Q52GrAYwDabc/h06nYZT8IOA6wtxOdGAWcAFLmRV7x0Gobho1loMG1z44BtgghbiXYEyg3f5R39MVg76DmpKeAZDm4JxMvMkf4Eea/GtUtBuA79T5qAPAZRQYS9EmU7TpiUz+UL2y0WHXU7QPAbvgfI/q7YQkjcLppttH1/WsibyCCgBpfNUv0g/F7OVfVGrcsU5WORPj4bocyZlDgfEU7djU92Io2uN02CnAG3CmJdz7G2jVQ4ESlgoAaXytvB/YJGYvJ9Fpi0Kn0pCKtmTwCkyaFgOfYRn71X0TpqI9SocdiVMEnk6w5+Po8UPqmovIalQASDM4MVZrZxZFmxE6iYZWtBIwM6XeH6LAWyna+UN+sC8NHVamwt7ADYn1WeBHzPQ0njMQWS8VANLY+vxA4E2x+mhhaug0mkL1FkpSOweuchMtTKDN/h46PQA67QlGcwhwUUI97kpltc2RROpIBYA0tgrHxOxhJm12a+g0mkKn3QFclWCPZZbyLibbM6FTe5mJ1k87H01sMSTnC/T4tqHTkvxRASCNa6oXgCkxezkzdBpNxZmVUE83sJQuumxF6JTWyMzpsM8PviUQVysFTgudkuSPCgBpXHuzP7BNjB6up2i3hU6jqRgfT6CXubTQmdirfWkqcipwSQI9Hc9Mr8+KhCKDVABI42rhyFjtnV+ETqGplP2twISYvSykn6OYbC+GTmdIzJwWPgrMi9nThlT4dOh0JF9UAEjj8liX/59jI6aHTqHJxJ/AjE9wuD0cOpGaTLblVFcNjFe0OCfQ7SNCpyP5oQJAGlPZdwZ2itzeuYSJtix0Gk1jhu+Ac0SsPowLabcrQqcSSdHuw2M/zb85rbSFTkXyQ5sBSXJm+gasYBcK7IqxI8ZrcLYBNhr8xChgCc7zGIuoLu7yDMZ8CtzDZPvXkI/l7B8rVuc3oU9XU2nhg8T7PnmBFZwROo1Y5nEB4/gw8W6DHAe6MiX1oQJAopvumzKMw3DeibEPA7yRltXW41/bG+Gv3BrEqa7uXvJFwD3AX4BrqXDDOlbni1MAPM0dse/Zyst1xWx/DkfYs6GTiGWqVej1kzBuJfpGa5OZ5ps3/LmQhqACQGrT47tjFDHagLcBwxLcU3IjYJ/BPydToJ+y30qFqzF+S9EeXe2zcQqAa7Tdb4L6fDcqsRZjegI4P3Qaieiw2yn51cDkiD2MYATtwK9DpyLNTwWArF+3j2AkR2KcRLyJt1bDcA7AOAA4i7JfB/ySFVwDvDlyr87v65hD86twaMwevkXRkt5xL6SvEb0AAOedqACQOlABIGvX41thHI9xAvHet09CAecQ4BCGs5ToY9dp4ZrAuTSbOAXASlq4NHQCiSraXyj5ncBeEXuYGDoFyQe9BSCvVvJRlP0MCtyPcSbhJ/9Xao3R9jHa7MnQCTQNdwPeGrm9MTNzS/0m47cx2u5AyXcNnYA0PxUA8l9TvUDJPwzch3M2MDp0SCn4R+gAmkovuwCbR25fiTVRZtdwfkecjZEsRlElMkQqAKSqz/diHHOAXwLNvDGJCoAkGWNjtO5ng8T2DsiWSbYAiL6DobNH6BSk+akAyDt3o+SfpsItwN6hw0k/XxUACYszUf2dw+yl0Amkxrk+RtvdQocvzU8FQJ5N8y0pUwa+B2wQOpy6aOHe0CE0FYsxURnNvRGTcXPktgVdAZD06S2AvOrzCVSYAWwdOpS66kcLrCRr+8gtnVtDB58q457ITwE4u+BumEV/jkBkPXQFII/K/i4qXEPeJn+AFhUACYs+hoz7QwefqgL3UV3jMooNKMd620VkvVQA5E3ZP4hzNf9dnz9PBpjDC6GDaDKbRW5pLAwdfKqquwT+O3L7AhuHTkGamwqAPOn1z+JcRH5v/bygJYATF/231ArPhQ6+DhZFblnJZZEudaQCIC9K/jGMbxN9k5JmMIayfyR0EE1mZOSWo3NxOyZ6AZDPq3RSR3n9TTBfyt6G85M6HvGxwQeg5gP3Ay9hvICzDGMksBHOphi7UGFnjL2oz/MIhvNT+vwJ2qw53z+vv+gPqT2Ti2I0zkN8+n6WVGmANbte3wfnctL9WS8GenGuoYXZtNkjNfcw03ehn7djdAKHEW+533UZToVuSn4QRdOWwPEtg9W2gK7FxmwKLA2dQMo2jNyywApm+zBepHUd22KLRJaHCrzxlTzObxFPA1umFNmfgAtYyjS6bHFivXb7aEZxJM5JwLiUYl/ASvbiCHs6pf7zoeRPA6+J1NbYk3a7O3QKqSr5EyS3l8Yy4DngEYzHgH/gzGUlc1Ifx3G+g4qmeSaj9INpBPEKgDRcDXyDov0p9SP1+AEU+BpwUCp5tNOmd61jKPldwBsita3wNjot+mI5WTfbR7KYl0j/WSsH7gRm4Uynw25P/AgqAJqSHgKUWszHOISiTa7L5A/QaTdTtIk4k4H5Cff+bkp8pi55NK/oOyu28D+hg0/Vi7yO+nzHGtVlvL+AcRslv4uyn0HZx4Q+BZJtKgBkKAaAM1nKm2m3a4NE0GFXs5S9gW8TfXGVVzPOpsebfw+E9DwRuaU3+d4TxlsCHfkNOGfjPErJv8csz9p23pIRKgBkfR7HOZiiTaXLVgSNpMuWUrTTcQ6m+mxDEkZQ4KdMdf1biMJj7a3Q3AVAgf0CRzAa+DQruY+Sn0W3N+P23hKDvvRkXW5nJWPpsBtDB/IyHXYjA4wHknqKf1/G86HQaTWoe2K03YuZ3ryr3TkHhg5h0IbA/9HKPyn7YaGDkexQASBrZlzDUt6Z2afkp9hjtDAx1o5rq3O+yTW+Sei0Go7xtxitN2CA9tAppGKmbw+MDR3GK7wWZxYlv4Bu1z4DogJA1uj3LKE90Vf70jDZXmQJk4AkrlBsyXK+FDqlhtPOfIixpK9zZOgUUlEtbLL69PvHaOUvlHzX0IFIWCoA5JVuZQRHBr/fP1RdtpgRtAF/jd2XcwLTfPPQKTWU6iuUt0RvzySm+6ah00icc0joENbjLcAt9PgBoQORcFQAyOoeYSVtHGYvhQ6kJofZSxToJP6DgaMZxqdCp9NwnDhvhoxiOCeGTiFxRiP8dr0ZBa6l1ztDByJhqACQVVbiHMMR1pgbtLTZIxhHEfcVQeMkSj4qdDoNxZkZs/3JTXdP2mgJHcIQjcTopuTF0IFI/akAkFW+RIdFv5SbBe12E3BezF62AI4LnUpD6bT5wH0xetiKVj4aOo1EOQ+FDqEGI4Ar6PV3hg5E6ksFgADcyejYE2c2LOUrxF8x8AOh02hAl8ZsfyY9vlXoJBJ0TegAarQBxpX0+O6hA5H6UQEgFeBEJlp/6EAS0WVLIfZ9/P3p9Z1Cp9JgLiHe1reb0cJ3QyeRGOM3wAuhw6jRGAr0NvXaDPIyKgDkCor2l9BBJKpo1wHXxejBgPeGTqOhFO0+4IZYfTjHUva20Kkkot2eB05JqLd6bpm8GwP8sI7Hk4BUAOSbU+EboYNIKbN47/QbR4dOoQF9P3YPzm+a5v30ol2E8WWGemXEuAs4D+dojDfRwiYUzSjaKIpmVNgaeCvwSeAyIK0Hdj9A2Y8JffokfVldqEJWl952wCWK1hE6vdSU/I/A2yO2dlaydWZXQsyibm+hlfnALjF7uoeR7Mch1miX0Nes5JOpPpy6pvvrLwC/ZYCfMMXuqqnfbh/BSN6NcSJwaMJRP0U/e3C4LRzMQdsBNyFdAci3C0IHkLJfxGhrjOAdoRNoKF02gPHVBHrag2Vc2TSvYxZtJu28gQpvw/kczjk4X8HoZCnbULSTap78AbpsBR3WQ9EOAyYAf04w6q0YxtdCnzpJlyqzRpDOFYCn2YbtGW8rQ6eXmuoE8jiwaaT2xo9pNy0MVIvqVYB/subfdmvj/JFhFJlsL4ZOqyG4GyU+gfFdIIl1FfqBPSnafboC0Jx0BSC/upt68gco2hKgL3L77Ozm1jiqVwFOT6Qv40AGuFbLMw+RmdNhP6PABIyHE+hxGM6XQ6cl6VEBkFfWcO8pR/WHGG33YI4PD51Aw2m3XuDqhHrbh+HcQcnfFjqthtFmf2eAA4B/xO7LOFavxDYvFQD5NMAGieygl33DuYbo76cP43F2Dp1CQ6pwMpDUnhI7ALMp+//R7Y2yxG5YnfYEBQ4BHozZUwvGJ0OnI+nQvZmsmOnbU2ErnE0xNqTChsAwCizD6U74aHdStL1Dp1w3JX8QiPZbjFOkw8qhU2hIJf9f4AcJ9/oHhnMskyz6FsR5UvI9gNuB0TF6eRaIfhvGeS8FXsJ5CWMhBZ5isv0r9KkRFQD152708iYKTMSYgLMb1Qem4vwDrdWlFO19oU9F3ZS8DERdYOY0itYcyyTXm7vRx+9T2Br3NpZy0OCqj7I+JX8fcHHoMF5hEc58jPnAbRjX08Y/B7eXljoZFjqAXJjpG9BPOwW6KDORAq8B4i2cGofHXiu/sRh345ELgO1Ch9+wzJyZ/j4GmAdsn2DP+9LKVOCM0Ck2hKJdMlgEvDt0KKvZCGM8MB54Hw6UeZqSXw90s5Q+umxF6CCbnZ4BSFPZx1HyHzPAAowrcbpgcPIPqRD7vmBjqcTamW2j0OE3tMn2DM57gGUJ93wys3yz0Ok1kE9Tfa0vy7YEjgGm0coCyv4jSj42dFDNTAVAGnr9HZT89zhzqC7bOSZ0SK+Qr/eqLcamLFbXWzPNqcNuwTiO6sZTSRnJishXdfKnaPfhXBY6jBpshnMiMJdev5qyR13RU9ZBBUCSenw8Jb8J4waSX5ozSYtCB1Bn0Qse1xWARLTbFTifTbRP442h02ow8fdqCMGYhPNHSn6DrggkSwVAEso+hpL/mAK3Atl/X9lYEjqEOouTbxIrqglAh30X+EJi/enqTG067Hbg7tBhxPAO4DZK/kOm+6ahg2kGKgDiKvkUnHuoXupvlPO5QegA6spjTeJ60jxJRTsb4/Mk8Qiso42aalcKHUBMLcCnGMY9lL15NzKrk0aZsLKn20dQ8vOBaVQfXmkkzbHJylAVYv2muDh0+E2n3c7B+DAQbylq44+hU2k4BWaHDiEhW+HMoOzn0e0jQgfTqFQARFHy1zKSm4GTacS1FAbYOnQIdeUxFjFRAZCOdvs1xmSi72l/L0tUANSshb+GDiFBhnMKrdzEDN8hdDCNSAVArXr9f4A/D77D2qjy9W67xdqfPl9vTNRTu11LgXHA3BpbVnBOo8sGQqfQcCbZAprvIeB9aeFmZvieoQNpNCoAatHjB2DcRONPoPm6BeCxCoBHQoff1NrsEVo4APg2Q39N8PNanjmWf4cOIAU70MJNlHz/0IE0EhUAQ1X2t1PgD2Tvnf7aWQPetogn+r4HxgOhg296k205RTsd4yDgnnV88t8YR1K0b4cOucE12xWAVTYDrqXHDwgdSKPQUsBD0eNvxumleX5z/mfoAOqm5K+luptcNK4CoG7a7SZm+5t4iQ7gYJzXA6NwHh7cvvpK2i1vr7CmoZm3uB5FgRJlP5B2i78dcpNTAbA+Zd8ZZxawaehQElJhJdeEDqJujANjvHDWT0usZYSlVhOtn+qbNdNCh9LEmn39hDE4s+jzA2gz3cJbBxUA69LtrTgzgG3qdMTHcR7AWIgN7qXubIKxCc7rSGZDlZ9zhOXn/WlnSozWf2WyLQ+dgkjC0lzcqgI8DjwMPI2xAqdA9erppsCuUJe3kLajwgxm+/5MtKT3oWgaKgDWpZXvA29K8QjzMK7GmU2F2+i0dd+bm+abM5y9MCYOTmz/U+PxHmU4/y/dk5YhJR9FvB3Qbg6dgkgKngW2SLC/eTg9FLiJAeas93vsGt+EZUwAJlL99/mWlPLci5f4HnBCSv03vLw9DDZ06e2h/SLGz+nnIqbYXbF66vPdcE7A+Rjr37XuXuAQivZoOicsg0p+HPDryO2do+mw7tBpiCSq5L8BPhCzl2eBX1Lh53Ta/bF66vM34XwY5+OkcXvCOJZ2a6SNkOpGBcCazPJtWMndwCYJ9voSzrcY4PscbgsTjbfsY4BP4HwI2OMVf/s8xncZ4HvrrcybTcnnAOMitnYqbE+nPRE6DZFE9fghg280RbEQ5zss43y6LNlFsmb5ZqzkM8BnSfY2xUIq7EGnPZVovE1ABcCalP1SnGMT7HEGA5zMFHss9dir1fRrqbAhxnxG88/BB6vypexvx2OtFHcbRZsQOg2RVJT9DziH1NjqMgqcQps9mWpsvb4TxveB9gR7/S1FOy7VuBuQCoBXKvnBwLUJ9bYU4zO0289Dp5U7Jf8jEGcP8dP1vrk0rR7figJ/BnYewqcXAydQtEvqGmPJPwWcSzKblznORDrsxrrmkHFaCGh1U70AnJ9Qb09S4QBN/gGUvEi8yR+Mq0KnIZKaTnuKAgew/l925mHsW/fJH6BoPwIOBJ5JoDfDOB93/dK7Gp2M1fX6kRhXJtDTg7RwKJNNi8jU2+99Q1bwV4i1/O/tFG3f0KmIpM7d6ONQnA8AE4DNgUU4cyhwGXO4iqk21CWa01HyXTH+gLNj/HyZQof1BM0nQ/Qa4Mt9PoE+nsB5F5NNC8iEsIKziTf5g/OD0GmI1IWZA78f/JNNRbuPmf4uBvgTcdcQML6Me+9g3rmnWwCr9Pq7E9jhbzEV3k2HJv8g+nwScGLMXp5iGHr1TyRLqldT24C4S0GPpVzzw49NSwXAKsbHE+jlU3Ta30KnkkvTfUcqXEz8Mf0Trf4nkkFFm4dzcgI9fSx0KlmhZwBg1Qp7TwAjIvfhXEyHxV1cQ6Korvh3K/DGmD0tYiWvz9VSySKNpuSXAUfH6GE5xja02/OhUwlNVwAAhnMMcSZ/eJ5+TgudRo59i/iTPzjf0eQvknHDOQV4IUYPG1ChK3QaWaACoCpONQnGVzRxBDLTtwc+kUBPT7KM80KnIyLrMckWYHw1Vh8W8zu/SagA6PbRwH4xeljAhlwQOo3cGuBIktjf3Jma+NKmIpIO5ydAnF+63jp46zDXVABsyNuIM4EY52u7yaDGJtDHn5inIk6kYRRtCRZr0bYNqHBA6DRCUwFQ4Z0xWvdjMXabk/g89u5hS4CPBF/sRERq4/waGIjcvhDru78pqABw4mz4ck3qG2PIulmsy4AAX6Ro94VOQ0RqVLTHMa6P0UOcW79NQQWAvWr73Fr0hQ5fuC1G26uZq1X/RBqWx/oO3j10+KHluwAo+xhgy8jt41WfkoSRTAMWRWh5H/28V5f+RRqYcV2M1ttwjW8SOoWQ8l0AVGJVgC/QbneHTiH3DrEXgKk1tlrEAFM43BaGDl9EYmjjn0T7BaBqWb6vAuS7AIDtYrSdHzp4GTSX7wFD3a50KQW6mGJ3hQ5bRGKqbupzb4we4swBDS/fBUAh1hPkenAsK6ZahaV8EOMsYOU6PjkfOJg2mxU6ZBFJTJzv4o1CBx9SvrcD9lg//NyvI50pXTYAfIWSX0h1s4+DgG2BpcDdQA/b0M14Wxn9ICKSQXG+i1UA5FicH370+06SnqI9Cnw5dBgiUifOizG2tct1AZDvWwAWY9g4Hjp8EZHcM6K/yWP5ngNznTxO9LXfLfYKdCIiEt/GkVs6L4YOPqR8FwDxLuNvGjp4EZHcc6K/y2/5vpWb7wLAYl0B2CV0+CIiuWe8PkZrFQC55SyI0TbXC0iIiGTEbjHa5novl3wXAC2xFvPZgl7fKXQKIiK51eOvBzaL3H5Fvhd0y3cBMNmeAZ6L0UPut5MUEQnGODhG639zhD0bOoWQ8l0AVEWvAI13hw5eRCS3jEkx2ub6t39QAQBwe4y2Rab55qETEBHJnVm+GcT6JSzOVuJNQQWAx9rSdwTDOSZ0CiIiudPP+4ANIrd3ZodOITQVAAPcCAzE6OFUZnvel1QWEamfOT4c55QYPfTTwo2h0whNBUB1T/h5MXrYmZd4X+g0RERy4wmOA+K8hXU7ky3XqwCCCoBVrozV2jmbazz6alQiIjI0M33jwa2/o3OuCJ1GFqgAAKhwMfFuA2zNspgDUkRE1m+Ab1Dd6juqflr4Xeg0skAFAECnPQFcF7OXkyh7R+hURESaVsknAyfG7OUPtFmuVwBcRQXAKsYvYvfgXMh03zF0KiIiTafsOwO/hRjbuAM4vwydSlaoAFhlCdOIsyhQ1RYM4xp6fKvQ6YiINI2Sb4EzkzjL/lbdwzymh04nK1QArNJlAzhnJ9DT6ynQx0x/TeiUREQa3jTfEvgDJLABm/MNploldEpZoQJgddtyCcbDCfQ0jgH+pM2CRERimOm7MJybgb0T6O0BNtLDf6tTAbC68bYS53MJ9bYbxu2UvS10WiIiDafkRQa4DXh9Qj1+lonWHzqtLIn3MEWz6vWrY20y8XIO/IiRfIlD7IXQqYmIZNp035RhfBM4nuTmqD6K1h46taxRAbAmPf56CvwdGJlgr0/ifIlt+Q3jbWXoFEVEMqXbRzCKD+F8FdgywZ6XYryRdnswdIpZowJgbcr+GZzvptDzI8B5rOSSvO9FLSLCTH8NFd6HcyqwQ+L9GyfTbj8InWYWqQBYG3ejj+k4nSkdYQUwC7iaAtfTZveGTllEpC5KvgfGRJzJwGHA8JSOdBVFOyp0ulmlAmBdyj4GmIezYx2OtpDqOgT3Ai/iLKbA86FPgYhIZI7hbEqBjaiwMcZuwG7ApnU4+oOMZKyevVo7FQDr0+d7UeEGQJv9iIg0hoUUOJA2+3voQLJMrwGuT5vdOXgbYFnoUEREZL2WUaBTk//6qQAYig67EeN9xNsxUERE0jUAHEub/TF0II1ABcBQtds0nCOBpaFDERGRV1mOcSxFmxE6kEahZwBq1evvwOhBzwSIiGTFwsHL/vrNvwa6AlCrDruRCgcCD4UORUREeADj7Zr8a6cCIIpO+xst7AVcHjoUEZEcm46xD+32j9CBNCLdAoir7CfhnAO0hg5FRCQnluB8jg77cehAGpkKgCTM9O0Z4DzgPaFDERFpcmX6OYnD7eHQgTQ6FQBJKnkROBfYNXQoIiJNZj7GabRbX+hAmoWeAUhS0UrMZQ+gA5gXOhwRkSbwD+CDjOaNmvyTpSsAaZnqBcZSxPgY6W52ISLSbFYCszB+QRslzDx0QM1IBUA9TPMtGc4xGF04E4BhoUMSEcmYlcAtGFdQ4DIm2zOhA2p2KgDqrdtH08qBwDuBfYE9gNeEDktEpM6exrmHArdR4XqWcRNdtjh0UHmiAiALyj4GYzcG2J4Co3FGY4ymwpjEj1VgK5wPRWz9FM6vQp4qjDMit62+rpkvBd6Gc0CktsbNVPhT6BTqrpHHmPEhYKuIbX9FhacSjscxFuIsxlhMhcW08C9WMJ/DbWHQcyUqAHKn5GOBuRFbz6No4wLHH/1eYNHyN95LPhX4SsTWZ1K0qaFTqLtGHmMlnwuMjdh6HEXTw8s5orcAREREckgFgIiISA6pABAREckhFQDSaBZGbPdc6MBFRLJEBYA0mnvr3E5EpCmpAJDG4vRGbBm1nYhIU1IBII2lwI+p/XL+8wznZ6FDFxHJEhUA0lja7XmMjwNDfVfbgU8yyfQMgIjIalQASONpt2mDmyytWM8nl+N8hKJdHjpkEZGsUQEgjandfskAe+NMA5a/4m+XA1di7E2H/Sp0qCIiWaRd6aRxTbG7gCPp8Y2AN2NsgfNv4G902qLQ4YmIZJkKAGl81cn+5tBhiIg0Et0CEBERySEVACIiIjmkAkBERCSHVACIiIjkkAoAERGRHFIBICIikkMqAERERHJIBYCIiEgOqQAQERHJIRUAIiIiOaQCQEREJIdUAIiIiOSQCgAREZEcUgEgIiKSQyoAREREcmhY6ABEYpnlm7GSdmAcsAXwb2AuRol2ez50eCIiWaUCQBpTt7cwii+yktOB0a/6e2cRvX4OyzibLhsIHa6ISNakXwD0+dasZDOMUbSwKc6LFFiB8TiT7ZnQJ0AaULePoJXpOJPX8amNML5GK/vR7UfSZStChy0i8irTfEs2YFtgA5yNGGAhzhKMZ+m0p9I8dLIFwEx/DRUOwpkIjAd2o8ImtAz+vQ/+tzL435K/BNyFcTvOzQxnFpPsuTQTliYwiu+vZ/JfXTuj+C7wqdBhi0jOVW9ZTsI4gAr7YrwB2PA/cyK8/Mm8kr8AzMeYgzMbuIGi/TupcOIXAN3eyiiOxPkAAxwM/5nuh2JDYB+cfYATWUk/Jb8RuIjRXMVEW5ZUotIkSj4W5xM1tXFOoM8voM3uDB2+iORMt7cykqMwPsRK3gG04IANqfUmwL44+wInAgOU/FrgtyxlGl22NE5o0d8CmOkbU/Iv0MojOL8FDqW2yX9NhgEHAxezmMco+xeZ6RvH7FOaiXM8Q/2n818FKjUWDSIicVzjm1DyL9HKYxi/Ad5J/DmyBTgMuJhWHqbkn48zR9ZeAEz1AmX/BAM8BHwDeE1Kp28LnK8zwAOU/ONMdb2yKGC8M2LLg0OHLiI5MNUL9PrxLOMB4KvA5ikdaUvgmwzwICX/WJQ5srYGfb4b4/gzzs+AzVJK6pW2AH7OOP7ETN+lTseU7NouYrsdQgcuIk2ux1/POP6M8VPSm/hfaXPgAsbxJ3r89bU0HHoBUPZjqDAHmFCnpF5pfwa4g5IfHej4kg2tdW4nIrJ+vX4sBe4g5BxZYC693jXUBkMrAEr+VZzfARsFSmyVjYDfUfKzcK/1PrCIiEiy3I1e/zrGJaxpTZL62hjjcko+dSgfXncBUL3f/1PgS4GTWp0B/0cfP1QRICIiwUz1An38BOOL1P5wcpq+Qsl/sr7nAtZdAIzj/MGnrrPHOZEyPwgdhoiI5NQ4fpTZORJOYBzfXdcH1l4AlPxLwP+GzmA9PkXZzwgdhIiI5Eyv/z/ghNBhrMfJlPzza/vLNRcAvf5u4MzQkQ+J801KXgwdhoiI5ESvvxvjq6HDGKKvU/JD1/QXry4ASr7d4KIFjfLevQEXMsu3CR2IiIg0uR7fdnCOzNI9/3UpAL9d0xz56kne+BHVd+8byWtYyfdDByEiIk2uwA9pvDlyyzXNkS8vAHq9HaczdKQRHUXJh7pBjIiISG2qt5sPDx1GREfR55NW/x/+WwB0ewvGd1I68EKMu4CbBv+7MKXjnK0lg0VEJHHVOfLslHqvzxzpnLv6HPnf3QBbOQrYPcFDzcO4lAIzmGwPvOpve/z1GFMw3gvsndAx38Q43gNcnsrJExGRfGrlaJw9E+yx/nOksyfjOAK4El6+HXBSr9Pdj/FF2rgSM1/rpzrtfuA7uJ9LmS6qGwvtnMDxP4MKABERSdZnEuon9Bz5eQYLgOqlgB7fm2QqjBIVxtJuV6wzsdWZOUW7nBb2BvoSiGE/Sj42gX5ERESg1/cB9kmgpyzMkePo8TfDqgLAOC52l87PmcsUOm1RpPaT7UWW0gn8InYsxrEJnCQREREwjondR5bmyEJ1zh82mNwRMbu7jo34FFOtEquXLhtgjp/IAnaGyPu+AxxF2X8f+yQ1p10ZWt0pInliTKDs9drmvbE4R8bsIWtz5OHAZ4cx03dhgNfG6Og5VnI0E60/5gmqGm8rB7f8vRcYE6kPZ0fgmkTiERHJA+fHoUNoUtmbI2FnpvuOBfo5KFYwzjc5wp5N8mxRtH9Daq9biIiI1EdW58hhTCxgvDlGF8+yET9MNLFVlvID4PlU+hYREUlfdudI580FYI/IHRglJtqyVJLrsqVAOZW+RURE0pblOdLYvUCc9worKU/QRinV/kVERNKS7TlylwKwSYwO7kk5uXT7FxERSU+W58hNCsBGkZsXeCLV5Jan3L+IiEhasj1HblTg5csB12ZDlqaa3BheSrV/qdXy0AGIyDrp32iWZHuOHFEAFkduvpCtU01uEduk2r/U6l+hAxCRddJV0yzJ9hy5KF4BUGC7VJMrsH2q/UttnBtChyAi63RD6ABkNdmeIxcVgAWRm1vMRYTWL+3+ZehewOgOHYSIrEMLlwPR1pqX5GV7jlxQwJkfo4MpqabmKfcvtfjy4OpTIpJVk+0ZnK+EDkP+Y0qqvcebI+cXiPOagjGOHh+fSmIl35dktiiW+H5K0b4fOggRGYIi3wMuCB2GkPU58p4C8JdY6RX4VirJwbcAS6lvGZrnME6kaJ8MHYiIDFF1//hPAP8LPBc6nJzL7hzp/HkYG/FnFrMMGBmxm4mU/YO0268TS6vkHwbeEaOHFcAfE4snX1ZgLMD5IyPp4RB7IXRAIhJB0X7ENX4xy5kCvB1nG2BE6LAa1IFEP3dZnCOXMIxbhjHRllHyPwKHRu7K+Sm9Pp8OuyV2YmV/K85PYvbyB4pWjB2LiEgjqxbwvx78I1GVvAy0RW6fvTnyBibb8sJgcBfH7GwkRpmyT4zVS8kPxikBG8SM54qY7UVERKqcK2P2kLU58hKAagGwAdOIsx5A1eY4v6fXT2G217a64BwfTtlPA2YBm8WMYyEjuCpmHyIiIlXLuBKIezs0K3PkImAGrCoADrOXgAsTOE3DMc5jMf+g17uY7et+rmC2j6TkR7OAf+B8hzjLEq9iXDSYj4iISHxdtphkbqNkYY78BUVbUv0/V5np2zPA/cS/tLC6xcDVGHOp8AQtPMMAr6HAtjjjgUnA6ASPtxTYlaI9nmCfkiUl98hti5avt0p6fSeM84j+LvIMnFPpsIdCp1JXGmOyJiV/LXAvjT1HLqPCLnTaE/DKVwh6/fsYJ6V7FlN1LkX7bOggJEX6cl63ko8C3otzPEZS7x/fjvMzlnEpXZbu5iZZoDEma1Py7wGfDh1GZMZ3abdTV/2/hZf95QBfBp4KHWNEC+jna6GDEAni974hZT8DeBS4IMHJH2AfjF/QymOU/PTBIkMkf4wzaeQ5ssDU1f+HlxcAh9tC4NSh95chzmcG4xfJl7K/hxXci3M2sHmKR9ocOAe4l14/MnTaInXXbs/TqFcAnM8w2V5c/X8qvOpDRbuUxntn9CI6TBvVSL5M880p+wycbmDbOh55O4wrKfk0ZnncJ5JFGkvRLgd+EzqMmhgXrmmOLKzxwyP4FPDP0DEP0V+pLnkpkh+9vh/DuROnM2AUh7OSOwbXJBfJj6V8Cvh76DCG6G84J6/pL9ZcAFRfozsMeCR05OvxBAMUV73SIJILJZ+CcR3E2gs8Ka8FbqTXu0IHIlI31dcC3w08FjqU9Xgc1j5HFtbarGiPM8Bk4JnQGazFAox3McWy/gMQSU7Z3w9cCWTpQbyRGJfS68eGDkSkbor2OM67ye5Dgc9gHELRHl3bBwrrbD7F7qLA2zAeDp3JKzxCgYNot7tDByJSNyU/CudXQEvoUNagBeM3lPzw0IGI1E2H/RM4iOxdCXiIAm9b3xxZWG83bXYvAxwA3Bo6o0G3UGECbXZv6EBE6qbX96H64FEWJ/9VhgEXU/ZxoQMRqZui3cNwJpCdOfIvDOeAocyR6y8AADrtCZZyIMZ3geiLZMRTAc6jhYPotKxechFJXsm3wJgOtIYOZQhG4cxgmqf5OqJItkyyBYzmIJzvEW6OdOBctuEdTLIFQ2kwtAIAoMtW0G6nYhwM1PvS+93AwRTtNCbb8jofWyS0nwPbhQ6iBtsznJ+FDkKkribaMjrsFJx3AffU+ej/xJlI0T7LeFs51EZDLwBWabfZLGUv4DTgyZSTehLjFLbhLRTthpSPJZI9ZT8GaMT76kdS8qNCByFSdx12PUt5C86ppP+A4ILBOXJvOuzGWhvHW7e621tp5SPACcAbE0zqb4Nrj1+Ui7XHZejytE57t4+mlbvJxut+UTwKvKHhXtPN0xiTdKU3R/4d+BmjuZCJtixqJ8kN1j7fiwGOAQ7G2JvaHlaqAH/H6QNm0GG3J3iipJnk6cu57F/E+XrCvfYDtwEPYTwNgLMlsDOwD0lsN/pyZ1C0b6V9qhKVpzEm9VNdMGsK0Ea1GKjlCvwAzh0Y1wKXUbS/JhFSOoO17GOosDcFdqfCbhibU93ScCOMl3CWAY9jPIxzFy3c/so1ikXWKC9fztXf/h8Ctkiox78C5zGcMpPsuTV+YppvzgjacU4D3pTQcZ8GdmqoqwB5GWMSzjW+CcsYj7Enzo5Ul9ceibMhsAhYjPMsxnycexlgXhp73WiwSmPJy5dzyU8AfpJAT//GOZV5XMJUqwypxVQvMJ4P4JxLEpsLOR+jwy5M9XwlKS9jTHKv9ocARSR9zkcT6OUfOPvSYb8d8uQPMNUqtNuvMfYliT1BjI+nd6JEJCoVACJZU/JdMcbH7OUftHAAHfZQ5B7a7UFGcgDxi4AJzPRdkj5NIhKPCgCRrDE6YvbwLBUOT+S5mkPsBfppJ+6eIAO0J3eCRCQJKgBEsqbCu2K1d06h0+5PLJ7D7WGMz8Xs5ZDE4hGRRKgAEMkSd8PYJ0YPf2MelyQe1xx+C9wRo4f9cNcDciIZogJAJEtm8DriPXl/bk0P/A3VVKvgfD9GD5tTZofE4xKRyFQAiGRJCzvHaN3PSvpSi62fEtWFhKJxdkotNhGpmQoAkSwxXhej9W0cYc+mFlu17zmR2xfYMbXYRKRmKgBEssTZNEbr6K/8DZXFOIazSerxiciQqQAQyZZRkVsaQ9oDPBbniRjxjU49PhEZMhUAIllSIPoytF6Xpb2jH8Nj5CYiiVMBIJIlzuIYrbepQ4TbxWirDb9EMkQFgEiWeKxJcsc6RBjnIcVFdYhPRIZIBYBItjwao+0ESp7U9sGvNs03hxh7FDiPpBabiNRMBYBIljj3xGjdgtGWWmzD6QCGxYhufmqxiUjNVACIZEkHC4CFkds7pzLVk/933e0twKkxeniONnsy8bhEJDIVACJZYubATTF6eDPj+UDicY3ig8AbY/RwY+IxiUgsKgBEssaZHbP9efT46xOLp9d3wjknZi/XJxaPiCRCBYBI1hjlmD1sRgs9XOPxV96b7pti9AFxHi50jJlJniIRiU8FgEjWFO0+4JZYfTh7sozb6PHdI/cx03dhODcDb4iZ0c2024OJnycRiUUFgEgWOb9KoJfdKHAzZf9gTQ8GdnsLJf8wA9yGs2cCcfwmrdMkItGpABDJIuO3wNMJ9LQ5zq8Yx530+ocG3+Vfs5JvQck/TCt3Ar8ENkvg+E+ylIvrcs5EpCbR3+kVkfQUbQllPw/n7IR6fBPGRQxngJLfPrir36rX8rbG2ZnqIj8tiebhnEuXLa3fiRORoarH5iEi8ZT8tRjH4hwJ7BOjp9uBKxngd0yxx0KntV7dPppW7gJ2CB1KRI8Ae1K0JaEDWa+8jjHJNRUAkl1lfyvOZ4EOkv3NtB+nF+M7FO0vodNcp14/EuPK0GFE4kyhw3pCh7FOGmOSYyoAJHt6/X8wzoEUl7X9rzIDnMEUuyt02muP0GfgdIYOo0ZXUbSjQgexVhpjIioAJENm+gZU+D+c04HhdTzyCuAcWvg6k2156NPwKrN8M1Yyj3g78dXTQ/QzlsNtYehAXkVjTOQ/VABINkz3HRnGZcCEgFHMo8LRdNr9oU/Hq/T5BCrMBlpDh7IeS6jwDjptTuhAXqXkuwKXAWMDRjGXFo5msj0Q+nSI6DVACa/HD2EYfyXs5A8wlgJzKPnBoU/Jq7TZrcDRQH/oUNahH6Mrk5N/jx8CzCHs5A8wjgHmZnKMSe6oAJCwSv4+CvQBG4cOZdAmwEx6/djQgbxK0UoYHyabRUA/8CHarS90IK+iMSayRroFIOGU/T04l5LN9SgGgOMo2qWhA3mVXm/HuBwYFTqUQUswujI5+WuMiayVCgAJo+SHAn1k84t5lZXAuynadaEDeZWS7wt0E/7BwIeoZPSyv8aYyDqpAJD66/PdqHALMCZ0KEPwPDBhcIOebCn7GJwLgcMDRXAV/Xwsk0/7a4yJrJcKAKmvOT6cBdxMvNXW6m0eS9mfLlsROpA1KnkR+AH1uxrwOPBFipbNTX40xkSGRA8BSn0t4Cwa64sZYCyj+HLoINaqaCVG8D/A6cBTKR7pSZzPAbtldvIHjTGRIdIVAKmfsr8B56/UdwGWpKygwpvptPmhA1mnbm+llfdjfBDnrcT/N+4Yf8b5NUu5OPMb+2iMiQyZCgCpn16/GmNS6DBi6KNo7aGDGLKy74zTjvFOnAMZ+v3w54A/YlwP9NFuD4ZOZcg0xkSGTAWA1EfJ9wf+nGCPy4HrMHpw5jCcBbzIs2zM5vSzLTAOZwrwTmCDxI7q7EuH3V7PU5eYPt+aCntgvA5nNMbowZwWYyzGeYQC99BmT8Y8UhgaYyI1UQEg9VHyEpDEbzb9GBcyjDOZZAvW++ke35YCU4EPk8zrYNMp2hGpniuJRmNMpCYqACR9M3wHWniI+NutPkKBKbTZnTW3LPlYYAawQ8wY+qnwOjrtiTROlUSkMSZSM70FIOkrcBzxv5hvYyX7RvpiBijaPCrsA8S9tDpsMB/JEo0xkZqpAJD0WeyFah6hQgdH2NOxeum0p6hQBB6NGU+ohXdkbTTGRGqmWwCSrlm+DSt5nOhjrZ8C+0T+rWxNqpdqbyX6/doKFbal09J8516GSmNMJBJdAZB0reQA4hWav0j0ixmql2rhohg9FCiwf6IxSXQaYyKRqACQdDnjY7ReznDOSiWuClOpvuYV1b6pxCW10xgTiUQFgKTL2DNG62uH9BpWFJ32BM7sGD28IZW4pHYaYyKRqACQtO0Yo21PqpFZrP7j5CXJ2jFGW40xyS0VAJK2rSO3NOalGlmFOHvYb5tqbFILjTGRCFQASNo2jNzSeDzl2OIstBI9L0maxphIBCoAJG3R10h/iedSjWw4z8ZoPTLV2KQWGmMiEagAkLRF3z52YzZPNbIBtojRekmqsUktNMZEIlABIGlbHLllf8r3QD1W/y+mGpvUQmNMJAIVAJK2f0duWYn1fvf6FWL1H+fSriRLY0wkAhUAkrb7Irc0OlONrLqXe1T3phqb1EJjTCQCFQCStntitH0nPZ7OJdqSbwccFLm9MT+VuCQKjTGRCFQASNrivGe9AQWmphTXWcCIyK091vvdkiyNMZEIVABIulYyG6jE6OHDgzurJafHxwMfjNHDAMaNicYk0WmMiUSiAkDSdYQ9C9wZo4dhwAx6fKtE4unzrSkwHWiJ0cs82u35xM6RxKMxJhKJCgCph8tjtt+BAqXYX9B9vjUVysD2MeO5LMmTI4nQGBOpkQoAqYdLgIGYfexDgdsiX6rt8fFUuB0YFzOOAYbzuxTOkcSjMSZSIxUAkr6iPY5RTqCn1wK3UvKfD/nJ7ZJvR9l/QYFbiP9bGUBvatvHSnQaYyI1s9ABSE6UfF/g1gR7XIFzPTADZy7wBMv5NxuwBcZ2GOOAKcBE4jyJ/XKOsQ/tNreu506GRmNMpCYqAKR+ev1qjEmhw4ihTNGKoYOQddAYExky3QKQ+jFOBpaHDiOi5VT4bOggZD00xkSGTAWA1E/R7sM5N3QYkRjn0GlamS3rNMZEhkwFgNTXtkwFbgkdRo1uZwlfDx2EDJHGmMiQ6BkAqb+ZvgsDzAU2CR3KECzEGUuHPRQ6EKmBxpjIeukKgNTfZHsA43Cyf692BRW69MXcgDTGRNZLBYCE0W6zqa6VHmcN9zRVMN5Pp10TOhCJSGNMZJ1UAEg4RbscOApYFjqUV1iB8T7a7YrQgUhMGmMia6VnACS8kh8MXAlsGjoU4Hmco+iw60MHIgnSGBN5FV0BkPCKdh3wFuAvQeNw5mCM1xdzE9IYE3kVFQCSDUV7lKUcBHyN+j+4tRzjLJZxAO32YOhTISnRGBN5Gd0CkOzp892o8F1gch2OVgZOpWj3hU5b6khjTEQFgGRYj4+nwBeBDqAlwZ4HcHoo8A1tupJzGmOSYyoAJPtm+Tb0814qHIMxlmi3rgaAecBlDOd32m5VXkZjTHJIBYA0lrKPwTkIZzzG7sBuwObAaGBj4AVgMfAcMB/nXozbMW6k3Z4PHb40AI0xyYn/D0MeCkGbpaO6AAAAJXRFWHRkYXRlOmNyZWF0ZQAyMDE5LTA2LTAzVDE0OjUyOjAzKzAyOjAw0/OHZwAAACV0RVh0ZGF0ZTptb2RpZnkAMjAxOS0wNi0wM1QxNDo1MjowMyswMjowMKKuP9sAAAAZdEVYdFNvZnR3YXJlAHd3dy5pbmtzY2FwZS5vcmeb7jwaAAAAAElFTkSuQmCC;fontFamily=Comic Sans MS;fontSize=17;fontColor=#000000;" parent="7312b857-07d3-11eb-b423-c9350188184f" vertex="1" >
          <mxGeometry x="115" y="80" width="70" height="80" as="geometry" />
        </mxCell>
      </object>
      
      
      <mxCell id="7312b880-07d3-11eb-b423-c9350188184f" value="" style="group" vertex="1" connectable="0" parent="1">
        <mxGeometry x="1420" y="12.5" width="300" height="215" as="geometry" />
      </mxCell>
      <mxCell id="7312b881-07d3-11eb-b423-c9350188184f" value="" style="rounded=1;whiteSpace=wrap;html=1;fillColor=#D5DDE5;strokeColor=#EBEBEB;fontColor=#D5DDE5;" parent="7312b880-07d3-11eb-b423-c9350188184f" vertex="1">
        <mxGeometry width="300" height="215" as="geometry" />
      </mxCell>
      <object label="" id="7312b882-07d3-11eb-b423-c9350188184f" Type="label">
        <mxCell style="group;fontFamily=Comic Sans MS;fontColor=#FFF11F;" parent="7312b880-07d3-11eb-b423-c9350188184f" vertex="1" connectable="0">
          <mxGeometry width="300" height="60" as="geometry" />
        </mxCell>
      </object>
      <object label="Application"   Type="Tier" id="7312b883-07d3-11eb-b423-c9350188184f">
        <mxCell style="rounded=1;whiteSpace=wrap;html=1;arcSize=0;fillColor=#195190FF;strokeColor=#6c8ebf;fontFamily=Comic Sans MS;fontSize=22;fontColor=#FFFFFF;" parent="7312b882-07d3-11eb-b423-c9350188184f" vertex="1">
          <mxGeometry width="300" height="60" as="geometry" />
        </mxCell>
      </object>
      
      <object label="Lx-Dashboard" Type="ApplicationNode" id="7312b884-07d3-11eb-b423-c9350188184f" Tier="7312b883-07d3-11eb-b423-c9350188184f">
        <mxCell style="shape=image;verticalLabelPosition=bottom;labelBackgroundColor=none;verticalAlign=top;aspect=fixed;image=data:image/png,iVBORw0KGgoAAAANSUhEUgAAAgAAAAIACAYAAAD0eNT6AAAABHNCSVQICAgIfAhkiAAAAAlwSFlzAAAPRgAAD0YBaFMgggAAABl0RVh0U29mdHdhcmUAd3d3Lmlua3NjYXBlLm9yZ5vuPBoAACAASURBVHic7d1bbF3Zfd/x39p7n0OJFClSInWXRjPSzMgzHs3Yki9FECdG2ac0thPAQJ+Kojc9aYI8NEgf6qIp4LYpECB2/cACLYLmpUbdIq3RtykYxEjTxDPjmOOxNJbmovuFlEjxcsizb6sPlBTNjC6kzt57nb3X9wMMqBnY5/xJ8ez/b1322sZaK6AMk1Mzr0l6SdK+B/7Z+8CfB91Vh7qyuZWslbUPfM2tbJ7L5rnr8p6KMSaRMR0Zc8cYzUnmqowuSPrR9Osnv++6PjSTIQCgKJNTM5Gkr0j6hqSvSzrktiL4xlorm2bK00w2y1yXUwhjTKoweNcY88cy5nvTp0+sua4JzUAAQE/uNv2vSfoNSb8macxtRcBd1irPsvuBoBGMsSYIPjKB+YGM+RZhAL0gAOCpTU7N/Kakb0t60XUtwOPY3CqP4+YEAUkmMLEJwz+cfv3k77iuBfVEAMCmTU7N/LKk35f0Zde1AJth81xZN2nM8oAkmSBYNmHwu9Ovn/ye61pQLwQAbNjk1MxLkv6tpF93XQvQC5tl60GgppsGH8aEwQ0ThP9k+vUTP3RdC+qBAIANmZyaOS3pDyRFrmsBipJ1E+VJ4rqMQgVR9IPp3zr5Tdd1oP8RAPBYk1MzLUn/QdI/dV0LUIY8TZWtxa7LKJQJwzMmDE5Onz7RcV0L+hcBAI80OTUzLukHkn7FdS1AmWyWK13rSg26HpogWDBR+KXp0yd+4boW9KfAdQHoT5NTM5+V9Fei+cMDJgwUDW6RCZpzSbR5PmqT9N2vfuetb7iuBf2pOb/tKMzk1MyXJf1fSc+6rgWoijFmPQSEzbksWmujPE3+x1e/8+Y/dl0L+g9LAPiYyamZA5J+LGmP61oAJ6xVurq2fuRwUxiTB63oy9OnT/zYdSnoHwQA3Dc5NTMo6UeSPu+6FsAlm+dKV9ekBl0eTRB0TBQ+M336xJzrWtAfmjPXhZ5MTs0YSX8kmj8gEwQKBwZcl1Eom+eDNst/8tXvvsV1H5IIAPgb35LEvcPAXUEUKmy3XJdRKJtlB5Tn/8d1HegPBABocmrm1yX9S9d1AP0maLcURKHrMgqVp9mvfvU7b/5r13XAPfYAeO7uQT9nJB1xXQvQj6y1SldWXZdRKGNMYlrRKAcF+Y0ZAJwSzR94JGOMgqYtBVjbUm7/yHUdcIsZAI9NTs0MS3pf0oTrWoC+Zq2SzlqjTgq8e2vggenTJ665LgVuMAPgt38mmj/wZMY0bkOgrA2U5//VdRlwhxkAT01OzeyRdF7SkOtagLpIO6vNOiBIUtBuvTp9+sSM6zpQPWYA/PXPRfMHNqVpewEkSXn+X1yXADeYAfDQ5NRMIOmqpN2uawFqxVolDbsj4O5egIHp0ydS16WgWswA+OnLovkDm2eMTNiscwFkbSBr/5HrMlA9AoCfeDwo8JSadjCQJMnaf+i6BFSPAOCnr7suAKgr08AAYPP8Ndc1oHrsAfDM5NTMZyT93HUddbS8uKy8SY+Ha6BARttGtpX+PmlnTTbPS3+fKgWt1t+dfv3E/3ZdB6oTuS4AlWP6/yktLy+LwNzfjKkmAARRqCxuVgCQzV+XRADwCEsA/vmK6wKAujNh8y6d1loeBe6Z5v0W40n2uS4AqD3TwEunVflTJ+grDfwtxhMQAIAeGWNcl1A4a23bdQ2oFgHAI5NTM21JO13XAdSekdS0EGBt8NXvvsUsgEcIAH7Zq/VLF4AeNXEWQNJx1wWgOgQAvzD9DxSliQHA2pddl4DqEAD8QgAACtLQGYAXXBeA6hAA/ML6P1CURvZ/7XFdAKpDAPALf98AHs2qeecc45FoCAAAeIgAAACAhwgAAAB4iAAAAICHCAAAAHiIAAAAgIcIAAAAeChyXQBQFxO7J1yXAACFIQAAGxSGnJECoDlYAgAAwEMEAAAAPEQAAADAQwQAAAA8RAAAAMBDBAAAADxEAAAAwEMEAAAAPEQAAADAQwQAAAA8RAAAAMBDBAAAADxEAAAAwEMEAAAAPEQAAADAQwQAAAA8RAAAAMBDBAAAADxEAAAAwEMEAAAAPEQAAADAQwQAAAA8RAAAAMBDBAAAADwUuS4A1ZkYCzqrXfvnrusAmiAOwoNJqFHXdRRpaFu47LoGVIcA4JFXn28PSvol13UATbAcB+qkmesyCrUlCre5rgHVYQkAAAAPEQAAAPAQAQAAAA8RAAAA8BABAAAADxEAAADwEAEAAAAPEQAAAPAQAQAAAA8RAAAA8BABAAAADxEAAADwEAEAAAAPEQAAAPAQAQAAAA8RAAAA8BABAAAADxEAAADwEAEAAAAPEQAAAPAQAQAAAA8RAAAA8BABAAAADxEAAADwEAEAAAAPRa4LQDO9d2NOmXVdRT2ND23VruEh12XUlpW0uJzrznKubiLFsVU3Wf8nSQt8H2tVxa94GEovPl/BG8E7BACUIs2sMpu7LqOWspyf22ZlmXRrMdPcfK65hVxx2pz0aZvzraDPEAAA1FacWn14JdWVm5lyGiWwKQQAALWTZdKF66kuXE+VZa6rAeqJAACgVq7NZTp3KVWcMOQHekEAAFAL1krnLqW6eL3AnXyAxwgAAPpemknvnI916w4bJIGiEAAA9LXOmtVPfxFrZY0pf6BIBAAAfWtlzeqtMzHr/UAJOAkQQF+i+QPlIgAA6Ds0f6B8BAAAfYXmD1SDAACgb9D8geoQAAD0BZo/UC3uAgDg3Mqq1Vtnaf5AlZgBAOAUzR9wgwAAwBmaP+AOSwAoxdBASxkPMn8qAy0/PpZVN/92y2hwi5Ep6PUyayv5HQ8ZpqEkflxpULnDO0ddl4A+VlXzHx8NtG8i1PahQAPtolr/uuU4USflWcSoLwIAgEpV0fxbkdELhyLtHQ9Lew+g7ggAACpTRfMfHgz02ostDbSKHfEDTUMAAFCJqpr/54+11Ipo/sCTsL0EQOlo/kD/IQAAKBXNH+hPBAAApaH5A/2LAACgFDR/oL8RAAAUjuYP9D8CAIBC0fyBeiAAACgMzR+oDwIAgELQ/IF6IQAA6BnNH6gfAgCAntD8gXoiAAB4ajR/oL4IAACeCs0fqDcCAIBNo/kD9cfTAFGKa3eWlJfXGwq3a9ugWhHPjt8Imj/QDAQAlOL2ypoym7suY8PGBreoJQLAk9D8geZgCQDAhtD8gWYhAAB4Ipo/0DwEAACPRfMHmokAAOCRaP5AcxEAADwUzR9oNgIAgE+h+QPNRwAA8DE0f8APBAAA99H8AX8QAABIovkDviEAAKD5Ax4iAACeo/kDfuJZAIDHVlat3joTK05p/oBvCACAp5ZXrd6m+QPeYgkA8BDNHwABAPAMzR+ARAAAvELzB3APewBQimN7d8qU12MKZ4LmNyuaP4AHEQBQitAEEj2gb9D8AXwSSwBAw9H8ATwMAQBoMJo/gEchAAANRfMH8DgEAKCBaP4AnoQAADQMzR/ARhAAgAah+QPYKG4DBBpiuWP19tlym//gFqPPHmnJWpX69MA6SBIpzap5r4grNUrArxVQI3Fi1U3ufo2tuve/SgtLuZISm78kddas/uKdbqnvgY8LQ+nlz7iuAk1EAAAcs5KS5F4zv9fkH2zwUjexihMr6/egG0CBCABAST7Z2O819TihsQNwjwAAbJK1UpxaxXen3h8crT/432jsAPoZAQC4697Gtu69dfZ7U/D3R+5a/5rS2AHUHwEA3rBWWlm1WuzkWut+eo09Sazo6wB8QQBAI+W5tLyaa3HFaqmTa2nFarmTK6fDA4AkAgAaJM2k67cyXZ3NtNTJmaYHgMcgAKD2FldyXb6Z6catTFnuuhoAqAcCAGrp3mj/ys1USx2G+gCwWQQA1EpupQvXUn10NWW0DwA9IACgNhaWc535MNHKKiN+AOgVAQB9L82kc5cSXblZ0ZNXAMADBAD0tZu3M713IVXX8yfPAUDRCADoS1km/eyDWLPzLPQDQBkIAOg7SWr1k/cSLa7Q/AGgLAQA9JVubPX2ezEb/QCgZAQA9I3OmtXbZ2OtxTT/pxEYaaBt1G4ZDbSNBlqSMa6raq44y5VWcLZ0EJT+FvAUAQB9YWkl10/eSxSnNP9PelhjH7j/Z6P23f/Wiuj2VVqOE3VS7kxBfREA4Nz8Uq6f/iKWb9fSIFhv5B9r7Heb+r0G36axAygJAQBOrXWtZs4ljWr+9xr7g6Pz+4393qidxg7AMQIAnLFWmjmfKKnJtP/9xn6/mWt99E5jB1BDBAA4c+5Sf9zq97DG/vGp+fX/FoU0dgDNQQCAEzfnM128Xu28fxhKw4OBRoaMhgcDDQ8G2jJAYwfgJwIAKrfatfr5B0kl7xWFRnvHA+0bD7VtKBCtHgDWEQBQqdxK75wvf9Pf6HCg/ROhdu8IuY8aAB6CAIBKfXQ1LXXdf6BtdOyZlibG6PoA8DgEAFQmzawuXk9Le/0Du0I9f7ClMCztLQCgMQgAqMzF61kpU/8DbaPjR1vavo1RPwBsFAEAlShr9D+4xejzx9ra0mZ7HwBsBgEAlShj9D8yFOhzL7Y4eAcAngIBAKUrY/S/YyTQqy+0FTLrDwBPhcsnSlf06H9L2+iVoy2aPwD0gEsoSpVbFXrinzHSK0eZ9geAXhEAUKqFpVxpVtzDfo4eiNjtDwAFYA8ASnVrobhDf3aMBHpmL7+yKN/cQqYPrzx+5iq3VgVm20cKAum5Z8t/H/iHqylKNXenuOn/owf5dUU14kS60wdPqpTEwVYoDXOpKM1q12pltZgh0vhooJEhfl0BoChcUVGaW3eKG0E9t5/RPwAUiQCA0swtFDP9z+gfAIrHVRWlyK00v1jMDMDecRZBAaBoBACUYrmTKyug/xuzvvsfAFAsrqwoRTcu5nVGhgIO/QGAEhAAUIo4LW73PwCgeGytRinipJgA0LTpfytprWvVja26iVU3lrqJVXz/362STGpF0kDLaKBt7n9tt3T/37cOMCsCoDcEAJSiqADQhEYXJ1ZzC7lu3cl1ezFXsoHZkTjRY89QaEVGO7YH2jkSaHwsUJtlEgCbRABAKeKk99cwUm3X/ztrVjfnM83O51pczlX0ibFJanXjVqYbtzKZD6Xtw4EmRgNNjIUa3FLPnxmAahEAUIoiZgBaLSNTo16W5dLV2UyXbqTqrFVwSPxdVusPXVpYynXuUqqhrUYHd0faNx4qaNYKCoACEQBQim4BAWCgVUAhFcgy6eKNVBevZxua3i/byqrV2Y8SfXAl1aHdoQ7uiRQSBAB8AgEApUjS3l+j36f/rZUu38z04dW0sD0PRYoTq/OXU126kem5/ZH2TYS1mlEBUC4CAEphbe8NsZ+b1Y3bmd6/XO1U/9PqJlZnPkp04Xqqowcj7RrjZEUABABgU+LE6ucfJppb6I9HxW5GZ81q5lyiibFMLz3b6vsZFgDlIgAAGzS7kOvMB0lhhxy5Mjuf6y+WY738XEs7t7M54GGi0GjLE25BtVayhd/f8Wls5ERZCADABnxwJdUHVwrY2NAn4sTqr9+LdeRgpMN7uQx80q4dgXbtGHjs/2Y5TtRJi3niJeACn3zgMbJMeveDRDfnm3eht5LOX0q13LF66dkWI03AMwQA4BFWu1Y/PRdruVPvKf8nuX4rU2fN6tXnWxposy8A8AWZH3iIzprVm2ea3/zvWVzJ9eaZWGtdP75fAAQA4FM6a1ZvnYnVjf1qhqtdqzfPxlolBABeIAAAD4gTq7fOxoWcZFhHa12rt8/Gtb/TAcCTEQCAu3Ir/fRc4t3I/5NWu1bvnEtUwFlOAPoYAQC468yHie4s1++AnzLML+U6e6GARzoC6FvcBQBIung91bU5d7f6GSO1W0YDLaNWJKWZ1I2tuol1NhK/cjPT8GCgA7s4OhhoIgIAvLewvP4Y3aoYI40OB5oYDTU2st70261H334Xp1bdeP2Rv7PzmeaX8spCwXsXEo0MGY0MMVkINA0BAF5LUqufnS9/vdtIGh8NNLEj1MRosKlz+NuRUTuShgdDHdwdKkmt5hZy3ZzPNbeQlVq7tdI75xN96bMDipgIABqFAACvnf0o1VrJm/52bg/0/MGWtg0Wc8hOKzLaOx5q73ioldVI5y8lmi3x4USrXav3LiR6+blWae8BoHoEAHjrznKuG7fLW/cfGQr0/MFIYyPlTZ8PbTV69YW2FpbWlzHK2sR4bS7ToT2hhgdZCgCagk8zvFXWur8x0rHDLX3x5Xapzf9Bo8OBvvBSe/1M/5JO8z13sTkPQwJAAICnZudzLSwVP1put4xOHGs72zm/byLUic+0NfCYTYVP6/Zirlt3uE0SaAoCALxjrXT+cvH3uA8PBvriy22NDrv9WG3ftl5HGTv3z1d4twSAchEA4J3rtzKtrBa78W/H9kAnX2prS588TW+gbXTyM22Njxb7EV/qlLtvAkB1CADwirXSh1eLHcUObjE6frSlsM8+TUEgvXKkraGtxYaSD68wCwA0QZ9dsoBy3ZzP1FkrbvQfhdJrL7QVhf0x8v+k8G59mzl34EmWV61m59kLANQdAQBeuXGruMZlJL1ytK3BLf3Z/O/ZOmD0ytGWTIFlsgwA1B8BAN7Ic+nWneIa1+F9kXZur8dHaMdIoOf2F3fsx9xCdccRAyhHPa5eQAFuL+bKCpoAaLeMDu+r1zlaz+yJNFDQJsU0s5ov4TZKANUhAMAbs/PFjf6f2x/13aa/JwkC6UiBswBF/jwBVK9mlzDg6VipsPPyB7cY7Z+o55Nx9k6E2lbQXQFsBATqjQAALywu54qTYhatjx6ICt1QVyUj6ejBYh7qsxZbLa0QAoC6IgDACzcLGq22I6OJHfUc/d8zPhoUthegqJ8rgOrVaxcTvLLUsXrnfDFH9s4vFtOoxscC9dI6F1esLlzr/SCdQ3tCbd/29Pl9YjTQ5Zu9r+FfmS32XIU6SfNcWQXfehBIB/aX/z7wDwEAfStObN/db75rrLfRfzcu5nuaGAu0fdvT//937QgLCQD9+HfUNGFIAEA5WAIANigM1++nb4Kx4aBvTy8EUI1mXM2ACuzcHipoyCfGGBX+oCAA9cIVANigom6f6xfbBpv1/QDYHAIAsEFF7ZzvFwOtZn0/ADaHAABsUNMaZtMCDYDNIQAAGzRQzPk5faNpgQbA5hAAgA1qN2zE3G5YoAGwOQQAlKIVNatZSqrdw3+eJAya93cEYOMadklDvxgeat6vVjd2XUGxugU9GwFAPTXvKo2+MDLUvNFl0xpm074fAJtDAEApxoab96vVtIYZx836fgBsTvOu0ugL27cF2jte76fmfVLTGma3mOcsAagpAgBK8+IzUaPuNV/tNisANO37AbA5BACUJgqNXjnSUrsh95vP3SnmkcL9Ym6Bp/gBPiMAoFSjw4H+1itt7d5Z/+WAta7VUqcZIWBl1aqzxgwA4LPIdQFovla0PhOwfyLU/GKuxZVcSytWcVq/BjQ7n2t4sP65eXae0T/gOwIAKrNjJNCOETfN88xHia7c7L3p3ZzP9Nz+p//YTIwFmvzilp7r6NXN+WJmMvbuDPXyET+PFFyOE3VSghTqq/5DGWADdo0VswSx3LFaWa3fzMWDVrtWiyvFBICdo1xCgLri0wsvjI0ECgvahnD+clrMCznyfoH179jOJQSoKz698EJgpPHtxSSA2flMd5bruRlwcSXX9VvFTFuPDAVqN/CZD4AvCADwxsRYcb/u5y7VcxbgfIF172T0D9Qan2B4Y3w0lClowLqwlGu2oI10Vbl1J9ftxeJqHmf9H6g1PsHwRhSq0LsQzl5IavN8gDi1OvNhcWf/DrSNRhr4xEfAJ3yC4ZWJgu4GkKRubDVzLlHe5xnAWmnmXKK1Ap9lcHB3cbMpANwgAMArE6OBggIb153lvNCRdRnOXki0sFTc1H8YSgd21f9kR8B3BAB4ZaBtdGB3sedfXZvLdOF6f24KvHQjK+QApAftGw8VhQz/gbojAMA7z+4rvoGdu5jqgyv9FQI+vJrqvQvFzk4YIx3awwGiQBMQAOCdVmT07L7ip7A/uJJq5lyizPHpsFkuvXM+KfTAn3t2jYXaOsDoH2gCAgC8dHB3pC3t4hvZzflMPz7T1WrXzc7AtdjqzZ/HunG7+BRijPTsPkb/QFMQAOClIJCOHCinmS13rP7yZ7EuXE8ru0Mgt9LF65n+8mdxaY8sfmZPpG2DjP6BpiDOw1t7x0NdvJ6V0jDTzOrcxVSXrmc6ciDSnvFQZbXO67cyvX85LXXWYXCL6ekpiAD6D59oeO35Q5HePhuX9vprsdW7HyS6cD3V4b2RxkdDRQVsP8gyae5Opo+uZVoq6Ml+j3PscEsB84VAoxAA4LUdI4H2TYS6Olvuzr3ljtXP3k8UmERjI4F2jYUaHws00Nr4vECcWM0u5Jqdz3T7Tl7Z8sK+8bDQExQB9AcCALx37HBLq2tW8wUelvMouV0/k//WnVz6aH1qfaBtNNC693X9LoUkteomUhxbdROrbmzVWbOqemvhQNvo+UNcJoAm4pMN7wVGOv58S3/1blz57v3O2npj70dhKL32QkstHvkLNBLzeoDWR92vvdAuZH2+CYyRXjnS1vAglwigqfh0A3cNbTV65Wibh9xIOvZMi8f9Ag3HJxx4wM7tgV441HJdhlOH90baz8N+gMYjAACfcHB3qIO7/WyA+yZCHT3I1iDAB3zSgYd48ZmWtg4YnbuUyvbnHr3CHTkQcdQv4BE+7cAjHNoTadtgoHfOJ0rS5qaAwEgvPdfSnp1+znoAvmIJAHiMHSOBvvhyu7Fn4Lcio88da9P8AQ8RAIAn2Dpg9IWXBrR7R7Oa5NBWoy+81NbYMJcBwEcsAQAbEAbSK0dbGr5m9P6ltPIT+YoUGOnwvkiH90UKmjmxAWADCADAJhzeG2nn9kDnL6Xrx/nWzOhwoM8829LQFjo/4DsCALBJw4OBPvdiW/OLuc5dSrVYwdP4ehWF0tGDLR3g/n4AdxEAgKc0dneD4M3bmc5fTvvyTP92y+jArvVzDTjTH8CDCABAj3btCDUxFurqXKYPrqTqxu6DwNBWo0N7Iu3dGSpgjx+AhyAAAAUwRto/EWrfeKj5pVyz85lm53OtVRgGgkAaGw50cHfEOf4AnogAABTImPWzA3aMBHrxGWmpk2t2PtfcQl7KXoHBLUY7twcaHw01Nhww2gewYQQAoETDg4GGBwM9t1/qxlazC7lWVnN1k/V/7yZWcWyVP2aiIAykgbbRQMuofffrvca/dYB1fQBPhwAAVGSgbe7uwv/0TvwkterGUjexSlKrdmu90Q+0jSI27gMoAQEA6AOtyKgVSdvEiB5ANVgxBADAQwQAAAA8RAAAAMBDBAAAADxEAAAAwEMEAAAAPEQAAADAQwQAAAA8RAAAAMBDBAAAADxEAAAAwEMEAAAAPEQAAADAQwQAAAA8RAAAAMBDkesCAGyetZJkXZdROWNMIa9jbe8/O2utCniZJzNSMd818HEEAKCGLs3f0cLqmusyKndsz7jaYdjTa3TiROdnbxdUUfmMMdo9OuK6DDQQSwAAAHiIAAAAgIcIAAAAeIgAAACAhwgAAAB4iAAAAICHCAAAAHiIcwDghLXSapK4LqNQxhhtbfGRAlAPXK3gRJbntTqMZSPaYahje8ZdlwEAG8ISAAAAHiIAAADgIQIAAAAeIgAAAOAhAgAAAB4iAAAA4CECAAAAHuIcAKCGhgbaMsa4LqNyQQHfcxQEGhvc2vPrpHmuNLc9v86TePjXjIoQAIAa2jm0VTuHem9iPmpHoQ6OjfT8Ostxok6aFVAR4AZLAAAAeIgAAACAhwgAAAB4iAAAAICHCAAAAHiIAAAAgIcIAAAAeIgAAACAhwgAAAB4iAAAAICHCAAAAHiIAAAAgIcIAAAAeIgAAACAhwgAAAB4iAAAAICHItcFANi8m0srWunGrsvwWmqtMmtLf5/AGI0ODZb+PvAPAQCoobUk1RIBwAuBMa5LQEOxBAAAgIcIAAAAeIgAAACAhwgAAAB4iAAAAICHCAAAAHiIAAAAgIcIAAAAeIgAAACAhwgAAAB4iAAAAICHCAAAAHiIAAAAgIcIAAAAeIgAAACAhyLXBQDYvMBIoSG/u2RlK3kfY0wl7wP/EACAGjowtl0HxlxX4bflOFEnzVyXATw1hhAAAHiIAAAAgIcIAAAAeIgAAACAhwgAAAB4iAAAAICHCAAAAHiIcwDghDHS0EDbdRmFagXkaQD1QQCAE2EQ6Mg4J9kAgCsMWQAA8BABAAAADxEAAADwEAEAAAAPEQAAAPAQAQAAAA8RAAAA8BABAAAADxEAAADwEAEAAAAPEQAAAPAQAQAAAA8RAAAA8BABAAAADxEAAADwEAEAAAAPEQAAAPAQAQAAAA8RAAAA8BABAAAADxEAAADwEAEAAAAPEQAAAPAQAQAAAA8RAAAA8FDkugAAm3djcUXLcey6jMod2rFdraC3cUs3SXX5zlLPtWR5rtz2/DJPZIw0tm2o/DeCdwgAQA1101QrXf8CgM1tz/OWmbW1+tkFxrguAQ3FEgAAAB4iAAAA4CECAAAAHiIAAADgIQIAAAAeIgAAAOAhAgAAAB7iHAA4kWa53rtxy3UZhWqFgV7YvdN1GQCwIQQAOGGNlNncdRmFCio4FQ4AisISAAAAHiIAAADgIQIAAAAeIgAAAOAhAgAAAB4iAAAA4CFuAwRqKAwCRWHouozKGVPMaxTxs7PWqoo7PxmloSwEAKCG9o8Oa7+GXZdRS1tbLb20Z7zn11mOE3XSrICKADcIlwAAeIgAAACAhwgAAAB4iAAAAICHCAAAAHiIAAAAgIcIAAAAeIgAAACAhwgAAAB4iAAAAICHCAAAAHiIAAAAgIcIAAAAeIgAAACAhwgAAAB4iAAAAICHCAAAAHiIAAAAgIcIAAAAeIgAAACAhwgAAAB4JsxZXgAABcxJREFUiAAAAICHCAAAAHiIAAAAgIcIAAAAeChyXQCqc/ajpNOKzJ+7rkOSrGwwoKFx13UUyaYme/9yest1HajG0nJysLOSjrquo0hbtobL+pLrKlAVAoBHLt/MBiX9kus6/kYTf/1S1wWgIlk3VZ406+97aUXbXNeA6rAEAACAhwgAAAB4iAAAAICHCAAAAHiIAAAAgIcIAAAAeIgAAACAhwgAAAB4iAAAAICHCAAAAHiIAAAAgIcIAAAAeIgAAACAhwgAAAB4iAAAAICHCAAAAHiIAAAAgIcIAAAAeIgAAACAhwgAAAB4iAAAAICHCAAAAHiIAAAAgIcIAAAAeChyXQCAcmR5Llnb24sYozBgnAA0EQEAaKjbc7eVJklPrxG1WprYNV5QRQD6CdEeAAAPEQAAAPAQAQAAAA8RAAAA8BABAAAADxEAAADwEAEAAAAPEQD8krsuAEAfM8pcl4DqEAD8cst1AUBj9HjIYp+67roAVIcA4JerrgsAmsL2esxyf/qF6wJQHQKAXwgAQFGaGACMedd1CagOAcAv19TUiUugYg2dAZhxXQCqQwDwyBunjsdiHwDQO6vmzQAYk0+fPrHsugxUhwDgH5YBgB41cfRvjIld14BqEQD8QwAAemUbeEetEaN/zxAA/PNnrgsA6s5mzQsAxpi3XdeAakWuC0Dl/kTSt10XgfINDm5Vlg/09BphwBjhYfK0geflmOA7rktAtUwT17LweJNTM+9JesF1HUAdWWuVrqy6LqNQJjDxn/72l3pLi6gd4r2f/qfrAoC6sg0c/Zsg+GvXNaB6BAA//YnrAoC6aub0v/nPrktA9QgAfvp/km64LgKoHWtls4YFAGNyGfOfXJeB6hEAPPTGqeO5pO+7rgOom7xpzV9SEAbvTJ8+kbquA9UjAPjr30hacV0EUCd5nLguoXhB8PddlwA3CACeeuPU8euS/sB1HUBd5EkqmzfrrqkgCv9s+vQJzv/3FAHAb/9e0qzrIoC+Z62ypo3+jckVBH/PdRlwhwDgsTdOHV+S9Huu6wD6XZakjXv4TxCG/3369IlrruuAOwQATEl633URQL+y1jZu7d8Ykygw/8B1HXCLAOC5N04dTyT9ttYfcArgE/Ju8x6SZ6Lw302fPtFxXQfcIgBAb5w6/kNJ/8p1HUC/yeOkcQf/BFH4p9Ovn/wXruuAewQA3PN7kv6b6yKAfpGnWeM2/pkwvKwg+Nuu60B/4GFAuG9yamZQ0o8kfd51LYBLNs+Vrq41amHMBEHHROEz06dPzLmuBf2BGQDc98ap4x1JX5d03XUtgDPWKlvrNqr5y5jcROGv0vzxIAIAPuaNU8cvS/oNSUuuawFcSNe6zTrwx8gGUXhq+vSJH7suBf2FJQA81OTUzGcl/S9Jz7quBaiCtVbZalc2z12XUhhjTGqi6JvTr5/gCaD4FAIAHmlyamZc0g8k/YrrWoAy2SxXutZt1GE/JggWTBR+afr0iV+4rgX9iSUAPNIbp47PSfo7kv6j61qAsuRpenfDX4OafxieMVG4n+aPx2EGABsyOTVzWusPD4pc1wIUJesmypNm3eoXRNEPpn/r5Ddd14H+xwwANuSNU8e/K+lVST90XQvQK5tlSjtrjWr+JgxuBK3W12j+2ChmALBpk1Mzvyzp9yV92XUtwGbYPFfWTWSz5pzuZ4Jg2YTB706/fvJ7rmtBvRAA8NQmp2Z+U9K3Jb3ouhbgcWxulcdxo471NYGJTRj+4fTrJ3/HdS2oJwIAejI5NRNJ+prWzw74NUljbisC7rJWeZbJpllzGr8x1gTBRyYwP5Ax35o+fWLNdUmoLwIACnM3DHxF0je0fqLgIbcVwTfW2vsNvynT/MaYVGHwrjHmj2XM92j6KAoBAKWZnJp5TdJLkvY98M/eB/486K461JXNrWStrH3ga25l87y2h/gYYxIZ05Exd4zRnGSuyuiCpB9Nv37y+67rQzP9f4WZVVxLO3oiAAAAAElFTkSuQmCC;fontFamily=Comic Sans MS;fontSize=17;fontColor=#000000;" parent="7312b880-07d3-11eb-b423-c9350188184f" vertex="1" >
          <mxGeometry x="115" y="80" width="70" height="80" as="geometry" />
        </mxCell>
      </object>
      
      
      
        
      <mxCell Type="Link" id="7312b8a6-07d3-11eb-b423-c9350188184f" style="rounded=0;orthogonalLoop=1;jettySize=auto;html=1;fontFamily=Comic Sans MS;fontSize=17;fontColor=#000000;edgeStyle=entityRelationEdgeStyle;startArrow=classic;startFill=1;"  edge="1" parent="1" source="7312b7e0-07d3-11eb-b423-c9350188184f" target="7312b80a-07d3-11eb-b423-c9350188184f">
        <mxGeometry relative="1" as="geometry" />
      </mxCell>
        
      
        
      <mxCell Type="Link" id="7312b8a7-07d3-11eb-b423-c9350188184f" style="rounded=0;orthogonalLoop=1;jettySize=auto;html=1;fontFamily=Comic Sans MS;fontSize=17;fontColor=#000000;edgeStyle=entityRelationEdgeStyle;startArrow=classic;startFill=1;"  edge="1" parent="1" source="7312b80a-07d3-11eb-b423-c9350188184f" target="7312b835-07d3-11eb-b423-c9350188184f">
        <mxGeometry relative="1" as="geometry" />
      </mxCell>
        
      
        
      <mxCell Type="Link" id="7312b8a8-07d3-11eb-b423-c9350188184f" style="rounded=0;orthogonalLoop=1;jettySize=auto;html=1;fontFamily=Comic Sans MS;fontSize=17;fontColor=#000000;edgeStyle=entityRelationEdgeStyle;startArrow=classic;startFill=1;"  edge="1" parent="1" source="7312b835-07d3-11eb-b423-c9350188184f" target="7312b85b-07d3-11eb-b423-c9350188184f">
        <mxGeometry relative="1" as="geometry" />
      </mxCell>
        
      
        
      <mxCell Type="Link" id="7312b8a9-07d3-11eb-b423-c9350188184f" style="rounded=0;orthogonalLoop=1;jettySize=auto;html=1;fontFamily=Comic Sans MS;fontSize=17;fontColor=#000000;edgeStyle=entityRelationEdgeStyle;startArrow=classic;startFill=1;"  edge="1" parent="1" source="7312b85b-07d3-11eb-b423-c9350188184f" target="7312b884-07d3-11eb-b423-c9350188184f">
        <mxGeometry relative="1" as="geometry" />
      </mxCell>
        
      
        
      
        
      
        
      
        
      
        
      
        
      
        
      
        
      
        
      
    </root>
  </mxGraphModel>
